<svg xmlns="http://www.w3.org/2000/svg" xmlns:xlink="http://www.w3.org/1999/xlink" width="500" zoomAndPan="magnify" viewBox="0 0 375 374.999991" height="500" preserveAspectRatio="xMidYMid meet" version="1.2"><g id="102e829c83"><path style=" stroke:none;fill-rule:nonzero;fill:#ffffff;fill-opacity:1;" d="M 294.714844 235.628906 L 186.3125 344.03125 L 72.183594 344.03125 C 39.859375 344.03125 16.898438 311.609375 28.089844 280.917969 C 48.503906 225.011719 107.816406 187.449219 175.679688 187.449219 C 222.933594 187.449219 265.996094 205.695312 294.714844 235.628906 Z M 227.367188 373.914062 C 224.96875 374.851562 222.257812 372.144531 223.296875 369.742188 L 227.625 344.03125 L 312.78125 258.773438 L 338.972656 284.859375 L 253.808594 370.007812 Z M 346.46875 277.242188 L 320.441406 251.117188 L 328.523438 243.136719 C 332.382812 239.273438 338.320312 238.757812 341.867188 242.304688 L 354.714844 255.25 C 358.675781 259.210938 358.359375 264.949219 354.398438 269.117188 Z M 175.679688 179.261719 C 128.277344 179.261719 89.710938 139.09375 89.710938 89.710938 C 89.710938 40.332031 128.277344 0.164062 175.679688 0.164062 C 223.082031 0.164062 261.648438 40.332031 261.648438 89.710938 C 261.648438 139.09375 223.082031 179.261719 175.679688 179.261719 Z M 175.679688 179.261719 "/></g></svg>