<svg xmlns="http://www.w3.org/2000/svg" xmlns:xlink="http://www.w3.org/1999/xlink" width="500" zoomAndPan="magnify" viewBox="0 0 375 374.999991" height="500" preserveAspectRatio="xMidYMid meet" version="1.2"><g id="69c8cbdd7e"><path style=" stroke:none;fill-rule:nonzero;fill:#ffffff;fill-opacity:1;" d="M 365.496094 168.933594 L 195.980469 16.886719 C 190.9375 12.355469 183.332031 12.355469 178.289062 16.886719 L 8.773438 168.933594 C -0.292969 176.460938 5.847656 192.472656 17.617188 192.03125 L 41.007812 192.03125 L 41.007812 349.78125 C 41.007812 357.089844 46.929688 363.011719 54.238281 363.011719 L 133.40625 363.011719 C 140.714844 363.011719 146.636719 357.089844 146.636719 349.78125 L 146.636719 277.414062 C 146.636719 255.042969 164.839844 236.84375 187.207031 236.84375 C 209.574219 236.84375 227.777344 255.042969 227.777344 277.414062 L 227.777344 349.78125 C 227.777344 357.089844 233.699219 363.011719 241.007812 363.011719 L 320.175781 363.011719 C 327.484375 363.011719 333.40625 357.089844 333.40625 349.78125 L 333.40625 192.03125 L 356.796875 192.03125 C 368.566406 192.472656 374.707031 176.460938 365.644531 168.933594 Z M 365.496094 168.933594 "/></g></svg>