<svg xmlns="http://www.w3.org/2000/svg" xmlns:xlink="http://www.w3.org/1999/xlink" width="500" zoomAndPan="magnify" viewBox="0 0 375 374.999991" height="500" preserveAspectRatio="xMidYMid meet" version="1.2"><defs><clipPath id="73463e0a79"><path d="M 24.375 18.75 L 350.625 18.75 L 350.625 356.25 L 24.375 356.25 Z M 24.375 18.75 "/></clipPath></defs><g id="d58982870e"><path style=" stroke:none;fill-rule:nonzero;fill:#ffffff;fill-opacity:1;" d="M 127.144531 205.003906 C 127.511719 205.003906 127.878906 204.96875 128.242188 204.898438 C 128.601562 204.824219 128.957031 204.71875 129.296875 204.578125 C 129.636719 204.433594 129.960938 204.261719 130.269531 204.058594 C 130.574219 203.851562 130.859375 203.617188 131.121094 203.359375 C 131.382812 203.097656 131.617188 202.8125 131.820312 202.503906 C 132.027344 202.199219 132.199219 201.875 132.339844 201.53125 C 132.480469 201.191406 132.589844 200.839844 132.660156 200.476562 C 132.734375 200.113281 132.769531 199.75 132.769531 199.378906 L 132.769531 175.625 C 132.769531 175.257812 132.734375 174.890625 132.660156 174.527344 C 132.589844 174.164062 132.480469 173.8125 132.339844 173.472656 C 132.199219 173.132812 132.027344 172.808594 131.820312 172.5 C 131.617188 172.195312 131.382812 171.910156 131.121094 171.648438 C 130.859375 171.386719 130.574219 171.152344 130.269531 170.949219 C 129.960938 170.742188 129.636719 170.570312 129.296875 170.429688 C 128.957031 170.289062 128.601562 170.179688 128.242188 170.109375 C 127.878906 170.035156 127.511719 170 127.144531 170 C 126.773438 170 126.410156 170.035156 126.046875 170.109375 C 125.683594 170.179688 125.332031 170.289062 124.992188 170.429688 C 124.648438 170.570312 124.324219 170.742188 124.019531 170.949219 C 123.710938 171.152344 123.425781 171.386719 123.167969 171.648438 C 122.90625 171.910156 122.671875 172.195312 122.464844 172.5 C 122.261719 172.808594 122.089844 173.132812 121.945312 173.472656 C 121.804688 173.8125 121.699219 174.164062 121.625 174.527344 C 121.554688 174.890625 121.519531 175.257812 121.519531 175.625 L 121.519531 199.378906 C 121.519531 199.75 121.554688 200.113281 121.625 200.476562 C 121.699219 200.839844 121.804688 201.191406 121.945312 201.53125 C 122.089844 201.875 122.261719 202.199219 122.464844 202.503906 C 122.671875 202.8125 122.90625 203.097656 123.167969 203.359375 C 123.425781 203.617188 123.710938 203.851562 124.019531 204.058594 C 124.324219 204.261719 124.648438 204.433594 124.992188 204.578125 C 125.332031 204.71875 125.683594 204.824219 126.046875 204.898438 C 126.410156 204.96875 126.773438 205.003906 127.144531 205.003906 Z M 127.144531 205.003906 "/><g clip-rule="nonzero" clip-path="url(#73463e0a79)"><path style=" stroke:none;fill-rule:nonzero;fill:#ffffff;fill-opacity:1;" d="M 344.945312 152.625 L 260.792969 152.625 L 260.792969 126.863281 C 260.792969 126.320312 260.714844 125.792969 260.5625 125.273438 C 260.40625 124.753906 260.183594 124.269531 259.886719 123.8125 C 259.59375 123.359375 259.242188 122.957031 258.832031 122.605469 C 258.421875 122.253906 257.96875 121.964844 257.476562 121.742188 C 256.976562 121.527344 256.457031 121.382812 255.914062 121.3125 C 255.375 121.242188 254.835938 121.25 254.296875 121.335938 C 253.757812 121.417969 253.246094 121.578125 252.75 121.808594 C 252.257812 122.042969 251.808594 122.339844 251.398438 122.699219 L 240.375 132.710938 L 240.375 24.375 C 240.375 24.003906 240.339844 23.640625 240.265625 23.277344 C 240.195312 22.914062 240.089844 22.5625 239.945312 22.222656 C 239.804688 21.882812 239.632812 21.558594 239.425781 21.25 C 239.222656 20.941406 238.988281 20.660156 238.726562 20.398438 C 238.464844 20.136719 238.183594 19.902344 237.875 19.699219 C 237.566406 19.492188 237.242188 19.320312 236.902344 19.179688 C 236.5625 19.035156 236.210938 18.929688 235.847656 18.859375 C 235.484375 18.785156 235.121094 18.75 234.75 18.75 L 30.054688 18.75 C 29.945312 18.75 29.886719 18.804688 29.832031 18.804688 C 29.179688 18.789062 28.5625 18.921875 27.976562 19.199219 C 27.855469 19.210938 27.742188 19.25 27.636719 19.3125 C 27.414062 19.480469 27.132812 19.59375 26.851562 19.761719 C 26.636719 19.902344 26.449219 20.070312 26.289062 20.269531 C 26.183594 20.328125 26.089844 20.40625 26.007812 20.492188 C 25.566406 20.960938 25.210938 21.488281 24.9375 22.070312 C 24.882812 22.179688 24.882812 22.292969 24.824219 22.40625 C 24.578125 23.039062 24.449219 23.695312 24.429688 24.375 L 24.429688 302.023438 C 24.449219 302.722656 24.578125 303.398438 24.824219 304.050781 C 24.894531 304.25 24.988281 304.4375 25.105469 304.613281 C 25.316406 304.992188 25.5625 305.347656 25.835938 305.679688 C 26.007812 305.851562 26.175781 306.074219 26.34375 306.242188 C 26.652344 306.515625 26.988281 306.738281 27.355469 306.917969 C 27.574219 307.0625 27.800781 307.195312 28.03125 307.3125 L 156 355.855469 C 156.628906 356.128906 157.285156 356.261719 157.96875 356.25 C 158.339844 356.25 158.703125 356.214844 159.066406 356.140625 C 159.429688 356.070312 159.78125 355.964844 160.121094 355.820312 C 160.460938 355.679688 160.785156 355.507812 161.09375 355.300781 C 161.402344 355.097656 161.683594 354.863281 161.945312 354.601562 C 162.207031 354.339844 162.441406 354.058594 162.644531 353.75 C 162.851562 353.441406 163.023438 353.117188 163.164062 352.777344 C 163.308594 352.4375 163.414062 352.085938 163.484375 351.722656 C 163.558594 351.359375 163.59375 350.996094 163.59375 350.625 L 163.59375 307.707031 L 234.75 307.707031 C 235.121094 307.707031 235.484375 307.671875 235.847656 307.597656 C 236.210938 307.527344 236.5625 307.417969 236.902344 307.277344 C 237.242188 307.136719 237.566406 306.964844 237.875 306.757812 C 238.183594 306.554688 238.464844 306.320312 238.726562 306.058594 C 238.988281 305.796875 239.222656 305.511719 239.425781 305.207031 C 239.632812 304.898438 239.804688 304.574219 239.945312 304.234375 C 240.089844 303.890625 240.195312 303.539062 240.265625 303.179688 C 240.339844 302.816406 240.375 302.449219 240.375 302.082031 L 240.375 231.09375 L 251.398438 241.105469 C 252.46875 242.074219 253.726562 242.558594 255.167969 242.570312 C 255.972656 242.570312 256.742188 242.398438 257.476562 242.0625 C 257.96875 241.839844 258.421875 241.554688 258.832031 241.203125 C 259.242188 240.847656 259.59375 240.445312 259.886719 239.992188 C 260.183594 239.539062 260.40625 239.050781 260.5625 238.53125 C 260.714844 238.015625 260.792969 237.484375 260.792969 236.945312 L 260.792969 208.425781 L 344.945312 208.425781 C 345.3125 208.425781 345.679688 208.390625 346.042969 208.316406 C 346.402344 208.246094 346.753906 208.136719 347.097656 207.996094 C 347.4375 207.855469 347.761719 207.683594 348.070312 207.476562 C 348.375 207.273438 348.660156 207.039062 348.921875 206.777344 C 349.183594 206.515625 349.414062 206.230469 349.621094 205.925781 C 349.824219 205.617188 350 205.292969 350.140625 204.953125 C 350.28125 204.609375 350.386719 204.257812 350.460938 203.898438 C 350.53125 203.535156 350.570312 203.167969 350.570312 202.800781 L 350.570312 158.25 C 350.570312 157.878906 350.53125 157.515625 350.460938 157.152344 C 350.386719 156.789062 350.28125 156.4375 350.140625 156.097656 C 350 155.757812 349.824219 155.433594 349.621094 155.125 C 349.414062 154.816406 349.183594 154.535156 348.921875 154.273438 C 348.660156 154.011719 348.375 153.777344 348.070312 153.574219 C 347.761719 153.367188 347.4375 153.195312 347.097656 153.054688 C 346.753906 152.910156 346.402344 152.804688 346.042969 152.734375 C 345.679688 152.660156 345.3125 152.625 344.945312 152.625 Z M 152.34375 302.082031 L 152.34375 342.46875 L 35.679688 298.144531 L 35.679688 32.53125 L 152.34375 76.855469 Z M 339.320312 197.175781 L 255.167969 197.175781 C 254.800781 197.175781 254.433594 197.210938 254.070312 197.28125 C 253.710938 197.355469 253.355469 197.460938 253.015625 197.601562 C 252.675781 197.746094 252.351562 197.917969 252.042969 198.121094 C 251.738281 198.328125 251.453125 198.5625 251.191406 198.824219 C 250.929688 199.082031 250.695312 199.367188 250.492188 199.675781 C 250.285156 199.980469 250.113281 200.304688 249.972656 200.648438 C 249.832031 200.988281 249.722656 201.339844 249.652344 201.703125 C 249.578125 202.066406 249.542969 202.429688 249.542969 202.800781 L 249.542969 224.230469 L 238.742188 214.445312 L 238.632812 214.332031 L 202.914062 181.929688 L 249.542969 139.574219 L 249.542969 158.25 C 249.542969 158.621094 249.578125 158.984375 249.652344 159.347656 C 249.722656 159.710938 249.832031 160.0625 249.972656 160.402344 C 250.113281 160.742188 250.285156 161.066406 250.492188 161.375 C 250.695312 161.683594 250.929688 161.964844 251.191406 162.226562 C 251.453125 162.488281 251.738281 162.722656 252.042969 162.925781 C 252.351562 163.132812 252.675781 163.304688 253.015625 163.445312 C 253.355469 163.589844 253.710938 163.695312 254.070312 163.765625 C 254.433594 163.839844 254.800781 163.875 255.167969 163.875 L 339.320312 163.875 Z M 339.320312 197.175781 "/></g><path style=" stroke:none;fill-rule:nonzero;fill:#ffffff;fill-opacity:1;" d="M 62.117188 159.195312 C 62.488281 159.195312 62.855469 159.160156 63.214844 159.085938 C 63.578125 159.015625 63.929688 158.90625 64.269531 158.765625 C 64.613281 158.625 64.9375 158.453125 65.242188 158.246094 C 65.550781 158.042969 65.835938 157.808594 66.097656 157.546875 C 66.355469 157.285156 66.589844 157.003906 66.796875 156.695312 C 67 156.386719 67.175781 156.0625 67.316406 155.722656 C 67.457031 155.382812 67.5625 155.03125 67.636719 154.667969 C 67.707031 154.304688 67.742188 153.9375 67.742188 153.570312 L 67.742188 70.28125 C 67.742188 69.910156 67.707031 69.546875 67.636719 69.183594 C 67.5625 68.820312 67.457031 68.46875 67.316406 68.128906 C 67.175781 67.785156 67 67.460938 66.796875 67.15625 C 66.589844 66.847656 66.355469 66.5625 66.097656 66.304688 C 65.835938 66.042969 65.550781 65.808594 65.242188 65.605469 C 64.9375 65.398438 64.613281 65.226562 64.269531 65.082031 C 63.929688 64.941406 63.578125 64.835938 63.214844 64.765625 C 62.855469 64.691406 62.488281 64.65625 62.117188 64.65625 C 61.75 64.65625 61.382812 64.691406 61.019531 64.765625 C 60.660156 64.835938 60.308594 64.941406 59.964844 65.082031 C 59.625 65.226562 59.300781 65.398438 58.992188 65.605469 C 58.6875 65.808594 58.402344 66.042969 58.140625 66.304688 C 57.878906 66.5625 57.648438 66.847656 57.441406 67.15625 C 57.238281 67.460938 57.0625 67.785156 56.921875 68.128906 C 56.78125 68.46875 56.675781 68.820312 56.601562 69.183594 C 56.53125 69.546875 56.492188 69.910156 56.492188 70.28125 L 56.492188 153.570312 C 56.492188 153.9375 56.53125 154.304688 56.601562 154.667969 C 56.675781 155.03125 56.78125 155.382812 56.921875 155.722656 C 57.0625 156.0625 57.238281 156.386719 57.441406 156.695312 C 57.648438 157.003906 57.878906 157.285156 58.140625 157.546875 C 58.402344 157.808594 58.6875 158.042969 58.992188 158.246094 C 59.300781 158.453125 59.625 158.625 59.964844 158.765625 C 60.308594 158.90625 60.660156 159.015625 61.019531 159.085938 C 61.382812 159.160156 61.75 159.195312 62.117188 159.195312 Z M 62.117188 159.195312 "/><path style=" stroke:none;fill-rule:nonzero;fill:#ffffff;fill-opacity:1;" d="M 62.117188 208.707031 C 62.859375 208.71875 63.570312 208.585938 64.257812 208.3125 C 64.957031 208.019531 65.574219 207.605469 66.113281 207.070312 C 66.632812 206.535156 67.03125 205.921875 67.3125 205.234375 C 67.59375 204.542969 67.738281 203.828125 67.742188 203.082031 C 67.710938 201.558594 67.167969 200.246094 66.113281 199.144531 C 65.84375 198.890625 65.554688 198.667969 65.246094 198.472656 C 64.933594 198.273438 64.609375 198.109375 64.265625 197.972656 C 63.925781 197.839844 63.574219 197.734375 63.210938 197.667969 C 62.851562 197.597656 62.488281 197.5625 62.117188 197.5625 C 61.75 197.5625 61.386719 197.597656 61.027344 197.667969 C 60.664062 197.734375 60.3125 197.839844 59.972656 197.972656 C 59.628906 198.109375 59.304688 198.273438 58.992188 198.472656 C 58.683594 198.667969 58.394531 198.890625 58.125 199.144531 C 57.609375 199.667969 57.207031 200.273438 56.925781 200.953125 C 56.644531 201.632812 56.5 202.34375 56.492188 203.082031 C 56.492188 203.453125 56.523438 203.816406 56.59375 204.183594 C 56.664062 204.546875 56.769531 204.898438 56.910156 205.242188 C 57.050781 205.582031 57.222656 205.910156 57.425781 206.21875 C 57.632812 206.523438 57.867188 206.808594 58.128906 207.070312 C 58.390625 207.332031 58.675781 207.566406 58.984375 207.773438 C 59.292969 207.976562 59.617188 208.148438 59.960938 208.289062 C 60.300781 208.429688 60.65625 208.535156 61.019531 208.605469 C 61.382812 208.675781 61.75 208.710938 62.117188 208.707031 Z M 62.117188 208.707031 "/></g></svg>