<svg xmlns="http://www.w3.org/2000/svg" xmlns:xlink="http://www.w3.org/1999/xlink" width="500" zoomAndPan="magnify" viewBox="0 0 375 374.999991" height="500" preserveAspectRatio="xMidYMid meet" version="1.2"><defs><clipPath id="914e5bcd2a"><path d="M 50.46875 1.28125 L 324.21875 1.28125 L 324.21875 374.78125 L 50.46875 374.78125 Z M 50.46875 1.28125 "/></clipPath></defs><g id="07c67c5400"><g clip-rule="nonzero" clip-path="url(#914e5bcd2a)"><path style=" stroke:none;fill-rule:nonzero;fill:#ffffff;fill-opacity:1;" d="M 321.425781 47.703125 L 241.535156 2.511719 C 241.058594 2.25 240.558594 2.054688 240.03125 1.921875 C 239.503906 1.789062 238.96875 1.722656 238.425781 1.730469 C 237.882812 1.734375 237.347656 1.808594 236.824219 1.953125 C 236.296875 2.097656 235.800781 2.304688 235.328125 2.574219 C 234.859375 2.84375 234.429688 3.167969 234.042969 3.550781 C 233.65625 3.929688 233.328125 4.355469 233.054688 4.824219 C 232.78125 5.292969 232.578125 5.789062 232.433594 6.3125 C 232.292969 6.839844 232.226562 7.371094 232.226562 7.914062 L 232.226562 46.898438 L 158.542969 46.898438 C 158.136719 46.898438 157.730469 46.9375 157.332031 47.015625 C 156.933594 47.09375 156.542969 47.214844 156.167969 47.371094 C 155.789062 47.523438 155.433594 47.714844 155.09375 47.941406 C 154.753906 48.167969 154.441406 48.425781 154.152344 48.714844 C 153.863281 49.003906 153.609375 49.316406 153.382812 49.65625 C 153.15625 49.996094 152.964844 50.351562 152.808594 50.730469 C 152.652344 51.105469 152.535156 51.492188 152.453125 51.894531 C 152.375 52.292969 152.335938 52.695312 152.335938 53.105469 L 152.335938 159.3125 L 132.59375 159.3125 L 132.59375 135.042969 C 132.59375 134.464844 132.515625 133.902344 132.359375 133.347656 C 132.203125 132.792969 131.972656 132.269531 131.667969 131.78125 C 131.367188 131.289062 131 130.851562 130.574219 130.460938 C 130.148438 130.070312 129.679688 129.75 129.164062 129.492188 C 128.648438 129.234375 128.109375 129.050781 127.542969 128.945312 C 126.976562 128.835938 126.40625 128.808594 125.832031 128.859375 C 125.257812 128.914062 124.699219 129.042969 124.164062 129.25 C 123.625 129.453125 123.125 129.730469 122.664062 130.078125 L 53.140625 183.027344 C 52.761719 183.320312 52.421875 183.648438 52.121094 184.019531 C 51.820312 184.386719 51.566406 184.785156 51.355469 185.214844 C 51.144531 185.640625 50.988281 186.085938 50.878906 186.550781 C 50.773438 187.015625 50.71875 187.484375 50.71875 187.960938 C 50.71875 188.4375 50.773438 188.910156 50.878906 189.371094 C 50.988281 189.835938 51.144531 190.28125 51.355469 190.710938 C 51.566406 191.136719 51.820312 191.535156 52.121094 191.90625 C 52.421875 192.273438 52.761719 192.605469 53.140625 192.898438 L 122.664062 245.847656 C 123.769531 246.660156 125.011719 247.074219 126.386719 247.089844 C 127.367188 247.105469 128.300781 246.898438 129.179688 246.46875 C 129.699219 246.207031 130.167969 245.882812 130.59375 245.488281 C 131.019531 245.097656 131.382812 244.65625 131.683594 244.160156 C 131.988281 243.667969 132.214844 243.140625 132.371094 242.585938 C 132.523438 242.027344 132.597656 241.460938 132.59375 240.878906 L 132.59375 216.609375 L 152.335938 216.609375 L 152.335938 322.757812 C 152.335938 323.164062 152.375 323.570312 152.453125 323.96875 C 152.535156 324.367188 152.652344 324.757812 152.808594 325.132812 C 152.964844 325.507812 153.15625 325.867188 153.382812 326.207031 C 153.609375 326.542969 153.863281 326.859375 154.152344 327.148438 C 154.441406 327.433594 154.753906 327.691406 155.09375 327.917969 C 155.433594 328.144531 155.789062 328.335938 156.167969 328.492188 C 156.542969 328.648438 156.933594 328.765625 157.332031 328.84375 C 157.730469 328.925781 158.136719 328.964844 158.542969 328.964844 L 232.226562 328.964844 L 232.226562 367.949219 C 232.226562 368.492188 232.292969 369.023438 232.433594 369.546875 C 232.578125 370.070312 232.78125 370.566406 233.054688 371.035156 C 233.328125 371.503906 233.65625 371.929688 234.042969 372.3125 C 234.429688 372.695312 234.859375 373.019531 235.328125 373.285156 C 236.289062 373.847656 237.324219 374.136719 238.433594 374.15625 C 239.539062 374.160156 240.574219 373.890625 241.535156 373.347656 L 321.425781 328.15625 C 321.910156 327.890625 322.34375 327.5625 322.738281 327.179688 C 323.132812 326.792969 323.46875 326.363281 323.746094 325.890625 C 324.027344 325.414062 324.238281 324.910156 324.378906 324.378906 C 324.523438 323.847656 324.59375 323.308594 324.59375 322.757812 L 324.59375 53.105469 C 324.59375 52.554688 324.523438 52.011719 324.378906 51.480469 C 324.238281 50.949219 324.027344 50.445312 323.746094 49.972656 C 323.46875 49.496094 323.132812 49.066406 322.738281 48.683594 C 322.34375 48.296875 321.910156 47.972656 321.425781 47.703125 Z M 126.386719 204.195312 C 125.980469 204.195312 125.578125 204.234375 125.175781 204.3125 C 124.777344 204.394531 124.390625 204.511719 124.011719 204.667969 C 123.636719 204.824219 123.277344 205.015625 122.9375 205.242188 C 122.601562 205.46875 122.285156 205.722656 122 206.011719 C 121.710938 206.300781 121.453125 206.613281 121.226562 206.953125 C 121 207.292969 120.808594 207.648438 120.652344 208.027344 C 120.496094 208.402344 120.378906 208.792969 120.300781 209.191406 C 120.21875 209.589844 120.179688 209.996094 120.179688 210.402344 L 120.179688 228.339844 L 67.167969 187.929688 L 120.179688 147.582031 L 120.179688 165.523438 C 120.179688 165.929688 120.21875 166.332031 120.300781 166.734375 C 120.378906 167.132812 120.496094 167.519531 120.652344 167.898438 C 120.808594 168.273438 121 168.632812 121.226562 168.96875 C 121.453125 169.308594 121.710938 169.621094 122 169.910156 C 122.285156 170.199219 122.601562 170.457031 122.9375 170.683594 C 123.277344 170.910156 123.636719 171.101562 124.011719 171.257812 C 124.390625 171.414062 124.777344 171.53125 125.175781 171.609375 C 125.578125 171.691406 125.980469 171.730469 126.386719 171.730469 L 183.808594 171.730469 L 183.808594 204.195312 Z M 312.179688 319.15625 L 244.640625 357.332031 L 244.640625 18.527344 L 312.179688 56.703125 Z M 312.179688 319.15625 "/></g><path style=" stroke:none;fill-rule:nonzero;fill:#ffffff;fill-opacity:1;" d="M 274.652344 194.136719 C 275.0625 194.136719 275.464844 194.097656 275.863281 194.019531 C 276.265625 193.941406 276.652344 193.820312 277.027344 193.664062 C 277.40625 193.511719 277.761719 193.320312 278.101562 193.09375 C 278.441406 192.867188 278.753906 192.609375 279.042969 192.320312 C 279.332031 192.03125 279.589844 191.71875 279.816406 191.378906 C 280.042969 191.039062 280.234375 190.683594 280.386719 190.304688 C 280.542969 189.929688 280.664062 189.542969 280.742188 189.140625 C 280.820312 188.742188 280.859375 188.339844 280.859375 187.929688 L 280.859375 165.582031 C 280.859375 165.175781 280.820312 164.773438 280.742188 164.371094 C 280.664062 163.972656 280.542969 163.585938 280.386719 163.207031 C 280.234375 162.832031 280.042969 162.472656 279.816406 162.136719 C 279.589844 161.796875 279.332031 161.484375 279.042969 161.195312 C 278.753906 160.90625 278.441406 160.648438 278.101562 160.421875 C 277.761719 160.195312 277.40625 160.003906 277.027344 159.847656 C 276.652344 159.691406 276.265625 159.574219 275.863281 159.496094 C 275.464844 159.417969 275.0625 159.375 274.652344 159.375 C 274.246094 159.375 273.84375 159.417969 273.441406 159.496094 C 273.042969 159.574219 272.65625 159.691406 272.277344 159.847656 C 271.902344 160.003906 271.542969 160.195312 271.203125 160.421875 C 270.867188 160.648438 270.550781 160.90625 270.265625 161.195312 C 269.976562 161.484375 269.71875 161.796875 269.492188 162.136719 C 269.265625 162.472656 269.074219 162.832031 268.917969 163.207031 C 268.761719 163.585938 268.644531 163.972656 268.566406 164.371094 C 268.484375 164.773438 268.445312 165.175781 268.445312 165.582031 L 268.445312 187.929688 C 268.445312 188.339844 268.484375 188.742188 268.566406 189.140625 C 268.644531 189.542969 268.761719 189.929688 268.917969 190.304688 C 269.074219 190.683594 269.265625 191.039062 269.492188 191.378906 C 269.71875 191.71875 269.976562 192.03125 270.265625 192.320312 C 270.550781 192.609375 270.867188 192.867188 271.203125 193.09375 C 271.542969 193.320312 271.902344 193.511719 272.277344 193.664062 C 272.65625 193.820312 273.042969 193.941406 273.441406 194.019531 C 273.84375 194.097656 274.246094 194.136719 274.652344 194.136719 Z M 274.652344 194.136719 "/><path style=" stroke:none;fill-rule:nonzero;fill:#ffffff;fill-opacity:1;" d="M 275.832031 68.941406 L 289.378906 75.148438 L 289.378906 113.820312 C 289.378906 114.226562 289.417969 114.632812 289.496094 115.03125 C 289.578125 115.429688 289.695312 115.820312 289.851562 116.195312 C 290.007812 116.570312 290.199219 116.929688 290.425781 117.269531 C 290.652344 117.605469 290.90625 117.921875 291.195312 118.210938 C 291.484375 118.496094 291.796875 118.753906 292.136719 118.980469 C 292.476562 119.207031 292.832031 119.398438 293.210938 119.554688 C 293.585938 119.710938 293.972656 119.828125 294.375 119.90625 C 294.773438 119.988281 295.175781 120.027344 295.585938 120.027344 C 295.992188 120.027344 296.398438 119.988281 296.796875 119.90625 C 297.195312 119.828125 297.585938 119.710938 297.960938 119.554688 C 298.335938 119.398438 298.695312 119.207031 299.035156 118.980469 C 299.371094 118.753906 299.6875 118.496094 299.976562 118.210938 C 300.261719 117.921875 300.519531 117.605469 300.746094 117.269531 C 300.972656 116.929688 301.164062 116.570312 301.320312 116.195312 C 301.476562 115.820312 301.59375 115.429688 301.671875 115.03125 C 301.753906 114.632812 301.792969 114.226562 301.792969 113.820312 L 301.792969 71.1875 C 301.792969 70.59375 301.707031 70.011719 301.542969 69.441406 C 301.375 68.875 301.132812 68.339844 300.8125 67.839844 C 300.492188 67.339844 300.105469 66.894531 299.660156 66.507812 C 299.210938 66.117188 298.71875 65.796875 298.179688 65.550781 L 281.015625 57.667969 C 280.644531 57.480469 280.257812 57.332031 279.855469 57.222656 C 279.453125 57.113281 279.042969 57.042969 278.628906 57.019531 C 278.210938 56.992188 277.796875 57.003906 277.382812 57.0625 C 276.972656 57.117188 276.570312 57.214844 276.175781 57.355469 C 275.78125 57.492188 275.40625 57.667969 275.046875 57.878906 C 274.691406 58.09375 274.355469 58.339844 274.050781 58.621094 C 273.742188 58.902344 273.464844 59.210938 273.21875 59.546875 C 272.972656 59.882812 272.761719 60.242188 272.585938 60.617188 C 272.414062 60.996094 272.277344 61.390625 272.183594 61.796875 C 272.089844 62.203125 272.035156 62.613281 272.023438 63.027344 C 272.011719 63.445312 272.039062 63.859375 272.109375 64.269531 C 272.179688 64.679688 272.292969 65.078125 272.445312 65.46875 C 272.59375 65.855469 272.785156 66.226562 273.011719 66.574219 C 273.234375 66.925781 273.496094 67.25 273.785156 67.546875 C 274.078125 67.847656 274.394531 68.113281 274.738281 68.347656 C 275.085938 68.582031 275.449219 68.777344 275.832031 68.941406 Z M 275.832031 68.941406 "/></g></svg>