<svg xmlns="http://www.w3.org/2000/svg" xmlns:xlink="http://www.w3.org/1999/xlink" width="500" zoomAndPan="magnify" viewBox="0 0 375 374.999991" height="500" preserveAspectRatio="xMidYMid meet" version="1.2"><defs><clipPath id="5d7e10f187"><path d="M 0 0 L 374.695312 0 L 374.695312 375 L 0 375 Z M 0 0 "/></clipPath><clipPath id="6b0fbf6817"><path d="M 187.347656 0 C 83.878906 0 0 83.945312 0 187.5 C 0 291.054688 83.878906 375 187.347656 375 C 290.816406 375 374.695312 291.054688 374.695312 187.5 C 374.695312 83.945312 290.816406 0 187.347656 0 Z M 187.347656 0 "/></clipPath><clipPath id="09cddc7b30"><path d="M 0.00390625 0 L 374.402344 0 L 374.402344 374.703125 L 0.00390625 374.703125 Z M 0.00390625 0 "/></clipPath><clipPath id="a3d9c17b42"><path d="M 187.203125 0 C 83.816406 0 0.00390625 83.878906 0.00390625 187.351562 C 0.00390625 290.824219 83.816406 374.703125 187.203125 374.703125 C 290.589844 374.703125 374.402344 290.824219 374.402344 187.351562 C 374.402344 83.878906 290.589844 0 187.203125 0 Z M 187.203125 0 "/></clipPath><clipPath id="390c6cb548"><path d="M 76 99 L 314.675781 99 L 314.675781 337 L 76 337 Z M 76 99 "/></clipPath></defs><g id="3cd5a7eb50"><g clip-rule="nonzero" clip-path="url(#5d7e10f187)"><g clip-rule="nonzero" clip-path="url(#6b0fbf6817)"><path style=" stroke:none;fill-rule:nonzero;fill:#a5ab7f;fill-opacity:1;" d="M 0 0 L 374.695312 0 L 374.695312 374.695312 L 0 374.695312 Z M 0 0 "/></g></g><g clip-rule="nonzero" clip-path="url(#09cddc7b30)"><g clip-rule="nonzero" clip-path="url(#a3d9c17b42)"><path style="fill:none;stroke-width:11.769327;stroke-linecap:butt;stroke-linejoin:miter;stroke:#fdf6e6;stroke-opacity:1;stroke-miterlimit:4;" d="M 244.989087 0.000000000000057434 C 109.686488 0.000000000000057434 0.000745348 109.772649 0.000745348 245.187714 C 0.000745348 380.602779 109.686488 490.375428 244.989087 490.375428 C 380.291685 490.375428 489.977428 380.602779 489.977428 245.187714 C 489.977428 109.772649 380.291685 0.000000000000057434 244.989087 0.000000000000057434 Z M 244.989087 0.000000000000057434 " transform="matrix(0.764115,0,0,0.764115,0.00333672,-0.000000000000043886)"/></g></g><path style=" stroke:none;fill-rule:nonzero;fill:#ffffff;fill-opacity:1;" d="M 185.507812 161.078125 C 185.507812 161.472656 185.472656 161.859375 185.394531 162.242188 C 185.316406 162.625 185.203125 163 185.054688 163.359375 C 184.90625 163.722656 184.722656 164.066406 184.503906 164.390625 C 184.285156 164.714844 184.039062 165.019531 183.761719 165.292969 C 183.484375 165.570312 183.183594 165.816406 182.859375 166.035156 C 182.535156 166.253906 182.191406 166.4375 181.828125 166.585938 C 181.46875 166.738281 181.09375 166.847656 180.710938 166.925781 C 180.328125 167.003906 179.9375 167.039062 179.546875 167.039062 C 179.15625 167.039062 178.769531 167.003906 178.386719 166.925781 C 178 166.847656 177.628906 166.738281 177.265625 166.585938 C 176.90625 166.4375 176.5625 166.253906 176.234375 166.035156 C 175.910156 165.816406 175.609375 165.570312 175.332031 165.292969 C 175.054688 165.019531 174.808594 164.714844 174.589844 164.390625 C 174.375 164.066406 174.191406 163.722656 174.039062 163.359375 C 173.890625 163 173.777344 162.625 173.703125 162.242188 C 173.625 161.859375 173.585938 161.472656 173.585938 161.078125 C 173.585938 160.6875 173.625 160.300781 173.703125 159.917969 C 173.777344 159.53125 173.890625 159.160156 174.039062 158.796875 C 174.191406 158.4375 174.375 158.09375 174.589844 157.765625 C 174.808594 157.441406 175.054688 157.140625 175.332031 156.863281 C 175.609375 156.585938 175.910156 156.339844 176.234375 156.121094 C 176.5625 155.90625 176.90625 155.722656 177.265625 155.570312 C 177.628906 155.421875 178 155.308594 178.386719 155.234375 C 178.769531 155.15625 179.15625 155.117188 179.546875 155.117188 C 179.9375 155.117188 180.328125 155.15625 180.710938 155.234375 C 181.09375 155.308594 181.46875 155.421875 181.828125 155.570312 C 182.191406 155.722656 182.535156 155.90625 182.859375 156.121094 C 183.183594 156.339844 183.484375 156.585938 183.761719 156.863281 C 184.039062 157.140625 184.285156 157.441406 184.503906 157.765625 C 184.722656 158.09375 184.90625 158.4375 185.054688 158.796875 C 185.203125 159.160156 185.316406 159.53125 185.394531 159.917969 C 185.472656 160.300781 185.507812 160.6875 185.507812 161.078125 Z M 185.507812 161.078125 "/><path style=" stroke:none;fill-rule:nonzero;fill:#ffffff;fill-opacity:1;" d="M 233.136719 161.972656 C 233.183594 161.730469 233.203125 161.484375 233.195312 161.238281 C 233.1875 160.988281 233.152344 160.746094 233.089844 160.503906 C 233.027344 160.265625 232.941406 160.035156 232.828125 159.8125 C 232.71875 159.589844 232.582031 159.386719 232.425781 159.195312 C 232.265625 159.003906 232.089844 158.832031 231.894531 158.679688 C 231.699219 158.527344 231.488281 158.398438 231.261719 158.292969 C 231.039062 158.1875 230.804688 158.105469 230.5625 158.050781 C 230.320312 158 230.078125 157.972656 229.828125 157.972656 L 224.230469 157.972656 C 224.765625 162.011719 226.480469 170.375 231.507812 170.441406 Z M 233.136719 161.972656 "/><path style=" stroke:none;fill-rule:nonzero;fill:#ffffff;fill-opacity:1;" d="M 213.515625 247.230469 L 211.371094 236.976562 L 204.640625 240.382812 L 207.753906 247.230469 Z M 213.515625 247.230469 "/><path style=" stroke:none;fill-rule:nonzero;fill:#ffffff;fill-opacity:1;" d="M 108.039062 329.976562 C 106.097656 329.871094 104.238281 329.421875 102.464844 328.628906 C 100.6875 327.835938 99.113281 326.75 97.742188 325.371094 C 94.617188 321.992188 93.261719 316.859375 93.707031 310.125 C 94.308594 302.488281 95.863281 295.054688 98.378906 287.816406 C 101.59375 292.324219 105.109375 296.589844 108.914062 300.613281 C 112.722656 304.632812 116.789062 308.375 121.113281 311.832031 C 125.441406 315.289062 129.984375 318.433594 134.746094 321.261719 C 139.503906 324.09375 144.4375 326.582031 149.542969 328.726562 C 149.488281 325.855469 149.507812 322.992188 149.628906 320.160156 C 148.554688 264.296875 184.042969 236.601562 192.863281 230.597656 C 192.789062 226.007812 192.285156 221.46875 191.351562 216.972656 C 190.050781 212.628906 188.320312 208.460938 186.15625 204.472656 L 180.339844 204.890625 C 179.816406 204.925781 179.304688 204.859375 178.804688 204.691406 C 178.304688 204.523438 177.855469 204.269531 177.460938 203.921875 C 177.0625 203.578125 176.746094 203.171875 176.511719 202.699219 C 176.277344 202.230469 176.140625 201.730469 176.101562 201.207031 C 176.066406 200.683594 176.128906 200.171875 176.296875 199.671875 C 176.460938 199.171875 176.714844 198.722656 177.058594 198.324219 C 177.402344 197.925781 177.8125 197.609375 178.28125 197.371094 C 178.75 197.136719 179.25 197 179.773438 196.960938 L 213.765625 194.539062 C 214.703125 194.488281 215.632812 194.359375 216.550781 194.15625 C 217.46875 193.953125 218.363281 193.671875 219.234375 193.320312 C 220.105469 192.964844 220.941406 192.542969 221.742188 192.050781 C 222.542969 191.558594 223.296875 191.003906 224.007812 190.382812 C 224.714844 189.765625 225.367188 189.09375 225.964844 188.367188 C 226.5625 187.640625 227.09375 186.871094 227.5625 186.054688 C 228.03125 185.238281 228.429688 184.390625 228.757812 183.511719 C 229.085938 182.628906 229.335938 181.726562 229.515625 180.804688 L 230 178.28125 C 220.460938 177.183594 216.902344 165.933594 216.1875 157.972656 L 205.195312 157.972656 C 204.46875 157.972656 203.792969 157.785156 203.167969 157.414062 C 202.542969 157.042969 202.054688 156.539062 201.707031 155.898438 L 192.925781 139.804688 L 137.625 145.949219 C 132.734375 146.492188 121.261719 148.800781 120.351562 158.460938 C 120.34375 158.550781 120.332031 158.636719 120.316406 158.726562 L 113.703125 199.398438 C 113.667969 199.851562 113.652344 200.308594 113.660156 200.761719 C 113.667969 201.21875 113.699219 201.671875 113.757812 202.125 C 113.8125 202.578125 113.890625 203.023438 113.992188 203.46875 C 114.09375 203.914062 114.21875 204.351562 114.367188 204.78125 C 114.515625 205.210938 114.683594 205.632812 114.875 206.046875 C 115.066406 206.460938 115.277344 206.863281 115.507812 207.253906 C 115.742188 207.648438 115.996094 208.023438 116.265625 208.390625 C 116.539062 208.757812 116.828125 209.105469 117.136719 209.441406 C 117.445312 209.777344 117.769531 210.097656 118.109375 210.398438 C 118.453125 210.699219 118.808594 210.984375 119.179688 211.246094 C 119.546875 211.511719 119.933594 211.757812 120.328125 211.984375 C 120.722656 212.207031 121.128906 212.414062 121.546875 212.597656 C 121.964844 212.777344 122.390625 212.941406 122.824219 213.078125 C 123.257812 213.21875 123.695312 213.335938 124.140625 213.429688 C 124.589844 213.523438 125.039062 213.59375 125.492188 213.640625 C 125.945312 213.6875 126.398438 213.710938 126.851562 213.710938 L 131.449219 213.710938 C 131.898438 213.710938 132.351562 213.6875 132.800781 213.640625 C 133.25 213.59375 133.695312 213.527344 134.136719 213.433594 C 134.582031 213.34375 135.015625 213.226562 135.449219 213.089844 C 135.878906 212.953125 136.300781 212.796875 136.714844 212.613281 C 137.128906 212.433594 137.535156 212.234375 137.925781 212.011719 C 138.320312 211.789062 138.703125 211.550781 139.070312 211.289062 C 139.441406 211.027344 139.792969 210.746094 140.132812 210.449219 C 140.472656 210.152344 140.796875 209.839844 141.105469 209.507812 C 141.414062 209.179688 141.703125 208.832031 141.976562 208.472656 C 142.25 208.109375 142.503906 207.738281 142.738281 207.351562 C 142.972656 206.964844 143.183594 206.566406 143.378906 206.160156 C 143.570312 205.75 143.742188 205.332031 143.894531 204.90625 C 144.042969 204.480469 144.171875 204.046875 144.277344 203.609375 C 144.382812 203.167969 144.464844 202.726562 144.527344 202.277344 C 144.585938 201.832031 144.625 201.378906 144.636719 200.929688 C 144.652344 200.476562 144.644531 200.027344 144.609375 199.574219 L 142.59375 182.96875 C 142.53125 182.445312 142.574219 181.933594 142.71875 181.429688 C 142.863281 180.925781 143.097656 180.464844 143.421875 180.054688 C 143.746094 179.644531 144.136719 179.308594 144.59375 179.050781 C 145.050781 178.792969 145.539062 178.632812 146.0625 178.570312 C 146.582031 178.507812 147.09375 178.546875 147.601562 178.6875 C 148.105469 178.828125 148.566406 179.058594 148.980469 179.378906 C 149.394531 179.703125 149.730469 180.089844 149.992188 180.546875 C 150.25 181 150.414062 181.488281 150.480469 182.007812 L 152.519531 198.8125 C 152.578125 199.539062 152.601562 200.265625 152.582031 200.992188 C 152.566406 201.722656 152.511719 202.445312 152.421875 203.167969 C 152.332031 203.890625 152.203125 204.605469 152.039062 205.316406 C 151.871094 206.023438 151.671875 206.722656 151.433594 207.410156 C 151.195312 208.101562 150.925781 208.773438 150.617188 209.433594 C 150.3125 210.09375 149.96875 210.738281 149.597656 211.363281 C 149.222656 211.988281 148.820312 212.589844 148.382812 213.175781 C 147.945312 213.757812 147.484375 214.316406 146.988281 214.851562 C 146.496094 215.386719 145.976562 215.894531 145.429688 216.375 C 144.882812 216.859375 144.3125 217.308594 143.722656 217.734375 C 143.128906 218.15625 142.515625 218.546875 141.882812 218.90625 C 141.25 219.265625 140.597656 219.589844 139.929688 219.882812 C 139.265625 220.175781 138.585938 220.433594 137.890625 220.652344 C 137.199219 220.875 136.496094 221.0625 135.78125 221.210938 C 135.070312 221.359375 134.351562 221.472656 133.625 221.546875 C 132.902344 221.621094 132.175781 221.65625 131.449219 221.65625 L 126.851562 221.65625 C 126.191406 221.65625 125.535156 221.617188 124.882812 221.554688 C 124.699219 222.132812 115.9375 242.097656 109.449219 250.441406 C 96.132812 267.5625 87.0625 290.230469 85.777344 309.601562 C 85.175781 318.660156 87.269531 325.816406 91.996094 330.867188 C 93.046875 331.933594 94.191406 332.894531 95.421875 333.746094 C 96.65625 334.597656 97.957031 335.328125 99.328125 335.929688 C 100.703125 336.535156 102.117188 337.003906 103.578125 337.339844 C 105.039062 337.675781 106.519531 337.871094 108.015625 337.921875 C 108.539062 337.921875 109.046875 337.820312 109.53125 337.617188 C 110.015625 337.417969 110.441406 337.132812 110.8125 336.761719 C 111.183594 336.390625 111.46875 335.960938 111.671875 335.476562 C 111.875 334.992188 111.976562 334.488281 111.976562 333.960938 C 111.980469 333.4375 111.878906 332.933594 111.683594 332.445312 C 111.484375 331.960938 111.199219 331.53125 110.832031 331.15625 C 110.460938 330.785156 110.035156 330.496094 109.554688 330.289062 C 109.070312 330.085938 108.566406 329.980469 108.039062 329.976562 Z M 179.546875 149.15625 C 180.332031 149.15625 181.105469 149.234375 181.875 149.386719 C 182.640625 149.539062 183.386719 149.765625 184.109375 150.066406 C 184.832031 150.363281 185.519531 150.730469 186.171875 151.167969 C 186.824219 151.601562 187.425781 152.09375 187.976562 152.648438 C 188.53125 153.203125 189.027344 153.804688 189.460938 154.457031 C 189.894531 155.105469 190.261719 155.792969 190.5625 156.515625 C 190.863281 157.238281 191.089844 157.984375 191.242188 158.753906 C 191.394531 159.519531 191.46875 160.296875 191.46875 161.078125 C 191.46875 161.863281 191.394531 162.636719 191.242188 163.40625 C 191.089844 164.171875 190.863281 164.917969 190.5625 165.640625 C 190.261719 166.363281 189.894531 167.050781 189.460938 167.703125 C 189.027344 168.355469 188.53125 168.957031 187.976562 169.507812 C 187.425781 170.0625 186.824219 170.558594 186.171875 170.992188 C 185.519531 171.425781 184.832031 171.792969 184.109375 172.09375 C 183.386719 172.394531 182.640625 172.621094 181.875 172.773438 C 181.105469 172.925781 180.332031 173 179.546875 173 C 178.765625 173 177.988281 172.925781 177.222656 172.773438 C 176.453125 172.621094 175.707031 172.394531 174.984375 172.09375 C 174.261719 171.792969 173.574219 171.425781 172.925781 170.992188 C 172.273438 170.558594 171.671875 170.0625 171.117188 169.507812 C 170.5625 168.957031 170.070312 168.355469 169.636719 167.703125 C 169.199219 167.050781 168.832031 166.363281 168.535156 165.640625 C 168.234375 164.917969 168.007812 164.171875 167.855469 163.40625 C 167.703125 162.636719 167.625 161.863281 167.625 161.078125 C 167.625 160.296875 167.703125 159.523438 167.855469 158.753906 C 168.011719 157.988281 168.238281 157.242188 168.535156 156.519531 C 168.835938 155.796875 169.203125 155.109375 169.640625 154.457031 C 170.074219 153.808594 170.566406 153.207031 171.121094 152.652344 C 171.675781 152.097656 172.277344 151.605469 172.925781 151.171875 C 173.578125 150.734375 174.265625 150.367188 174.988281 150.066406 C 175.710938 149.769531 176.457031 149.542969 177.222656 149.386719 C 177.992188 149.234375 178.765625 149.15625 179.546875 149.15625 Z M 179.546875 149.15625 "/><g clip-rule="nonzero" clip-path="url(#390c6cb548)"><path style=" stroke:none;fill-rule:nonzero;fill:#ffffff;fill-opacity:1;" d="M 274.925781 270.363281 L 274.925781 232.613281 C 274.925781 232.351562 274.949219 232.09375 275 231.835938 C 275.050781 231.582031 275.128906 231.332031 275.226562 231.089844 C 275.328125 230.851562 275.449219 230.621094 275.59375 230.402344 C 275.738281 230.1875 275.902344 229.988281 276.089844 229.800781 C 276.273438 229.617188 276.472656 229.453125 276.691406 229.308594 C 276.90625 229.164062 277.136719 229.039062 277.378906 228.941406 C 277.617188 228.839844 277.867188 228.765625 278.125 228.714844 C 278.378906 228.664062 278.636719 228.636719 278.898438 228.636719 L 314.21875 228.636719 C 314.492188 225.359375 314.664062 222.050781 314.664062 218.703125 C 314.664062 215.355469 314.492188 212.046875 314.21875 208.769531 L 278.898438 208.769531 C 278.636719 208.769531 278.378906 208.742188 278.125 208.691406 C 277.867188 208.640625 277.617188 208.566406 277.378906 208.464844 C 277.136719 208.367188 276.90625 208.242188 276.691406 208.097656 C 276.472656 207.953125 276.273438 207.789062 276.089844 207.605469 C 275.902344 207.417969 275.738281 207.21875 275.59375 207 C 275.449219 206.785156 275.328125 206.554688 275.226562 206.3125 C 275.128906 206.074219 275.050781 205.824219 275 205.570312 C 274.949219 205.3125 274.925781 205.054688 274.925781 204.792969 L 274.925781 167.039062 L 255.054688 167.039062 L 255.054688 204.792969 C 255.054688 205.054688 255.027344 205.3125 254.976562 205.570312 C 254.925781 205.824219 254.851562 206.074219 254.753906 206.3125 C 254.652344 206.554688 254.53125 206.785156 254.386719 207 C 254.238281 207.21875 254.074219 207.417969 253.890625 207.605469 C 253.707031 207.789062 253.503906 207.953125 253.289062 208.097656 C 253.070312 208.242188 252.84375 208.367188 252.601562 208.464844 C 252.359375 208.566406 252.113281 208.640625 251.855469 208.691406 C 251.601562 208.742188 251.339844 208.769531 251.082031 208.769531 L 237.171875 208.769531 C 236.910156 208.769531 236.652344 208.742188 236.394531 208.691406 C 236.140625 208.640625 235.890625 208.566406 235.652344 208.464844 C 235.410156 208.367188 235.179688 208.242188 234.964844 208.097656 C 234.746094 207.953125 234.546875 207.789062 234.363281 207.605469 C 234.175781 207.417969 234.011719 207.21875 233.867188 207 C 233.722656 206.785156 233.601562 206.554688 233.5 206.316406 C 233.398438 206.074219 233.324219 205.824219 233.273438 205.570312 C 233.222656 205.3125 233.199219 205.054688 233.199219 204.792969 C 233.199219 204.53125 233.222656 204.273438 233.273438 204.019531 C 233.324219 203.761719 233.398438 203.515625 233.5 203.273438 C 233.601562 203.03125 233.722656 202.804688 233.867188 202.585938 C 234.011719 202.367188 234.175781 202.167969 234.363281 201.984375 C 234.546875 201.800781 234.746094 201.632812 234.964844 201.488281 C 235.179688 201.34375 235.410156 201.222656 235.652344 201.121094 C 235.890625 201.023438 236.140625 200.945312 236.394531 200.894531 C 236.652344 200.84375 236.910156 200.820312 237.171875 200.820312 L 247.105469 200.820312 L 247.105469 163.066406 C 247.105469 162.804688 247.132812 162.546875 247.183594 162.292969 C 247.234375 162.035156 247.308594 161.785156 247.410156 161.546875 C 247.507812 161.304688 247.632812 161.074219 247.777344 160.859375 C 247.921875 160.640625 248.085938 160.441406 248.269531 160.257812 C 248.453125 160.070312 248.65625 159.90625 248.871094 159.761719 C 249.089844 159.617188 249.320312 159.496094 249.558594 159.394531 C 249.800781 159.296875 250.050781 159.21875 250.304688 159.167969 C 250.5625 159.117188 250.820312 159.09375 251.082031 159.09375 L 278.898438 159.09375 C 279.160156 159.09375 279.417969 159.117188 279.675781 159.167969 C 279.929688 159.21875 280.179688 159.296875 280.417969 159.394531 C 280.660156 159.496094 280.890625 159.617188 281.105469 159.761719 C 281.324219 159.90625 281.523438 160.070312 281.707031 160.257812 C 281.894531 160.441406 282.058594 160.640625 282.203125 160.859375 C 282.347656 161.074219 282.46875 161.304688 282.570312 161.546875 C 282.671875 161.785156 282.746094 162.035156 282.796875 162.292969 C 282.847656 162.546875 282.871094 162.804688 282.871094 163.066406 L 282.871094 200.820312 L 313.320312 200.820312 C 313 198.699219 312.625 196.589844 312.191406 194.492188 C 311.753906 192.394531 311.265625 190.308594 310.71875 188.234375 C 310.171875 186.164062 309.570312 184.109375 308.914062 182.066406 C 308.257812 180.027344 307.546875 178.007812 306.777344 176.007812 C 306.011719 174.003906 305.191406 172.023438 304.320312 170.066406 C 303.449219 168.109375 302.523438 166.179688 301.546875 164.269531 C 300.566406 162.363281 299.539062 160.484375 298.460938 158.632812 C 297.382812 156.78125 296.253906 154.957031 295.078125 153.167969 C 293.902344 151.375 292.679688 149.617188 291.40625 147.890625 C 290.136719 146.167969 288.816406 144.476562 287.457031 142.824219 C 286.09375 141.167969 284.6875 139.554688 283.238281 137.976562 C 281.785156 136.398438 280.296875 134.859375 278.761719 133.359375 C 277.230469 131.863281 275.65625 130.40625 274.046875 128.996094 C 272.433594 127.582031 270.785156 126.210938 269.101562 124.886719 C 267.417969 123.5625 265.699219 122.285156 263.941406 121.054688 C 262.1875 119.824219 260.402344 118.640625 258.585938 117.503906 C 256.769531 116.371094 254.921875 115.285156 253.042969 114.25 C 251.167969 113.214844 249.265625 112.230469 247.335938 111.296875 C 245.40625 110.363281 243.453125 109.484375 241.476562 108.65625 C 239.5 107.828125 237.5 107.054688 235.484375 106.335938 C 233.464844 105.613281 231.429688 104.949219 229.375 104.339844 C 227.320312 103.730469 225.25 103.175781 223.164062 102.675781 C 221.082031 102.179688 218.984375 101.738281 216.875 101.351562 C 214.769531 100.964844 212.652344 100.636719 210.523438 100.367188 C 208.398438 100.097656 206.265625 99.882812 204.128906 99.726562 C 201.992188 99.570312 199.851562 99.472656 197.710938 99.429688 C 195.566406 99.390625 193.425781 99.40625 191.28125 99.480469 C 189.140625 99.554688 187.003906 99.6875 184.867188 99.878906 C 182.734375 100.070312 180.605469 100.316406 178.484375 100.621094 C 176.363281 100.925781 174.25 101.289062 172.148438 101.707031 C 170.046875 102.125 167.957031 102.601562 165.882812 103.132812 C 163.804688 103.664062 161.746094 104.25 159.703125 104.890625 C 157.65625 105.535156 155.632812 106.230469 153.625 106.984375 C 151.617188 107.734375 149.632812 108.539062 147.667969 109.398438 C 145.703125 110.257812 143.765625 111.167969 141.851562 112.132812 C 139.9375 113.09375 138.050781 114.109375 136.191406 115.175781 C 134.332031 116.238281 132.5 117.355469 130.703125 118.519531 C 128.902344 119.683594 127.132812 120.894531 125.398438 122.152344 C 123.667969 123.410156 121.96875 124.714844 120.304688 126.066406 C 118.640625 127.417969 117.011719 128.8125 115.425781 130.25 C 113.835938 131.6875 112.285156 133.167969 110.777344 134.691406 C 109.269531 136.214844 107.800781 137.773438 106.378906 139.375 C 104.953125 140.976562 103.574219 142.613281 102.234375 144.289062 C 100.898438 145.964844 99.609375 147.675781 98.367188 149.421875 C 97.121094 151.167969 95.925781 152.945312 94.777344 154.753906 C 93.628906 156.5625 92.53125 158.402344 91.480469 160.269531 C 90.433594 162.140625 89.433594 164.035156 88.488281 165.957031 C 87.539062 167.882812 86.648438 169.828125 85.804688 171.796875 C 84.964844 173.769531 84.175781 175.761719 83.441406 177.773438 C 82.707031 179.789062 82.027344 181.820312 81.402344 183.871094 C 80.777344 185.921875 80.207031 187.984375 79.695312 190.066406 C 79.179688 192.148438 78.722656 194.238281 78.324219 196.34375 C 77.921875 198.449219 77.578125 200.566406 77.292969 202.6875 C 77.007812 204.8125 76.777344 206.941406 76.605469 209.078125 C 76.433594 211.214844 76.320312 213.355469 76.265625 215.496094 C 76.207031 217.640625 76.210938 219.78125 76.269531 221.925781 C 76.328125 224.066406 76.445312 226.207031 76.621094 228.34375 C 76.792969 230.476562 77.027344 232.609375 77.316406 234.730469 C 77.605469 236.855469 77.953125 238.96875 78.355469 241.074219 C 78.757812 243.179688 79.21875 245.269531 79.734375 247.351562 C 80.25 249.429688 80.824219 251.496094 81.453125 253.542969 C 82.078125 255.59375 82.761719 257.625 83.5 259.636719 C 84.234375 261.648438 85.027344 263.640625 85.871094 265.609375 C 86.714844 267.578125 87.613281 269.523438 88.5625 271.445312 C 92.136719 263.988281 96.449219 256.988281 101.5 250.441406 C 110.101562 239.382812 115.3125 225.210938 117.246094 219.3125 C 116.304688 218.839844 115.40625 218.296875 114.546875 217.6875 C 113.691406 217.082031 112.882812 216.410156 112.125 215.679688 C 111.367188 214.949219 110.667969 214.164062 110.027344 213.328125 C 109.390625 212.492188 108.816406 211.613281 108.308594 210.691406 C 107.800781 209.769531 107.363281 208.816406 107 207.828125 C 106.636719 206.839844 106.347656 205.832031 106.136719 204.800781 C 105.921875 203.769531 105.789062 202.730469 105.734375 201.679688 C 105.679688 200.625 105.703125 199.578125 105.804688 198.53125 C 105.8125 198.441406 105.824219 198.351562 105.839844 198.265625 L 112.453125 157.574219 C 113.527344 146.914062 122.601562 139.621094 136.75 138.050781 L 194.699219 131.613281 C 195.09375 131.566406 195.484375 131.582031 195.871094 131.65625 C 196.257812 131.726562 196.625 131.855469 196.976562 132.035156 C 197.324219 132.21875 197.640625 132.449219 197.921875 132.722656 C 198.203125 133 198.441406 133.3125 198.628906 133.65625 L 207.554688 150.023438 L 229.828125 150.023438 C 230.246094 150.023438 230.660156 150.046875 231.070312 150.089844 C 231.484375 150.136719 231.894531 150.203125 232.300781 150.296875 C 232.703125 150.386719 233.105469 150.5 233.496094 150.632812 C 233.890625 150.769531 234.273438 150.925781 234.648438 151.101562 C 235.027344 151.277344 235.390625 151.476562 235.746094 151.691406 C 236.097656 151.910156 236.441406 152.144531 236.769531 152.402344 C 237.097656 152.65625 237.410156 152.929688 237.707031 153.21875 C 238.007812 153.507812 238.289062 153.8125 238.550781 154.132812 C 238.816406 154.453125 239.0625 154.785156 239.289062 155.132812 C 239.519531 155.480469 239.726562 155.839844 239.914062 156.210938 C 240.101562 156.582031 240.269531 156.960938 240.417969 157.347656 C 240.5625 157.738281 240.6875 158.132812 240.789062 158.535156 C 240.894531 158.9375 240.972656 159.34375 241.03125 159.757812 C 241.089844 160.167969 241.125 160.582031 241.136719 160.996094 C 241.152344 161.410156 241.140625 161.828125 241.105469 162.242188 C 241.074219 162.65625 241.019531 163.066406 240.941406 163.472656 L 237.320312 182.304688 C 237.058594 183.660156 236.691406 184.980469 236.210938 186.273438 C 235.734375 187.5625 235.152344 188.808594 234.464844 190 C 233.78125 191.195312 233.003906 192.328125 232.128906 193.390625 C 231.257812 194.457031 230.300781 195.445312 229.265625 196.351562 C 228.230469 197.257812 227.125 198.074219 225.953125 198.796875 C 224.78125 199.519531 223.558594 200.144531 222.28125 200.664062 C 221.007812 201.183594 219.699219 201.597656 218.355469 201.898438 C 217.011719 202.203125 215.652344 202.394531 214.277344 202.472656 L 194.738281 203.863281 C 196.535156 207.453125 197.976562 211.179688 199.0625 215.046875 C 200.222656 220.652344 200.820312 226.316406 200.851562 232.042969 L 201.351562 233.140625 L 212.402344 227.546875 C 212.675781 227.410156 212.960938 227.304688 213.257812 227.230469 C 213.550781 227.160156 213.851562 227.121094 214.15625 227.117188 C 214.460938 227.117188 214.765625 227.148438 215.0625 227.214844 C 215.359375 227.28125 215.644531 227.378906 215.921875 227.511719 C 216.195312 227.644531 216.453125 227.804688 216.6875 227.996094 C 216.925781 228.1875 217.140625 228.402344 217.328125 228.640625 C 217.515625 228.882812 217.675781 229.140625 217.800781 229.417969 C 217.929688 229.695312 218.027344 229.980469 218.089844 230.28125 L 221.960938 248.773438 C 224.96875 250.09375 227.417969 252.09375 229.308594 254.78125 L 236.945312 265.683594 C 237.289062 266.175781 237.507812 266.714844 237.609375 267.308594 C 237.707031 267.898438 237.675781 268.480469 237.507812 269.058594 L 235.828125 274.941406 C 235.171875 277.242188 234.183594 279.386719 232.859375 281.378906 C 231.535156 283.367188 229.9375 285.109375 228.070312 286.597656 L 224.441406 289.503906 C 223.945312 289.898438 223.386719 290.164062 222.761719 290.292969 C 222.140625 290.421875 221.523438 290.402344 220.910156 290.234375 C 219.421875 289.84375 214.980469 289.289062 212.597656 291.4375 C 210.050781 293.734375 210.214844 298.75 210.800781 302.558594 C 211.355469 306.890625 211.519531 311.238281 211.285156 315.601562 C 211.6875 322.632812 212.796875 329.546875 214.617188 336.351562 C 217.703125 335.84375 220.761719 335.214844 223.800781 334.46875 C 226.835938 333.71875 229.835938 332.855469 232.804688 331.871094 C 235.773438 330.886719 238.695312 329.789062 241.578125 328.574219 C 244.460938 327.363281 247.289062 326.039062 250.066406 324.601562 C 252.84375 323.167969 255.5625 321.625 258.21875 319.976562 C 260.875 318.328125 263.464844 316.578125 265.984375 314.726562 C 268.5 312.875 270.945312 310.929688 273.3125 308.886719 C 275.675781 306.839844 277.960938 304.707031 280.160156 302.484375 C 282.359375 300.261719 284.464844 297.957031 286.484375 295.570312 C 288.503906 293.183594 290.421875 290.71875 292.246094 288.179688 C 294.074219 285.640625 295.792969 283.035156 297.414062 280.359375 C 299.035156 277.6875 300.546875 274.953125 301.953125 272.160156 C 303.359375 269.367188 304.652344 266.523438 305.835938 263.628906 C 307.015625 260.734375 308.082031 257.796875 309.035156 254.820312 C 309.988281 251.839844 310.820312 248.832031 311.535156 245.785156 C 312.25 242.742188 312.847656 239.675781 313.320312 236.585938 L 282.871094 236.585938 L 282.871094 274.339844 C 282.871094 274.601562 282.847656 274.859375 282.796875 275.113281 C 282.746094 275.371094 282.671875 275.617188 282.570312 275.859375 C 282.46875 276.101562 282.347656 276.328125 282.203125 276.546875 C 282.058594 276.765625 281.894531 276.964844 281.707031 277.148438 C 281.523438 277.332031 281.324219 277.5 281.105469 277.644531 C 280.890625 277.789062 280.660156 277.910156 280.417969 278.011719 C 280.179688 278.109375 279.929688 278.1875 279.675781 278.238281 C 279.417969 278.289062 279.160156 278.3125 278.898438 278.3125 L 251.082031 278.3125 C 250.820312 278.3125 250.5625 278.289062 250.304688 278.238281 C 250.050781 278.1875 249.800781 278.109375 249.558594 278.011719 C 249.320312 277.910156 249.089844 277.789062 248.871094 277.644531 C 248.65625 277.5 248.453125 277.332031 248.269531 277.148438 C 248.085938 276.964844 247.921875 276.765625 247.777344 276.546875 C 247.632812 276.328125 247.507812 276.101562 247.410156 275.859375 C 247.308594 275.617188 247.234375 275.371094 247.183594 275.113281 C 247.132812 274.859375 247.105469 274.601562 247.105469 274.339844 L 247.105469 236.585938 L 229.222656 236.585938 C 228.960938 236.585938 228.703125 236.558594 228.449219 236.507812 C 228.191406 236.457031 227.945312 236.382812 227.703125 236.285156 C 227.460938 236.183594 227.234375 236.0625 227.015625 235.917969 C 226.796875 235.769531 226.597656 235.605469 226.414062 235.421875 C 226.230469 235.238281 226.0625 235.035156 225.917969 234.820312 C 225.773438 234.601562 225.652344 234.375 225.550781 234.132812 C 225.453125 233.890625 225.375 233.644531 225.324219 233.386719 C 225.273438 233.132812 225.25 232.871094 225.25 232.613281 C 225.25 232.351562 225.273438 232.09375 225.324219 231.835938 C 225.375 231.582031 225.453125 231.332031 225.550781 231.089844 C 225.652344 230.851562 225.773438 230.621094 225.917969 230.402344 C 226.0625 230.1875 226.230469 229.988281 226.414062 229.800781 C 226.597656 229.617188 226.796875 229.453125 227.015625 229.308594 C 227.234375 229.164062 227.460938 229.039062 227.703125 228.941406 C 227.945312 228.839844 228.191406 228.765625 228.449219 228.714844 C 228.703125 228.664062 228.960938 228.636719 229.222656 228.636719 L 251.082031 228.636719 C 251.339844 228.636719 251.601562 228.664062 251.855469 228.714844 C 252.113281 228.765625 252.359375 228.839844 252.601562 228.941406 C 252.84375 229.039062 253.070312 229.164062 253.289062 229.308594 C 253.503906 229.453125 253.707031 229.617188 253.890625 229.800781 C 254.074219 229.988281 254.238281 230.1875 254.386719 230.402344 C 254.53125 230.621094 254.652344 230.851562 254.753906 231.089844 C 254.851562 231.332031 254.925781 231.582031 254.976562 231.835938 C 255.027344 232.09375 255.054688 232.351562 255.054688 232.613281 L 255.054688 270.363281 Z M 274.925781 270.363281 "/></g><path style=" stroke:none;fill-rule:nonzero;fill:#ffffff;fill-opacity:1;" d="M 203.335938 315.390625 C 203.554688 311.503906 203.425781 307.628906 202.945312 303.765625 C 201.65625 295.382812 203.128906 289.234375 207.324219 285.492188 C 208.269531 284.742188 209.285156 284.101562 210.371094 283.566406 C 211.453125 283.035156 212.582031 282.625 213.753906 282.339844 C 214.925781 282.050781 216.113281 281.890625 217.320312 281.855469 C 218.527344 281.824219 219.726562 281.921875 220.910156 282.148438 L 223.101562 280.390625 C 224.328125 279.414062 225.375 278.277344 226.242188 276.972656 C 227.109375 275.667969 227.757812 274.265625 228.183594 272.757812 L 229.347656 268.691406 L 222.796875 259.335938 C 222.347656 258.695312 221.828125 258.117188 221.238281 257.601562 C 220.648438 257.082031 220.007812 256.644531 219.3125 256.28125 C 218.617188 255.917969 217.886719 255.644531 217.128906 255.460938 C 216.367188 255.273438 215.59375 255.179688 214.808594 255.179688 L 205.195312 255.179688 C 204.8125 255.179688 204.441406 255.125 204.074219 255.019531 C 203.707031 254.910156 203.363281 254.753906 203.042969 254.546875 C 202.722656 254.339844 202.4375 254.09375 202.1875 253.804688 C 201.9375 253.515625 201.734375 253.195312 201.578125 252.847656 L 195.984375 240.539062 C 195.949219 240.480469 195.90625 240.429688 195.871094 240.367188 C 195.804688 240.21875 195.746094 240.0625 195.695312 239.90625 L 195.15625 238.71875 C 185.210938 246.125 158.882812 269.875 157.585938 314.304688 C 157.785156 314.832031 157.507812 329.601562 157.601562 331.75 C 169.878906 335.875 182.492188 337.929688 195.445312 337.921875 C 199.167969 337.921875 202.847656 337.753906 206.484375 337.417969 C 205.015625 333.542969 203.25 318.699219 203.335938 315.390625 Z M 201.070312 267.222656 C 200.820312 267.222656 200.578125 267.269531 200.347656 267.367188 C 200.117188 267.460938 199.910156 267.597656 199.734375 267.777344 C 199.554688 267.953125 199.417969 268.15625 199.324219 268.390625 C 199.226562 268.621094 199.179688 268.863281 199.179688 269.113281 C 199.179688 269.375 199.152344 269.632812 199.101562 269.890625 C 199.050781 270.144531 198.976562 270.394531 198.875 270.632812 C 198.777344 270.875 198.65625 271.105469 198.507812 271.320312 C 198.363281 271.539062 198.199219 271.738281 198.015625 271.921875 C 197.832031 272.109375 197.628906 272.273438 197.414062 272.417969 C 197.195312 272.5625 196.96875 272.683594 196.726562 272.785156 C 196.484375 272.886719 196.238281 272.960938 195.980469 273.011719 C 195.726562 273.0625 195.464844 273.085938 195.207031 273.085938 C 194.945312 273.085938 194.6875 273.0625 194.429688 273.011719 C 194.175781 272.960938 193.925781 272.886719 193.683594 272.785156 C 193.445312 272.683594 193.214844 272.5625 192.996094 272.417969 C 192.78125 272.273438 192.578125 272.109375 192.394531 271.921875 C 192.210938 271.738281 192.046875 271.539062 191.902344 271.320312 C 191.757812 271.105469 191.632812 270.875 191.535156 270.632812 C 191.433594 270.394531 191.359375 270.144531 191.308594 269.890625 C 191.257812 269.632812 191.230469 269.375 191.230469 269.113281 C 191.230469 268.46875 191.296875 267.828125 191.421875 267.195312 C 191.546875 266.5625 191.734375 265.949219 191.984375 265.351562 C 192.230469 264.753906 192.535156 264.1875 192.894531 263.652344 C 193.253906 263.113281 193.660156 262.617188 194.117188 262.160156 C 194.574219 261.707031 195.070312 261.296875 195.609375 260.941406 C 196.144531 260.582031 196.710938 260.277344 197.308594 260.03125 C 197.90625 259.785156 198.519531 259.597656 199.152344 259.472656 C 199.785156 259.347656 200.425781 259.285156 201.070312 259.285156 C 201.71875 259.285156 202.355469 259.347656 202.988281 259.472656 C 203.625 259.597656 204.238281 259.785156 204.835938 260.03125 C 205.429688 260.277344 206 260.582031 206.535156 260.941406 C 207.070312 261.296875 207.570312 261.707031 208.027344 262.160156 C 208.484375 262.617188 208.890625 263.113281 209.25 263.652344 C 209.609375 264.1875 209.910156 264.753906 210.160156 265.351562 C 210.40625 265.949219 210.59375 266.5625 210.71875 267.195312 C 210.847656 267.828125 210.910156 268.46875 210.910156 269.113281 C 210.910156 269.375 210.886719 269.632812 210.835938 269.890625 C 210.785156 270.144531 210.707031 270.394531 210.609375 270.632812 C 210.507812 270.875 210.386719 271.105469 210.242188 271.320312 C 210.097656 271.539062 209.933594 271.738281 209.746094 271.921875 C 209.5625 272.109375 209.363281 272.273438 209.144531 272.417969 C 208.929688 272.5625 208.699219 272.683594 208.457031 272.785156 C 208.21875 272.886719 207.96875 272.960938 207.710938 273.011719 C 207.457031 273.0625 207.199219 273.085938 206.9375 273.085938 C 206.675781 273.085938 206.417969 273.0625 206.160156 273.011719 C 205.90625 272.960938 205.65625 272.886719 205.417969 272.785156 C 205.175781 272.683594 204.945312 272.5625 204.730469 272.417969 C 204.511719 272.273438 204.3125 272.109375 204.128906 271.921875 C 203.941406 271.738281 203.777344 271.539062 203.632812 271.320312 C 203.488281 271.105469 203.367188 270.875 203.265625 270.632812 C 203.164062 270.394531 203.089844 270.144531 203.039062 269.890625 C 202.988281 269.632812 202.964844 269.375 202.964844 269.113281 C 202.964844 268.863281 202.914062 268.621094 202.820312 268.390625 C 202.722656 268.15625 202.585938 267.953125 202.410156 267.777344 C 202.230469 267.597656 202.027344 267.460938 201.796875 267.367188 C 201.5625 267.269531 201.320312 267.222656 201.070312 267.222656 Z M 201.070312 267.222656 "/><g style="fill:#ffffff;fill-opacity:1;"><g transform="translate(115.529473, 124.40743)"><path style="stroke:none" d="M 33.21875 -33.890625 C 33.8125 -32.894531 34.347656 -31.878906 34.824219 -30.851562 C 35.3125 -29.792969 35.683594 -28.796875 35.933594 -27.859375 C 36.214844 -26.8125 36.273438 -25.84375 36.117188 -24.949219 C 35.933594 -23.921875 35.441406 -23.101562 34.644531 -22.496094 C 33.707031 -21.78125 32.476562 -21.777344 30.953125 -22.480469 C 29.800781 -23.011719 28.46875 -23.84375 26.960938 -24.976562 C 25.492188 -26.078125 23.921875 -27.382812 22.25 -28.898438 C 20.597656 -30.394531 18.957031 -31.945312 17.332031 -33.546875 C 15.707031 -35.148438 14.15625 -36.742188 12.679688 -38.324219 C 11.210938 -39.898438 9.945312 -41.28125 8.878906 -42.464844 L 9.796875 -43.285156 L 10.878906 -43.871094 C 11.660156 -42.417969 12.523438 -40.789062 13.46875 -38.980469 C 14.425781 -37.15625 15.347656 -35.269531 16.238281 -33.316406 C 17.125 -31.367188 17.957031 -29.421875 18.726562 -27.488281 C 19.503906 -25.527344 20.117188 -23.707031 20.5625 -22.035156 C 21.027344 -20.296875 21.253906 -18.78125 21.246094 -17.484375 C 21.234375 -15.894531 20.746094 -14.730469 19.777344 -13.996094 C 18.871094 -13.304688 17.632812 -13.1875 16.0625 -13.644531 C 14.800781 -14.015625 13.367188 -14.652344 11.769531 -15.5625 C 10.21875 -16.441406 8.589844 -17.496094 6.890625 -18.722656 C 5.210938 -19.933594 3.558594 -21.179688 1.933594 -22.460938 C 0.308594 -23.742188 -1.199219 -24.976562 -2.589844 -26.164062 C -3.980469 -27.347656 -5.128906 -28.359375 -6.035156 -29.191406 L -5.203125 -30.097656 L -4.222656 -30.84375 C -3.675781 -30.121094 -3.078125 -29.320312 -2.429688 -28.433594 C -1.792969 -27.558594 -1.332031 -26.941406 -1.054688 -26.574219 C -0.917969 -26.398438 -0.496094 -25.824219 0.214844 -24.855469 C 0.9375 -23.871094 1.757812 -22.667969 2.679688 -21.242188 C 3.597656 -19.820312 4.535156 -18.265625 5.496094 -16.578125 C 6.476562 -14.855469 7.273438 -13.167969 7.886719 -11.515625 C 8.523438 -9.816406 8.890625 -8.246094 8.992188 -6.808594 C 9.117188 -5.082031 8.628906 -3.730469 7.535156 -2.746094 L 7.296875 -2.535156 L 6.992188 -2.464844 C 5.835938 -2.195312 4.636719 -2.296875 3.390625 -2.765625 C 2.273438 -3.183594 1.144531 -3.800781 0 -4.617188 C -1.105469 -5.402344 -2.191406 -6.316406 -3.261719 -7.351562 C -4.300781 -8.359375 -5.285156 -9.367188 -6.21875 -10.375 C -7.15625 -11.390625 -7.992188 -12.363281 -8.726562 -13.292969 C -9.449219 -14.203125 -10.03125 -14.949219 -10.476562 -15.535156 C -11.269531 -16.578125 -12.207031 -17.933594 -13.28125 -19.597656 C -14.355469 -21.261719 -15.414062 -23.0625 -16.453125 -24.996094 C -17.492188 -26.9375 -18.445312 -28.941406 -19.3125 -31.015625 C -20.195312 -33.121094 -20.839844 -35.121094 -21.246094 -37.015625 C -21.671875 -38.972656 -21.78125 -40.761719 -21.578125 -42.382812 C -21.347656 -44.207031 -20.554688 -45.636719 -19.191406 -46.675781 C -18.414062 -47.269531 -17.34375 -47.472656 -15.992188 -47.289062 C -14.878906 -47.140625 -13.632812 -46.800781 -12.257812 -46.269531 C -10.921875 -45.761719 -9.523438 -45.121094 -8.058594 -44.359375 C -6.621094 -43.609375 -5.203125 -42.832031 -3.800781 -42.027344 C -2.394531 -41.21875 -1.085938 -40.414062 0.125 -39.613281 C 1.320312 -38.820312 2.328125 -38.136719 3.144531 -37.566406 L 2.4375 -36.558594 L 1.273438 -36.160156 C 0.921875 -37.199219 0.53125 -38.421875 0.105469 -39.835938 C -0.316406 -41.246094 -0.730469 -42.734375 -1.136719 -44.300781 C -1.542969 -45.878906 -1.886719 -47.480469 -2.164062 -49.105469 C -2.445312 -50.753906 -2.609375 -52.304688 -2.648438 -53.753906 C -2.691406 -55.246094 -2.585938 -56.574219 -2.328125 -57.738281 C -2.027344 -59.097656 -1.417969 -60.128906 -0.5 -60.828125 C 0.96875 -61.945312 2.636719 -62.355469 4.503906 -62.066406 C 6.179688 -61.804688 7.910156 -61.152344 9.695312 -60.101562 C 11.417969 -59.089844 13.144531 -57.8125 14.878906 -56.265625 C 16.574219 -54.753906 18.183594 -53.195312 19.699219 -51.597656 C 21.214844 -50.003906 22.574219 -48.464844 23.78125 -46.984375 C 24.980469 -45.515625 25.933594 -44.320312 26.640625 -43.390625 L 27.804688 -41.863281 C 28.300781 -41.210938 28.855469 -40.464844 29.464844 -39.628906 C 30.082031 -38.785156 30.710938 -37.867188 31.351562 -36.878906 C 31.992188 -35.898438 32.613281 -34.902344 33.214844 -33.894531 Z M 31.105469 -32.628906 C 30.519531 -33.613281 29.914062 -34.582031 29.289062 -35.539062 C 28.671875 -36.488281 28.066406 -37.371094 27.476562 -38.179688 C 26.875 -39.003906 26.335938 -39.734375 25.847656 -40.371094 L 24.683594 -41.902344 C 23.992188 -42.808594 23.058594 -43.984375 21.878906 -45.429688 C 20.707031 -46.859375 19.386719 -48.351562 17.914062 -49.90625 C 16.445312 -51.453125 14.886719 -52.960938 13.238281 -54.429688 C 11.628906 -55.867188 10.03125 -57.050781 8.449219 -57.980469 C 6.933594 -58.871094 5.492188 -59.421875 4.125 -59.636719 C 2.945312 -59.820312 1.902344 -59.5625 0.992188 -58.871094 C 0.550781 -58.535156 0.246094 -57.980469 0.0742188 -57.207031 C -0.140625 -56.242188 -0.226562 -55.113281 -0.191406 -53.824219 C -0.152344 -52.488281 -0.00390625 -51.054688 0.261719 -49.523438 C 0.527344 -47.964844 0.855469 -46.429688 1.246094 -44.914062 C 1.640625 -43.382812 2.046875 -41.925781 2.464844 -40.542969 C 2.878906 -39.160156 3.257812 -37.964844 3.601562 -36.957031 L 4.824219 -33.382812 L 1.730469 -35.550781 C 0.933594 -36.113281 -0.0546875 -36.78125 -1.234375 -37.5625 C -2.398438 -38.332031 -3.664062 -39.109375 -5.027344 -39.894531 C -6.398438 -40.683594 -7.789062 -41.445312 -9.195312 -42.179688 C -10.578125 -42.898438 -11.890625 -43.496094 -13.136719 -43.972656 C -14.335938 -44.433594 -15.398438 -44.726562 -16.320312 -44.851562 C -17.003906 -44.945312 -17.460938 -44.898438 -17.703125 -44.71875 C -18.515625 -44.097656 -18.992188 -43.21875 -19.136719 -42.078125 C -19.304688 -40.730469 -19.207031 -39.21875 -18.84375 -37.53125 C -18.464844 -35.785156 -17.867188 -33.929688 -17.042969 -31.964844 C -16.207031 -29.964844 -15.285156 -28.03125 -14.285156 -26.160156 C -13.277344 -24.28125 -12.253906 -22.539062 -11.214844 -20.933594 C -10.171875 -19.320312 -9.273438 -18.019531 -8.519531 -17.023438 C -8.082031 -16.453125 -7.507812 -15.71875 -6.796875 -14.820312 C -6.101562 -13.941406 -5.308594 -13.015625 -4.410156 -12.046875 C -3.511719 -11.070312 -2.554688 -10.09375 -1.546875 -9.117188 C -0.570312 -8.167969 0.421875 -7.335938 1.429688 -6.617188 C 2.398438 -5.929688 3.339844 -5.410156 4.253906 -5.066406 C 5.039062 -4.773438 5.765625 -4.703125 6.433594 -4.859375 L 6.710938 -3.660156 L 5.890625 -4.578125 C 6.390625 -5.023438 6.605469 -5.707031 6.539062 -6.628906 C 6.453125 -7.835938 6.132812 -9.179688 5.582031 -10.65625 C 5.015625 -12.183594 4.273438 -13.753906 3.355469 -15.363281 C 2.421875 -17.011719 1.507812 -18.523438 0.613281 -19.90625 C -0.28125 -21.289062 -1.074219 -22.453125 -1.769531 -23.398438 C -2.472656 -24.355469 -2.886719 -24.917969 -3.011719 -25.082031 C -3.300781 -25.460938 -3.769531 -26.097656 -4.414062 -26.980469 C -5.054688 -27.855469 -5.640625 -28.644531 -6.179688 -29.351562 L -4.371094 -31.003906 C -3.484375 -30.191406 -2.359375 -29.199219 -0.992188 -28.035156 C 0.375 -26.867188 1.855469 -25.652344 3.457031 -24.394531 C 5.050781 -23.136719 6.675781 -21.910156 8.328125 -20.71875 C 9.957031 -19.542969 11.511719 -18.539062 12.984375 -17.699219 C 14.417969 -16.886719 15.671875 -16.324219 16.753906 -16.007812 C 17.527344 -15.78125 18.039062 -15.765625 18.289062 -15.953125 C 18.613281 -16.199219 18.777344 -16.714844 18.785156 -17.5 C 18.792969 -18.578125 18.59375 -19.878906 18.1875 -21.398438 C 17.765625 -22.980469 17.183594 -24.707031 16.4375 -26.578125 C 15.683594 -28.476562 14.871094 -30.382812 14 -32.296875 C 13.128906 -34.207031 12.226562 -36.058594 11.289062 -37.839844 C 10.347656 -39.640625 9.488281 -41.261719 8.714844 -42.703125 L 10.710938 -44.109375 C 11.765625 -42.933594 13.019531 -41.566406 14.480469 -40 C 15.929688 -38.445312 17.457031 -36.878906 19.058594 -35.300781 C 20.660156 -33.722656 22.273438 -32.195312 23.902344 -30.71875 C 25.515625 -29.257812 27.027344 -28 28.4375 -26.945312 C 29.804688 -25.917969 30.988281 -25.175781 31.984375 -24.714844 C 32.378906 -24.53125 32.699219 -24.433594 32.945312 -24.421875 C 33.050781 -24.417969 33.121094 -24.425781 33.152344 -24.453125 C 33.441406 -24.671875 33.621094 -24.984375 33.695312 -25.382812 C 33.789062 -25.917969 33.742188 -26.53125 33.558594 -27.222656 C 33.34375 -28.023438 33.023438 -28.890625 32.589844 -29.816406 C 32.148438 -30.769531 31.652344 -31.710938 31.105469 -32.636719 Z M 31.105469 -32.628906 "/></g></g><g style="fill:#ffffff;fill-opacity:1;"><g transform="translate(149.345327, 99.285667)"><path style="stroke:none" d="M 24.933594 -20.195312 C 25.464844 -18.582031 25.476562 -16.855469 24.972656 -15.011719 C 24.5 -13.277344 23.734375 -11.621094 22.683594 -10.042969 C 21.644531 -8.484375 20.433594 -7.105469 19.054688 -5.910156 C 17.636719 -4.679688 16.222656 -3.832031 14.804688 -3.367188 C 12.429688 -2.585938 10.105469 -2.488281 7.835938 -3.070312 C 5.636719 -3.632812 3.628906 -4.609375 1.8125 -6 C 0.0273438 -7.371094 -1.527344 -9.015625 -2.847656 -10.9375 C -4.164062 -12.851562 -5.152344 -14.816406 -5.816406 -16.835938 C -6.511719 -18.957031 -6.960938 -21.316406 -7.160156 -23.917969 C -7.363281 -26.535156 -7.191406 -29.070312 -6.648438 -31.515625 C -6.097656 -34.007812 -5.105469 -36.257812 -3.667969 -38.273438 C -2.175781 -40.371094 -0.0820312 -41.859375 2.609375 -42.746094 C 4.128906 -43.246094 5.664062 -43.464844 7.222656 -43.40625 C 8.792969 -43.347656 10.257812 -43.011719 11.617188 -42.402344 C 12.976562 -41.789062 14.1875 -40.933594 15.25 -39.828125 C 16.335938 -38.703125 17.148438 -37.324219 17.6875 -35.683594 C 18.371094 -33.597656 18.570312 -31.496094 18.277344 -29.378906 C 17.992188 -27.292969 17.339844 -25.351562 16.324219 -23.558594 C 15.320312 -21.78125 14.015625 -20.183594 12.414062 -18.769531 C 10.804688 -17.347656 9.027344 -16.269531 7.089844 -15.535156 L 6.65625 -16.683594 L 7.757812 -17.222656 C 8.144531 -16.433594 8.644531 -15.953125 9.253906 -15.785156 C 9.976562 -15.582031 10.769531 -15.625 11.628906 -15.90625 C 12.25 -16.109375 12.808594 -16.46875 13.304688 -16.980469 C 13.90625 -17.605469 14.472656 -18.269531 15.007812 -18.976562 C 15.59375 -19.75 16.1875 -20.472656 16.785156 -21.136719 C 17.507812 -21.9375 18.339844 -22.492188 19.277344 -22.800781 C 20.363281 -23.160156 21.457031 -23.128906 22.550781 -22.710938 C 23.738281 -22.257812 24.53125 -21.417969 24.933594 -20.195312 Z M 22.597656 -19.429688 C 22.4375 -19.910156 22.128906 -20.238281 21.671875 -20.414062 C 21.121094 -20.625 20.578125 -20.640625 20.042969 -20.464844 C 19.519531 -20.292969 19.042969 -19.96875 18.613281 -19.492188 C 18.0625 -18.878906 17.511719 -18.210938 16.972656 -17.496094 C 16.378906 -16.707031 15.746094 -15.964844 15.070312 -15.269531 C 14.292969 -14.464844 13.402344 -13.898438 12.398438 -13.570312 C 11.066406 -13.132812 9.800781 -13.078125 8.597656 -13.414062 C 7.277344 -13.777344 6.261719 -14.691406 5.550781 -16.144531 L 4.957031 -17.355469 L 6.21875 -17.835938 C 7.878906 -18.460938 9.398438 -19.390625 10.785156 -20.613281 C 12.179688 -21.847656 13.3125 -23.230469 14.183594 -24.769531 C 15.046875 -26.289062 15.597656 -27.9375 15.84375 -29.710938 C 16.082031 -31.453125 15.917969 -33.1875 15.347656 -34.917969 C 14.925781 -36.199219 14.304688 -37.265625 13.480469 -38.121094 C 12.636719 -39 11.679688 -39.675781 10.609375 -40.15625 C 9.542969 -40.636719 8.382812 -40.898438 7.132812 -40.949219 C 5.867188 -40.996094 4.617188 -40.816406 3.375 -40.40625 C 1.195312 -39.691406 -0.484375 -38.503906 -1.664062 -36.84375 C -2.90625 -35.101562 -3.769531 -33.148438 -4.246094 -30.984375 C -4.738281 -28.777344 -4.890625 -26.480469 -4.707031 -24.105469 C -4.523438 -21.703125 -4.113281 -19.535156 -3.480469 -17.601562 C -2.890625 -15.808594 -2.003906 -14.050781 -0.820312 -12.332031 C 0.351562 -10.625 1.730469 -9.164062 3.308594 -7.953125 C 4.859375 -6.765625 6.570312 -5.933594 8.445312 -5.453125 C 10.25 -4.988281 12.117188 -5.074219 14.039062 -5.707031 C 15.140625 -6.066406 16.273438 -6.757812 17.445312 -7.769531 C 18.65625 -8.820312 19.71875 -10.03125 20.636719 -11.410156 C 21.542969 -12.765625 22.195312 -14.183594 22.601562 -15.660156 C 22.972656 -17.027344 22.972656 -18.285156 22.597656 -19.429688 Z M 7.835938 -31.097656 C 7.726562 -31.441406 7.5 -31.78125 7.167969 -32.121094 C 7.089844 -32.195312 7.027344 -32.242188 6.980469 -32.253906 C 6.941406 -32.261719 6.882812 -32.253906 6.804688 -32.230469 C 6.175781 -32.023438 5.714844 -31.703125 5.414062 -31.265625 C 5.054688 -30.734375 4.800781 -30.128906 4.664062 -29.445312 C 4.511719 -28.703125 4.453125 -27.941406 4.492188 -27.160156 C 4.53125 -26.363281 4.632812 -25.652344 4.796875 -25.035156 L 3.609375 -24.71875 L 2.988281 -25.78125 C 3.503906 -26.082031 4.113281 -26.457031 4.824219 -26.914062 C 5.480469 -27.332031 6.078125 -27.800781 6.613281 -28.320312 C 7.105469 -28.796875 7.488281 -29.316406 7.757812 -29.878906 C 7.949219 -30.277344 7.972656 -30.683594 7.835938 -31.097656 Z M 10.175781 -31.867188 C 10.519531 -30.824219 10.449219 -29.804688 9.972656 -28.8125 C 9.578125 -27.988281 9.027344 -27.234375 8.324219 -26.554688 C 7.667969 -25.917969 6.945312 -25.347656 6.148438 -24.839844 C 5.410156 -24.367188 4.773438 -23.972656 4.230469 -23.65625 L 2.832031 -22.84375 L 2.421875 -24.40625 C 2.210938 -25.191406 2.085938 -26.070312 2.035156 -27.039062 C 1.988281 -28.027344 2.058594 -28.996094 2.253906 -29.941406 C 2.457031 -30.945312 2.835938 -31.847656 3.382812 -32.652344 C 3.996094 -33.546875 4.878906 -34.1875 6.039062 -34.566406 C 6.570312 -34.742188 7.085938 -34.765625 7.585938 -34.636719 C 8.074219 -34.511719 8.519531 -34.25 8.914062 -33.851562 C 9.519531 -33.238281 9.941406 -32.578125 10.175781 -31.867188 Z M 10.175781 -31.867188 "/></g></g><g style="fill:#ffffff;fill-opacity:1;"><g transform="translate(172.063695, 90.922025)"><path style="stroke:none" d="M 30.128906 -20.046875 C 30.265625 -17.621094 30.160156 -15.199219 29.808594 -12.789062 C 29.449219 -10.320312 28.730469 -8.082031 27.65625 -6.082031 C 26.554688 -4.027344 25.023438 -2.339844 23.0625 -1.011719 C 21.082031 0.328125 18.59375 1.082031 15.597656 1.25 C 12.644531 1.417969 10.121094 0.957031 8.027344 -0.128906 C 5.949219 -1.207031 4.257812 -2.699219 2.953125 -4.597656 C 1.683594 -6.445312 0.742188 -8.558594 0.132812 -10.933594 C -0.460938 -13.246094 -0.828125 -15.613281 -0.964844 -18.039062 C -1.113281 -20.691406 -0.953125 -23.34375 -0.480469 -25.984375 L 0.730469 -25.769531 L -0.492188 -25.929688 C -0.394531 -26.660156 -0.195312 -27.664062 0.109375 -28.941406 C 0.417969 -30.246094 0.839844 -31.53125 1.375 -32.796875 C 1.929688 -34.101562 2.585938 -35.246094 3.351562 -36.226562 C 4.277344 -37.414062 5.375 -38.042969 6.640625 -38.113281 C 7.8125 -38.179688 8.792969 -37.890625 9.578125 -37.25 C 10.253906 -36.695312 10.800781 -35.996094 11.214844 -35.152344 C 11.609375 -34.355469 11.878906 -33.503906 12.027344 -32.601562 C 12.164062 -31.773438 12.253906 -31.019531 12.289062 -30.335938 C 12.351562 -29.289062 12.328125 -28.261719 12.226562 -27.25 C 12.128906 -26.296875 12.019531 -25.339844 11.902344 -24.382812 L 10.679688 -24.535156 L 11.90625 -24.441406 C 11.808594 -23.160156 11.722656 -21.875 11.644531 -20.597656 C 11.570312 -19.355469 11.566406 -18.121094 11.636719 -16.886719 C 11.671875 -16.28125 11.738281 -15.601562 11.84375 -14.851562 C 11.9375 -14.171875 12.113281 -13.523438 12.367188 -12.914062 C 12.597656 -12.363281 12.894531 -11.917969 13.261719 -11.574219 C 13.503906 -11.351562 13.875 -11.253906 14.378906 -11.28125 C 15.171875 -11.324219 15.769531 -11.554688 16.175781 -11.964844 C 16.660156 -12.449219 17.003906 -13.050781 17.214844 -13.769531 C 17.457031 -14.578125 17.585938 -15.445312 17.613281 -16.363281 C 17.636719 -17.359375 17.628906 -18.265625 17.582031 -19.085938 C 17.480469 -20.902344 17.253906 -22.683594 16.910156 -24.425781 C 16.550781 -26.234375 16.207031 -28.074219 15.886719 -29.949219 L 17.101562 -30.15625 L 15.910156 -29.847656 C 15.835938 -30.136719 15.785156 -30.515625 15.757812 -30.980469 C 15.714844 -31.753906 15.796875 -32.527344 16.011719 -33.308594 C 16.222656 -34.089844 16.542969 -34.800781 16.972656 -35.445312 C 17.417969 -36.117188 17.980469 -36.675781 18.660156 -37.117188 C 19.378906 -37.589844 20.1875 -37.851562 21.089844 -37.902344 C 22.347656 -37.972656 23.476562 -37.597656 24.488281 -36.777344 C 25.375 -36.054688 26.132812 -35.113281 26.757812 -33.953125 C 27.347656 -32.863281 27.851562 -31.640625 28.265625 -30.277344 C 28.671875 -28.960938 29.007812 -27.660156 29.277344 -26.378906 C 29.546875 -25.09375 29.75 -23.878906 29.878906 -22.734375 C 30.007812 -21.605469 30.09375 -20.710938 30.128906 -20.046875 Z M 27.671875 -19.910156 C 27.640625 -20.527344 27.558594 -21.375 27.4375 -22.457031 C 27.3125 -23.523438 27.125 -24.660156 26.871094 -25.871094 C 26.617188 -27.082031 26.296875 -28.308594 25.914062 -29.558594 C 25.546875 -30.761719 25.105469 -31.835938 24.59375 -32.78125 C 24.125 -33.65625 23.570312 -34.351562 22.933594 -34.867188 C 22.417969 -35.289062 21.851562 -35.480469 21.230469 -35.445312 C 20.765625 -35.417969 20.359375 -35.292969 20.007812 -35.058594 C 19.609375 -34.800781 19.28125 -34.476562 19.019531 -34.082031 C 18.738281 -33.660156 18.527344 -33.1875 18.382812 -32.664062 C 18.242188 -32.140625 18.183594 -31.625 18.214844 -31.117188 C 18.230469 -30.816406 18.257812 -30.597656 18.289062 -30.464844 L 18.304688 -30.414062 L 18.3125 -30.363281 C 18.628906 -28.511719 18.964844 -26.691406 19.320312 -24.90625 C 19.691406 -23.050781 19.929688 -21.15625 20.039062 -19.222656 C 20.089844 -18.335938 20.097656 -17.363281 20.070312 -16.300781 C 20.039062 -15.164062 19.875 -14.089844 19.574219 -13.070312 C 19.25 -11.960938 18.699219 -11.015625 17.925781 -10.234375 C 17.078125 -9.375 15.941406 -8.90625 14.515625 -8.824219 C 13.3125 -8.757812 12.335938 -9.074219 11.582031 -9.777344 C 10.957031 -10.363281 10.460938 -11.089844 10.097656 -11.964844 C 9.761719 -12.773438 9.53125 -13.625 9.40625 -14.515625 C 9.292969 -15.332031 9.21875 -16.078125 9.179688 -16.75 C 9.105469 -18.078125 9.109375 -19.40625 9.1875 -20.742188 C 9.265625 -22.039062 9.355469 -23.332031 9.453125 -24.628906 L 9.457031 -24.65625 L 9.460938 -24.6875 C 9.574219 -25.625 9.683594 -26.5625 9.777344 -27.5 C 9.867188 -28.382812 9.886719 -29.28125 9.835938 -30.195312 C 9.800781 -30.792969 9.722656 -31.460938 9.601562 -32.199219 C 9.492188 -32.863281 9.292969 -33.484375 9.007812 -34.0625 C 8.75 -34.589844 8.417969 -35.019531 8.019531 -35.347656 C 7.726562 -35.585938 7.316406 -35.6875 6.78125 -35.65625 C 6.257812 -35.628906 5.761719 -35.3125 5.292969 -34.710938 C 4.660156 -33.902344 4.109375 -32.945312 3.644531 -31.839844 C 3.160156 -30.699219 2.78125 -29.542969 2.5 -28.371094 C 2.21875 -27.179688 2.03125 -26.257812 1.949219 -25.613281 L 1.945312 -25.582031 L 1.941406 -25.554688 C 1.503906 -23.097656 1.351562 -20.640625 1.492188 -18.175781 C 1.617188 -15.914062 1.960938 -13.703125 2.515625 -11.546875 C 3.054688 -9.449219 3.875 -7.597656 4.980469 -5.988281 C 6.054688 -4.429688 7.445312 -3.203125 9.160156 -2.3125 C 10.855469 -1.433594 12.953125 -1.0625 15.460938 -1.203125 C 18.003906 -1.347656 20.078125 -1.964844 21.683594 -3.050781 C 23.308594 -4.148438 24.578125 -5.546875 25.488281 -7.246094 C 26.425781 -8.992188 27.054688 -10.957031 27.375 -13.144531 C 27.703125 -15.390625 27.800781 -17.648438 27.671875 -19.910156 Z M 27.671875 -19.910156 "/></g></g><g style="fill:#ffffff;fill-opacity:1;"><g transform="translate(198.567981, 88.7454)"><path style="stroke:none" d="M 39.386719 -26.617188 C 38.863281 -24.191406 37.824219 -21.925781 36.265625 -19.824219 C 34.734375 -17.757812 32.914062 -15.992188 30.796875 -14.535156 C 28.683594 -13.078125 26.398438 -12.003906 23.941406 -11.3125 C 21.441406 -10.609375 18.984375 -10.445312 16.566406 -10.828125 L 16.757812 -12.042969 L 17.945312 -11.714844 C 17.746094 -10.988281 17.511719 -10.058594 17.246094 -8.929688 C 16.96875 -7.753906 16.628906 -6.539062 16.222656 -5.28125 C 15.816406 -4.023438 15.355469 -2.78125 14.84375 -1.546875 C 14.308594 -0.253906 13.683594 0.882812 12.972656 1.867188 C 12.214844 2.914062 11.347656 3.722656 10.375 4.289062 C 9.273438 4.921875 8.070312 5.101562 6.757812 4.816406 C 5.230469 4.484375 4.113281 3.699219 3.410156 2.460938 C 2.804688 1.390625 2.433594 0.1875 2.296875 -1.144531 C 2.167969 -2.394531 2.171875 -3.667969 2.3125 -4.972656 C 2.449219 -6.210938 2.585938 -7.261719 2.726562 -8.128906 C 2.90625 -9.363281 3.113281 -10.578125 3.351562 -11.769531 C 3.582031 -12.953125 3.832031 -14.152344 4.09375 -15.367188 L 4.75 -18.40625 C 5.074219 -19.890625 5.449219 -21.585938 5.882812 -23.484375 C 6.3125 -25.382812 6.773438 -27.363281 7.261719 -29.421875 C 7.753906 -31.492188 8.234375 -33.40625 8.703125 -35.175781 C 9.175781 -36.945312 9.601562 -38.453125 9.980469 -39.695312 C 10.179688 -40.351562 10.359375 -40.871094 10.523438 -41.261719 C 10.75 -41.800781 10.996094 -42.179688 11.261719 -42.394531 L 11.3125 -42.4375 L 11.371094 -42.476562 C 11.480469 -42.546875 11.691406 -42.648438 11.996094 -42.773438 C 12.269531 -42.890625 12.5625 -42.996094 12.875 -43.101562 C 13.152344 -43.191406 13.40625 -43.273438 13.636719 -43.355469 C 13.902344 -43.445312 14.097656 -43.503906 14.21875 -43.535156 L 14.527344 -42.34375 L 14.160156 -43.519531 C 16.386719 -44.210938 18.769531 -44.710938 21.3125 -45.015625 C 23.914062 -45.332031 26.410156 -45.230469 28.800781 -44.710938 C 30.90625 -44.257812 32.734375 -43.414062 34.285156 -42.183594 C 35.8125 -40.972656 37.03125 -39.535156 37.941406 -37.878906 C 38.847656 -36.230469 39.421875 -34.414062 39.660156 -32.441406 C 39.894531 -30.488281 39.804688 -28.546875 39.386719 -26.617188 Z M 36.984375 -27.136719 C 37.339844 -28.796875 37.417969 -30.464844 37.21875 -32.148438 C 37.015625 -33.804688 36.539062 -35.324219 35.785156 -36.695312 C 35.035156 -38.0625 34.023438 -39.25 32.753906 -40.257812 C 31.503906 -41.25 30.015625 -41.933594 28.28125 -42.308594 C 26.160156 -42.765625 23.9375 -42.855469 21.605469 -42.574219 C 19.210938 -42.285156 16.972656 -41.816406 14.890625 -41.171875 L 14.859375 -41.160156 L 14.832031 -41.152344 C 14.769531 -41.136719 14.636719 -41.09375 14.429688 -41.023438 C 14.1875 -40.941406 13.925781 -40.855469 13.636719 -40.761719 C 13.386719 -40.679688 13.160156 -40.59375 12.949219 -40.507812 C 12.84375 -40.460938 12.757812 -40.425781 12.699219 -40.398438 L 12.703125 -40.40625 L 12.035156 -41.441406 L 12.8125 -40.488281 C 12.863281 -40.527344 12.902344 -40.566406 12.929688 -40.605469 L 12.925781 -40.597656 C 12.890625 -40.53125 12.84375 -40.4375 12.792969 -40.308594 C 12.660156 -39.996094 12.507812 -39.554688 12.332031 -38.980469 C 11.960938 -37.761719 11.542969 -36.285156 11.082031 -34.542969 C 10.617188 -32.796875 10.144531 -30.902344 9.65625 -28.855469 C 9.167969 -26.800781 8.710938 -24.828125 8.28125 -22.9375 C 7.851562 -21.046875 7.476562 -19.363281 7.15625 -17.886719 L 6.5 -14.847656 C 6.238281 -13.644531 5.992188 -12.460938 5.765625 -11.292969 C 5.535156 -10.140625 5.332031 -8.953125 5.15625 -7.730469 C 5.019531 -6.910156 4.890625 -5.902344 4.757812 -4.707031 C 4.636719 -3.578125 4.632812 -2.472656 4.742188 -1.398438 C 4.84375 -0.40625 5.113281 0.476562 5.550781 1.246094 C 5.894531 1.847656 6.46875 2.238281 7.277344 2.410156 C 7.96875 2.5625 8.589844 2.476562 9.140625 2.160156 C 9.8125 1.769531 10.425781 1.191406 10.976562 0.425781 C 11.578125 -0.402344 12.109375 -1.375 12.570312 -2.492188 C 13.058594 -3.664062 13.496094 -4.84375 13.882812 -6.039062 C 14.265625 -7.230469 14.589844 -8.382812 14.851562 -9.496094 C 15.125 -10.652344 15.363281 -11.609375 15.574219 -12.367188 L 15.863281 -13.429688 L 16.949219 -13.257812 C 19.011719 -12.933594 21.121094 -13.074219 23.273438 -13.679688 C 25.46875 -14.296875 27.511719 -15.257812 29.402344 -16.5625 C 31.292969 -17.863281 32.921875 -19.441406 34.289062 -21.289062 C 35.636719 -23.105469 36.53125 -25.054688 36.984375 -27.136719 Z M 25.839844 -28.039062 C 25.96875 -28.640625 25.945312 -29.183594 25.765625 -29.671875 C 25.660156 -29.960938 25.367188 -30.15625 24.890625 -30.261719 C 24.25 -30.398438 23.578125 -30.410156 22.871094 -30.292969 C 22.042969 -30.15625 21.277344 -30 20.574219 -29.820312 L 20.269531 -31.011719 L 21.488281 -30.855469 C 21.296875 -29.363281 21.105469 -27.914062 20.910156 -26.511719 C 20.710938 -25.054688 20.402344 -23.582031 19.988281 -22.085938 L 18.804688 -22.414062 L 18.5 -23.605469 C 19.222656 -23.789062 20.019531 -24.015625 20.890625 -24.277344 C 21.710938 -24.523438 22.480469 -24.828125 23.199219 -25.191406 C 23.875 -25.535156 24.46875 -25.957031 24.988281 -26.460938 C 25.417969 -26.878906 25.703125 -27.402344 25.839844 -28.039062 Z M 28.242188 -27.515625 C 28 -26.398438 27.488281 -25.457031 26.703125 -24.695312 C 26.003906 -24.019531 25.207031 -23.453125 24.3125 -23 C 23.460938 -22.566406 22.558594 -22.207031 21.601562 -21.921875 C 20.695312 -21.648438 19.867188 -21.417969 19.109375 -21.222656 L 17.050781 -20.695312 L 17.617188 -22.742188 C 18.003906 -24.132812 18.289062 -25.5 18.472656 -26.847656 C 18.667969 -28.242188 18.859375 -29.683594 19.046875 -31.167969 L 19.15625 -31.996094 L 19.964844 -32.203125 C 20.738281 -32.402344 21.574219 -32.574219 22.46875 -32.722656 C 23.484375 -32.886719 24.464844 -32.871094 25.410156 -32.664062 C 26.769531 -32.371094 27.65625 -31.65625 28.074219 -30.519531 C 28.417969 -29.585938 28.472656 -28.585938 28.242188 -27.515625 Z M 28.242188 -27.515625 "/></g></g><g style="fill:#ffffff;fill-opacity:1;"><g transform="translate(224.165936, 93.711937)"><path style="stroke:none" d="M 31.902344 3.453125 C 31.128906 4.964844 29.914062 6.191406 28.25 7.132812 C 26.6875 8.019531 24.972656 8.644531 23.113281 9.011719 C 21.273438 9.375 19.445312 9.488281 17.625 9.351562 C 15.753906 9.210938 14.152344 8.804688 12.824219 8.128906 C 10.597656 6.992188 8.886719 5.414062 7.699219 3.394531 C 6.550781 1.4375 5.828125 -0.675781 5.535156 -2.945312 C 5.25 -5.175781 5.320312 -7.4375 5.753906 -9.730469 C 6.179688 -12.011719 6.878906 -14.097656 7.84375 -15.992188 C 8.855469 -17.980469 10.214844 -19.964844 11.917969 -21.9375 C 13.632812 -23.925781 15.550781 -25.59375 17.667969 -26.929688 C 19.824219 -28.292969 22.125 -29.175781 24.5625 -29.578125 C 27.105469 -29.996094 29.636719 -29.5625 32.160156 -28.277344 C 33.585938 -27.554688 34.824219 -26.617188 35.882812 -25.46875 C 36.945312 -24.3125 37.742188 -23.039062 38.265625 -21.644531 C 38.789062 -20.25 39.035156 -18.789062 39.003906 -17.253906 C 38.96875 -15.691406 38.5625 -14.144531 37.777344 -12.605469 C 36.78125 -10.648438 35.429688 -9.027344 33.722656 -7.738281 C 32.042969 -6.472656 30.207031 -5.566406 28.21875 -5.023438 C 26.246094 -4.484375 24.195312 -4.285156 22.066406 -4.425781 C 19.921875 -4.5625 17.90625 -5.0625 16.015625 -5.917969 L 16.527344 -7.039062 L 17.6875 -6.636719 C 17.398438 -5.804688 17.410156 -5.113281 17.71875 -4.5625 C 18.085938 -3.90625 18.675781 -3.371094 19.480469 -2.960938 C 20.0625 -2.664062 20.707031 -2.523438 21.421875 -2.53125 C 22.289062 -2.542969 23.160156 -2.609375 24.039062 -2.730469 C 25 -2.859375 25.929688 -2.949219 26.828125 -2.992188 C 27.90625 -3.042969 28.882812 -2.84375 29.761719 -2.398438 C 30.78125 -1.878906 31.53125 -1.082031 32.003906 -0.0117188 C 32.519531 1.148438 32.484375 2.304688 31.902344 3.453125 Z M 29.710938 2.335938 C 29.9375 1.882812 29.953125 1.433594 29.757812 0.984375 C 29.515625 0.445312 29.148438 0.0507812 28.644531 -0.207031 C 28.152344 -0.457031 27.585938 -0.566406 26.945312 -0.535156 C 26.121094 -0.496094 25.265625 -0.414062 24.371094 -0.292969 C 23.394531 -0.15625 22.421875 -0.0859375 21.457031 -0.0703125 C 20.335938 -0.0585938 19.304688 -0.289062 18.363281 -0.769531 C 17.117188 -1.40625 16.183594 -2.265625 15.574219 -3.355469 C 14.902344 -4.550781 14.832031 -5.914062 15.363281 -7.441406 L 15.804688 -8.71875 L 17.035156 -8.160156 C 18.648438 -7.425781 20.378906 -7 22.222656 -6.878906 C 24.082031 -6.757812 25.863281 -6.929688 27.570312 -7.398438 C 29.253906 -7.855469 30.8125 -8.625 32.242188 -9.703125 C 33.648438 -10.761719 34.761719 -12.101562 35.585938 -13.722656 C 36.199219 -14.925781 36.519531 -16.121094 36.542969 -17.308594 C 36.570312 -18.523438 36.375 -19.679688 35.964844 -20.777344 C 35.550781 -21.875 34.921875 -22.882812 34.074219 -23.804688 C 33.214844 -24.734375 32.207031 -25.496094 31.042969 -26.085938 C 29 -27.128906 26.972656 -27.480469 24.964844 -27.152344 C 22.851562 -26.804688 20.859375 -26.039062 18.984375 -24.851562 C 17.074219 -23.644531 15.335938 -22.136719 13.78125 -20.332031 C 12.207031 -18.507812 10.957031 -16.6875 10.035156 -14.875 C 9.175781 -13.191406 8.554688 -11.324219 8.167969 -9.273438 C 7.785156 -7.238281 7.722656 -5.234375 7.976562 -3.257812 C 8.226562 -1.320312 8.839844 0.480469 9.820312 2.148438 C 10.765625 3.753906 12.140625 5.019531 13.941406 5.9375 C 14.976562 6.460938 16.265625 6.78125 17.808594 6.898438 C 19.40625 7.015625 21.015625 6.917969 22.636719 6.597656 C 24.238281 6.285156 25.707031 5.75 27.039062 4.992188 C 28.273438 4.296875 29.160156 3.410156 29.710938 2.335938 Z M 27.585938 -16.359375 C 27.75 -16.683594 27.832031 -17.082031 27.835938 -17.554688 C 27.835938 -17.664062 27.824219 -17.738281 27.796875 -17.78125 C 27.777344 -17.816406 27.730469 -17.851562 27.660156 -17.890625 C 27.070312 -18.191406 26.515625 -18.292969 25.996094 -18.195312 C 25.363281 -18.078125 24.757812 -17.828125 24.175781 -17.449219 C 23.542969 -17.03125 22.960938 -16.535156 22.433594 -15.957031 C 21.894531 -15.367188 21.464844 -14.792969 21.140625 -14.242188 L 20.078125 -14.863281 L 20.394531 -16.050781 C 20.96875 -15.898438 21.667969 -15.730469 22.492188 -15.546875 C 23.25 -15.375 24.003906 -15.285156 24.75 -15.269531 C 25.4375 -15.257812 26.074219 -15.351562 26.664062 -15.558594 C 27.078125 -15.703125 27.386719 -15.96875 27.585938 -16.359375 Z M 29.777344 -15.242188 C 29.277344 -14.265625 28.507812 -13.59375 27.46875 -13.234375 C 26.601562 -12.933594 25.683594 -12.792969 24.707031 -12.8125 C 23.792969 -12.828125 22.875 -12.941406 21.957031 -13.144531 C 21.101562 -13.335938 20.371094 -13.511719 19.761719 -13.675781 L 18.199219 -14.089844 L 19.019531 -15.484375 C 19.429688 -16.1875 19.960938 -16.898438 20.617188 -17.613281 C 21.285156 -18.347656 22.019531 -18.976562 22.824219 -19.503906 C 23.683594 -20.066406 24.589844 -20.4375 25.546875 -20.613281 C 26.613281 -20.8125 27.691406 -20.632812 28.777344 -20.082031 C 29.273438 -19.828125 29.652344 -19.476562 29.917969 -19.03125 C 30.175781 -18.597656 30.300781 -18.097656 30.296875 -17.539062 C 30.289062 -16.675781 30.117188 -15.910156 29.777344 -15.242188 Z M 29.777344 -15.242188 "/></g></g><g style="fill:#ffffff;fill-opacity:1;"><g transform="translate(246.314914, 104.697533)"><path style="stroke:none" d="M 10.59375 13.566406 C 8.136719 11.496094 6.480469 9.53125 5.625 7.671875 C 4.738281 5.746094 4.46875 3.832031 4.8125 1.929688 C 5.144531 0.101562 5.960938 -1.722656 7.257812 -3.546875 C 8.46875 -5.253906 9.898438 -7.082031 11.546875 -9.03125 C 12.855469 -10.585938 14.222656 -12.105469 15.648438 -13.59375 C 17.070312 -15.074219 18.625 -16.621094 20.324219 -18.230469 L 21.171875 -17.339844 L 20.378906 -16.398438 C 19.941406 -16.769531 19.59375 -17.046875 19.339844 -17.234375 C 19.042969 -17.457031 18.804688 -17.640625 18.621094 -17.796875 C 17.40625 -18.824219 16.570312 -19.996094 16.113281 -21.3125 C 15.582031 -22.859375 15.863281 -24.28125 16.964844 -25.585938 C 17.671875 -26.425781 18.605469 -26.902344 19.761719 -27.023438 C 20.734375 -27.125 21.773438 -27.027344 22.878906 -26.738281 C 23.921875 -26.464844 24.960938 -26.070312 26.003906 -25.554688 C 27.023438 -25.046875 27.945312 -24.507812 28.765625 -23.929688 L 28.0625 -22.921875 L 27.121094 -23.714844 C 27.925781 -24.667969 28.878906 -25.660156 29.980469 -26.691406 C 31.113281 -27.753906 32.296875 -28.644531 33.535156 -29.367188 C 34.828125 -30.121094 36.125 -30.589844 37.425781 -30.765625 C 38.925781 -30.972656 40.273438 -30.574219 41.464844 -29.566406 C 42.199219 -28.949219 42.667969 -28.175781 42.875 -27.253906 C 43.058594 -26.429688 43.066406 -25.585938 42.894531 -24.722656 C 42.730469 -23.914062 42.441406 -23.109375 42.019531 -22.304688 C 41.613281 -21.527344 41.148438 -20.828125 40.621094 -20.203125 C 40.03125 -19.507812 39.378906 -18.835938 38.660156 -18.195312 C 37.949219 -17.5625 37.019531 -16.835938 35.867188 -16.019531 L 35.152344 -17.023438 L 35.832031 -18.050781 C 36.453125 -17.636719 36.875 -17.355469 37.09375 -17.199219 C 37.332031 -17.027344 37.546875 -16.863281 37.734375 -16.703125 C 38.339844 -16.195312 38.925781 -15.609375 39.488281 -14.953125 C 40.082031 -14.261719 40.558594 -13.539062 40.917969 -12.789062 C 41.308594 -11.96875 41.507812 -11.144531 41.523438 -10.316406 C 41.535156 -9.359375 41.222656 -8.5 40.585938 -7.746094 C 39.863281 -6.890625 38.902344 -6.425781 37.695312 -6.34375 C 36.695312 -6.277344 35.632812 -6.402344 34.5 -6.71875 C 33.425781 -7.023438 32.363281 -7.449219 31.320312 -8 C 30.308594 -8.53125 29.394531 -9.082031 28.578125 -9.652344 L 29.28125 -10.660156 L 30.097656 -9.742188 C 28.796875 -8.585938 27.636719 -7.492188 26.628906 -6.457031 C 25.589844 -5.394531 24.539062 -4.335938 23.476562 -3.269531 L 23.460938 -3.257812 L 23.449219 -3.242188 C 22.921875 -2.753906 22.398438 -2.246094 21.878906 -1.726562 C 21.371094 -1.222656 20.882812 -0.6875 20.410156 -0.128906 C 20.066406 0.277344 19.675781 0.773438 19.242188 1.351562 C 18.867188 1.851562 18.578125 2.386719 18.375 2.957031 C 18.199219 3.449219 18.148438 3.964844 18.226562 4.496094 C 18.289062 4.921875 18.578125 5.351562 19.089844 5.785156 C 19.496094 6.125 19.949219 6.445312 20.449219 6.742188 C 21.066406 7.109375 21.644531 7.519531 22.1875 7.976562 C 23.378906 8.984375 23.882812 10.160156 23.703125 11.511719 C 23.554688 12.652344 23.015625 13.769531 22.089844 14.867188 C 21.324219 15.773438 20.382812 16.335938 19.261719 16.554688 C 18.25 16.75 17.21875 16.71875 16.164062 16.464844 C 15.179688 16.226562 14.191406 15.839844 13.191406 15.304688 C 12.210938 14.78125 11.347656 14.203125 10.59375 13.566406 Z M 12.179688 11.6875 C 12.800781 12.210938 13.523438 12.695312 14.355469 13.136719 C 15.167969 13.570312 15.960938 13.882812 16.742188 14.074219 C 17.449219 14.242188 18.132812 14.265625 18.792969 14.136719 C 19.34375 14.03125 19.816406 13.746094 20.207031 13.28125 C 20.824219 12.550781 21.175781 11.851562 21.265625 11.183594 C 21.328125 10.726562 21.105469 10.285156 20.601562 9.855469 C 20.164062 9.488281 19.695312 9.15625 19.195312 8.859375 C 18.578125 8.492188 18.015625 8.09375 17.503906 7.664062 C 16.515625 6.832031 15.945312 5.894531 15.792969 4.851562 C 15.65625 3.917969 15.746094 3.011719 16.058594 2.128906 C 16.34375 1.324219 16.75 0.574219 17.273438 -0.125 C 17.738281 -0.742188 18.15625 -1.273438 18.53125 -1.714844 C 19.046875 -2.328125 19.585938 -2.914062 20.140625 -3.46875 C 20.679688 -4.007812 21.222656 -4.53125 21.765625 -5.039062 L 22.605469 -4.140625 L 21.738281 -5.011719 C 22.796875 -6.066406 23.839844 -7.121094 24.867188 -8.175781 C 25.917969 -9.253906 27.121094 -10.390625 28.46875 -11.582031 L 29.191406 -12.226562 L 29.988281 -11.667969 C 30.71875 -11.160156 31.542969 -10.660156 32.464844 -10.175781 C 33.355469 -9.707031 34.257812 -9.34375 35.167969 -9.089844 C 36.023438 -8.847656 36.8125 -8.75 37.53125 -8.796875 C 38.042969 -8.832031 38.433594 -9.011719 38.703125 -9.332031 C 38.949219 -9.621094 39.066406 -9.933594 39.0625 -10.28125 C 39.054688 -10.75 38.933594 -11.234375 38.699219 -11.726562 C 38.429688 -12.285156 38.074219 -12.824219 37.621094 -13.351562 C 37.144531 -13.90625 36.652344 -14.398438 36.148438 -14.824219 C 36.011719 -14.941406 35.851562 -15.0625 35.671875 -15.191406 C 35.472656 -15.332031 35.074219 -15.601562 34.476562 -15.996094 L 32.976562 -16.988281 L 34.441406 -18.027344 C 35.519531 -18.789062 36.378906 -19.460938 37.023438 -20.03125 C 37.65625 -20.597656 38.226562 -21.183594 38.742188 -21.789062 C 39.152344 -22.277344 39.519531 -22.828125 39.84375 -23.445312 C 40.152344 -24.039062 40.367188 -24.625 40.480469 -25.203125 C 40.585938 -25.726562 40.582031 -26.230469 40.472656 -26.714844 C 40.386719 -27.101562 40.191406 -27.425781 39.878906 -27.6875 C 39.242188 -28.222656 38.539062 -28.4375 37.761719 -28.332031 C 36.785156 -28.195312 35.789062 -27.832031 34.773438 -27.242188 C 33.699219 -26.613281 32.660156 -25.832031 31.660156 -24.894531 C 30.628906 -23.929688 29.742188 -23.007812 29.003906 -22.128906 L 28.277344 -21.269531 L 27.359375 -21.914062 C 26.636719 -22.421875 25.820312 -22.898438 24.910156 -23.351562 C 24.019531 -23.792969 23.132812 -24.128906 22.253906 -24.359375 C 21.4375 -24.574219 20.691406 -24.644531 20.011719 -24.574219 C 19.515625 -24.523438 19.125 -24.332031 18.84375 -23.996094 C 18.34375 -23.40625 18.210938 -22.78125 18.441406 -22.117188 C 18.746094 -21.226562 19.335938 -20.414062 20.210938 -19.675781 C 20.351562 -19.554688 20.550781 -19.398438 20.804688 -19.210938 C 21.101562 -18.992188 21.488281 -18.679688 21.964844 -18.277344 L 23.015625 -17.394531 L 22.019531 -16.445312 C 20.347656 -14.863281 18.816406 -13.34375 17.425781 -11.890625 C 16.035156 -10.441406 14.703125 -8.960938 13.425781 -7.445312 C 11.824219 -5.546875 10.433594 -3.773438 9.261719 -2.125 C 8.175781 -0.59375 7.5 0.902344 7.234375 2.371094 C 6.980469 3.761719 7.1875 5.1875 7.859375 6.640625 C 8.5625 8.167969 10.003906 9.851562 12.179688 11.6875 Z M 12.179688 11.6875 "/></g></g></g></svg>