<svg xmlns="http://www.w3.org/2000/svg" xmlns:xlink="http://www.w3.org/1999/xlink" width="1920" zoomAndPan="magnify" viewBox="0 0 1440 809.999993" height="1080" preserveAspectRatio="xMidYMid meet" version="1.2"><defs><clipPath id="16c5de3a18"><path d="M 366 254 L 447 254 L 447 346 L 366 346 Z M 366 254 "/></clipPath><clipPath id="d241822f37"><path d="M 275.914062 274.34375 L 499.980469 0.285156 L 1154.941406 535.769531 L 930.875 809.828125 Z M 275.914062 274.34375 "/></clipPath><clipPath id="3604794c5b"><path d="M 275.914062 274.34375 L 499.980469 0.285156 L 1154.941406 535.769531 L 930.875 809.828125 Z M 275.914062 274.34375 "/></clipPath><clipPath id="0d8b993cf4"><path d="M 390 115 L 470 115 L 470 208 L 390 208 Z M 390 115 "/></clipPath><clipPath id="2d3874f912"><path d="M 275.914062 274.34375 L 499.980469 0.285156 L 1154.941406 535.769531 L 930.875 809.828125 Z M 275.914062 274.34375 "/></clipPath><clipPath id="993da5cf05"><path d="M 275.914062 274.34375 L 499.980469 0.285156 L 1154.941406 535.769531 L 930.875 809.828125 Z M 275.914062 274.34375 "/></clipPath><clipPath id="94a8d89888"><path d="M 492 379 L 580 379 L 580 466 L 492 466 Z M 492 379 "/></clipPath><clipPath id="0d34a3b683"><path d="M 275.914062 274.34375 L 499.980469 0.285156 L 1154.941406 535.769531 L 930.875 809.828125 Z M 275.914062 274.34375 "/></clipPath><clipPath id="1f53e269b6"><path d="M 275.914062 274.34375 L 499.980469 0.285156 L 1154.941406 535.769531 L 930.875 809.828125 Z M 275.914062 274.34375 "/></clipPath><clipPath id="d2ab0b71c9"><path d="M 501 235 L 586 235 L 586 326 L 501 326 Z M 501 235 "/></clipPath><clipPath id="288677b86b"><path d="M 275.914062 274.34375 L 499.980469 0.285156 L 1154.941406 535.769531 L 930.875 809.828125 Z M 275.914062 274.34375 "/></clipPath><clipPath id="246909ff7f"><path d="M 275.914062 274.34375 L 499.980469 0.285156 L 1154.941406 535.769531 L 930.875 809.828125 Z M 275.914062 274.34375 "/></clipPath><clipPath id="410f144095"><path d="M 661 490 L 751 490 L 751 572 L 661 572 Z M 661 490 "/></clipPath><clipPath id="d72e952470"><path d="M 275.914062 274.34375 L 499.980469 0.285156 L 1154.941406 535.769531 L 930.875 809.828125 Z M 275.914062 274.34375 "/></clipPath><clipPath id="e046d20852"><path d="M 275.914062 274.34375 L 499.980469 0.285156 L 1154.941406 535.769531 L 930.875 809.828125 Z M 275.914062 274.34375 "/></clipPath><clipPath id="4e82839e66"><path d="M 620 357 L 708 357 L 708 444 L 620 444 Z M 620 357 "/></clipPath><clipPath id="0fbc490de3"><path d="M 275.914062 274.34375 L 499.980469 0.285156 L 1154.941406 535.769531 L 930.875 809.828125 Z M 275.914062 274.34375 "/></clipPath><clipPath id="ee10a26103"><path d="M 275.914062 274.34375 L 499.980469 0.285156 L 1154.941406 535.769531 L 930.875 809.828125 Z M 275.914062 274.34375 "/></clipPath><clipPath id="06fc5d31b7"><path d="M 845 519 L 933 519 L 933 605 L 845 605 Z M 845 519 "/></clipPath><clipPath id="7723f77492"><path d="M 275.914062 274.34375 L 499.980469 0.285156 L 1154.941406 535.769531 L 930.875 809.828125 Z M 275.914062 274.34375 "/></clipPath><clipPath id="e580ac13de"><path d="M 275.914062 274.34375 L 499.980469 0.285156 L 1154.941406 535.769531 L 930.875 809.828125 Z M 275.914062 274.34375 "/></clipPath><clipPath id="bc3343b3fc"><path d="M 773 398 L 863 398 L 863 482 L 773 482 Z M 773 398 "/></clipPath><clipPath id="cbcb37a740"><path d="M 275.914062 274.34375 L 499.980469 0.285156 L 1154.941406 535.769531 L 930.875 809.828125 Z M 275.914062 274.34375 "/></clipPath><clipPath id="c434b9579a"><path d="M 275.914062 274.34375 L 499.980469 0.285156 L 1154.941406 535.769531 L 930.875 809.828125 Z M 275.914062 274.34375 "/></clipPath><clipPath id="83b0ff8eb7"><path d="M 1034 499 L 1123 499 L 1123 586 L 1034 586 Z M 1034 499 "/></clipPath><clipPath id="ac8c62fda9"><path d="M 275.914062 274.34375 L 499.980469 0.285156 L 1154.941406 535.769531 L 930.875 809.828125 Z M 275.914062 274.34375 "/></clipPath><clipPath id="c0ac20bcda"><path d="M 275.914062 274.34375 L 499.980469 0.285156 L 1154.941406 535.769531 L 930.875 809.828125 Z M 275.914062 274.34375 "/></clipPath><clipPath id="24b88e9629"><path d="M 934 402 L 1020 402 L 1020 488 L 934 488 Z M 934 402 "/></clipPath><clipPath id="91211ff1fc"><path d="M 275.914062 274.34375 L 499.980469 0.285156 L 1154.941406 535.769531 L 930.875 809.828125 Z M 275.914062 274.34375 "/></clipPath><clipPath id="914f65d141"><path d="M 275.914062 274.34375 L 499.980469 0.285156 L 1154.941406 535.769531 L 930.875 809.828125 Z M 275.914062 274.34375 "/></clipPath><clipPath id="0b9941902a"><path d="M 916.601562 447.898438 L 969.070312 383.722656 L 1041.328125 442.796875 L 988.859375 506.976562 Z M 916.601562 447.898438 "/></clipPath></defs><g id="3f8041a666"><g clip-rule="nonzero" clip-path="url(#16c5de3a18)"><g clip-rule="nonzero" clip-path="url(#d241822f37)"><g clip-rule="nonzero" clip-path="url(#3604794c5b)"><path style=" stroke:none;fill-rule:nonzero;fill:#a5ab7f;fill-opacity:1;" d="M 389.671875 325.773438 C 397.226562 321.65625 396.316406 313.40625 390.277344 308.246094 C 385.921875 304.535156 370.683594 299.921875 368.019531 309.734375 C 363.78125 327.023438 382.480469 329.691406 389.671875 325.773438 Z M 435.941406 325.636719 C 444.847656 323.289062 451.351562 312.90625 442.644531 306.15625 C 438.332031 302.808594 430.890625 305.484375 425.160156 302.546875 C 421.15625 300.503906 415.984375 294.070312 411.1875 294.953125 C 402.238281 296.597656 399.75 301.898438 399.90625 308.359375 C 400.046875 314.058594 402.054688 319.777344 401.046875 324.519531 C 398.160156 338.089844 405.34375 354.679688 418.230469 340.4375 C 425.523438 332.382812 425.890625 328.292969 435.941406 325.636719 Z M 438.738281 294.191406 C 444.417969 288.179688 446.480469 269.054688 429.425781 268.136719 C 424.304688 267.859375 422.140625 274.148438 420.109375 277.464844 C 411.242188 291.921875 430.4375 302.980469 438.738281 294.191406 Z M 374.816406 269.679688 C 367.257812 270.421875 365.945312 277.09375 367.101562 282.882812 C 368.898438 291.871094 378.535156 298.5625 388.09375 298.367188 C 394.785156 298.226562 396.570312 293.195312 394.664062 287.378906 C 393.71875 284.503906 391.6875 281.464844 388.90625 278.636719 C 387.90625 277.617188 385.300781 274.835938 382.394531 272.515625 C 379.578125 270.261719 377.011719 269.464844 374.816406 269.679688 Z M 392.214844 258.828125 C 390.246094 263.5625 393.414062 275.214844 397.230469 280 C 402.761719 286.96875 408.523438 285.578125 411.617188 281.371094 C 416.164062 275.164062 416.679688 266.871094 414.007812 262.257812 C 410.050781 255.425781 395.929688 249.914062 392.214844 258.828125 "/></g></g></g><g clip-rule="nonzero" clip-path="url(#0d8b993cf4)"><g clip-rule="nonzero" clip-path="url(#2d3874f912)"><g clip-rule="nonzero" clip-path="url(#993da5cf05)"><path style=" stroke:none;fill-rule:nonzero;fill:#a5ab7f;fill-opacity:1;" d="M 411.394531 185.074219 C 419.417969 181.972656 419.582031 173.671875 414.261719 167.773438 C 410.417969 163.523438 395.90625 156.992188 391.996094 166.371094 C 385.5625 182.972656 403.761719 188.035156 411.394531 185.074219 Z M 457.300781 190.929688 C 466.4375 189.746094 474.21875 180.292969 466.464844 172.476562 C 462.617188 168.59375 454.886719 170.285156 449.585938 166.636719 C 445.882812 164.085938 441.578125 157.042969 436.710938 157.296875 C 427.625 157.773438 424.476562 162.707031 423.804688 169.136719 C 423.203125 174.808594 424.449219 180.738281 422.839844 185.308594 C 418.222656 198.386719 423.195312 215.765625 437.820312 203.316406 C 446.085938 196.269531 446.980469 192.253906 457.300781 190.929688 Z M 464.132812 160.105469 C 470.542969 154.875 475.0625 136.175781 458.265625 133.0625 C 453.226562 132.128906 450.265625 138.085938 447.820312 141.105469 C 437.160156 154.296875 454.769531 167.742188 464.132812 160.105469 Z M 403.921875 127.535156 C 396.320312 127.292969 394.160156 133.730469 394.5625 139.628906 C 395.179688 148.777344 403.867188 156.652344 413.375 157.699219 C 420.03125 158.421875 422.449219 153.664062 421.304688 147.648438 C 420.746094 144.679688 419.121094 141.402344 416.726562 138.230469 C 415.871094 137.09375 413.648438 134.007812 411.066406 131.324219 C 408.570312 128.726562 406.125 127.601562 403.921875 127.535156 Z M 422.574219 119.027344 C 420.015625 123.460938 421.652344 135.429688 424.808594 140.667969 C 429.386719 148.285156 435.285156 147.652344 438.902344 143.878906 C 444.203125 138.320312 445.792969 130.164062 443.742188 125.242188 C 440.703125 117.949219 427.410156 110.660156 422.574219 119.027344 "/></g></g></g><g clip-rule="nonzero" clip-path="url(#94a8d89888)"><g clip-rule="nonzero" clip-path="url(#0d34a3b683)"><g clip-rule="nonzero" clip-path="url(#1f53e269b6)"><path style=" stroke:none;fill-rule:nonzero;fill:#a5ab7f;fill-opacity:1;" d="M 527.132812 451.4375 C 533.316406 445.453125 530.230469 437.75 523.03125 434.394531 C 517.839844 431.972656 501.933594 431.609375 501.980469 441.773438 C 502.519531 459.5625 521.253906 457.140625 527.132812 451.4375 Z M 571.683594 438.945312 C 579.644531 434.292969 583.132812 422.554688 572.9375 418.375 C 567.890625 416.308594 561.425781 420.871094 555.125 419.578125 C 550.71875 418.675781 544.011719 413.855469 539.625 415.988281 C 531.445312 419.972656 530.464844 425.738281 532.347656 431.929688 C 534.003906 437.378906 537.460938 442.355469 537.765625 447.199219 C 538.609375 461.039062 549.960938 475.105469 558.578125 457.941406 C 563.445312 448.230469 562.707031 444.1875 571.683594 438.945312 Z M 565.976562 407.890625 C 569.84375 400.582031 566.714844 381.601562 550.039062 385.273438 C 545.023438 386.378906 544.625 393.015625 543.554688 396.753906 C 538.875 413.054688 560.328125 418.574219 565.976562 407.890625 Z M 497.828125 401.359375 C 490.734375 404.097656 491.253906 410.871094 493.925781 416.140625 C 498.058594 424.320312 509.125 428.199219 518.289062 425.457031 C 524.699219 423.53125 525.074219 418.203125 521.683594 413.109375 C 520.007812 410.589844 517.234375 408.203125 513.792969 406.21875 C 512.558594 405.507812 509.308594 403.523438 505.886719 402.0625 C 502.578125 400.640625 499.882812 400.558594 497.828125 401.359375 Z M 511.695312 386.257812 C 511.066406 391.335938 517.230469 401.726562 522.179688 405.316406 C 529.378906 410.546875 534.558594 407.667969 536.414062 402.785156 C 539.132812 395.589844 537.417969 387.464844 533.613281 383.734375 C 527.972656 378.199219 512.894531 376.667969 511.695312 386.257812 "/></g></g></g><g clip-rule="nonzero" clip-path="url(#d2ab0b71c9)"><g clip-rule="nonzero" clip-path="url(#288677b86b)"><g clip-rule="nonzero" clip-path="url(#246909ff7f)"><path style=" stroke:none;fill-rule:nonzero;fill:#a5ab7f;fill-opacity:1;" d="M 530.464844 308.292969 C 537.371094 303.160156 535.308594 295.117188 528.605469 290.863281 C 523.765625 287.789062 508.042969 285.371094 506.773438 295.457031 C 505.011719 313.164062 523.898438 313.183594 530.464844 308.292969 Z M 576.257812 301.667969 C 584.757812 298.089844 589.726562 286.898438 580.167969 281.433594 C 575.421875 278.722656 568.425781 282.414062 562.339844 280.324219 C 558.082031 278.851562 552.066406 273.210938 547.4375 274.757812 C 538.8125 277.644531 537.09375 283.246094 538.160156 289.617188 C 539.097656 295.246094 541.886719 300.628906 541.554688 305.460938 C 540.609375 319.296875 550.035156 334.714844 560.808594 318.804688 C 566.890625 309.800781 566.675781 305.699219 576.257812 301.667969 Z M 574.613281 270.132812 C 579.390625 263.386719 578.746094 244.15625 561.734375 245.652344 C 556.621094 246.089844 555.371094 252.617188 553.820312 256.195312 C 547.070312 271.742188 567.632812 280 574.613281 270.132812 Z M 507.882812 254.839844 C 500.496094 256.636719 500.140625 263.425781 502.097656 268.996094 C 505.144531 277.652344 515.617188 282.917969 525.058594 281.375 C 531.667969 280.304688 532.722656 275.074219 530.015625 269.582031 C 528.679688 266.863281 526.242188 264.140625 523.085938 261.726562 C 521.953125 260.859375 518.988281 258.476562 515.785156 256.582031 C 512.675781 254.746094 510.03125 254.324219 507.882812 254.839844 Z M 523.585938 241.660156 C 522.304688 246.613281 527.078125 257.714844 531.523438 261.914062 C 537.976562 268.03125 543.488281 265.84375 545.960938 261.25 C 549.589844 254.46875 548.933594 246.1875 545.644531 241.992188 C 540.769531 235.777344 526.011719 232.308594 523.585938 241.660156 "/></g></g></g><g clip-rule="nonzero" clip-path="url(#410f144095)"><g clip-rule="nonzero" clip-path="url(#d72e952470)"><g clip-rule="nonzero" clip-path="url(#e046d20852)"><path style=" stroke:none;fill-rule:nonzero;fill:#a5ab7f;fill-opacity:1;" d="M 702.878906 560.941406 C 708.0625 554.078125 703.839844 546.933594 696.207031 544.730469 C 690.703125 543.128906 674.925781 545.21875 676.539062 555.257812 C 679.808594 572.746094 697.941406 567.476562 702.878906 560.941406 Z M 744.980469 541.746094 C 752.128906 535.933594 753.769531 523.796875 743.058594 521.234375 C 737.746094 519.960938 732.066406 525.460938 725.636719 525.15625 C 721.148438 524.941406 713.78125 521.214844 709.773438 523.992188 C 702.296875 529.183594 702.21875 535.039062 705.023438 540.855469 C 707.507812 545.996094 711.695312 550.378906 712.726562 555.109375 C 715.695312 568.660156 729.066406 580.8125 734.945312 562.527344 C 738.265625 552.179688 736.914062 548.300781 744.980469 541.746094 Z M 734.570312 511.9375 C 737.261719 504.117188 731.253906 485.84375 715.332031 492.042969 C 710.558594 493.898438 711.183594 500.523438 710.695312 504.386719 C 708.574219 521.207031 730.625 523.363281 734.570312 511.9375 Z M 666.21875 515.957031 C 659.632812 519.757812 661.191406 526.367188 664.636719 531.164062 C 669.980469 538.617188 681.511719 540.738281 690.144531 536.621094 C 696.183594 533.738281 695.734375 528.417969 691.597656 523.910156 C 689.558594 521.675781 686.449219 519.738281 682.746094 518.3125 C 681.417969 517.796875 677.902344 516.335938 674.292969 515.410156 C 670.804688 514.527344 668.136719 514.859375 666.21875 515.957031 Z M 677.605469 498.90625 C 677.761719 504.019531 685.449219 513.339844 690.890625 516.125 C 698.804688 520.1875 703.480469 516.542969 704.570312 511.4375 C 706.15625 503.914062 703.195312 496.144531 698.871094 493.046875 C 692.445312 488.4375 677.308594 489.25 677.605469 498.90625 "/></g></g></g><g clip-rule="nonzero" clip-path="url(#4e82839e66)"><g clip-rule="nonzero" clip-path="url(#0fbc490de3)"><g clip-rule="nonzero" clip-path="url(#ee10a26103)"><path style=" stroke:none;fill-rule:nonzero;fill:#a5ab7f;fill-opacity:1;" d="M 656.105469 429.734375 C 662.128906 423.597656 658.863281 415.96875 651.578125 412.796875 C 646.328125 410.503906 630.414062 410.527344 630.714844 420.691406 C 631.699219 438.464844 650.367188 435.578125 656.105469 429.734375 Z M 700.332031 416.140625 C 708.171875 411.300781 711.367188 399.484375 701.078125 395.554688 C 695.976562 393.601562 689.632812 398.328125 683.296875 397.195312 C 678.867188 396.398438 672.046875 391.75 667.71875 393.988281 C 659.636719 398.167969 658.796875 403.964844 660.828125 410.097656 C 662.621094 415.507812 666.207031 420.398438 666.621094 425.230469 C 667.8125 439.046875 679.5 452.832031 687.695312 435.453125 C 692.324219 425.625 691.484375 421.605469 700.332031 416.140625 Z M 693.855469 385.242188 C 697.542969 377.835938 693.945312 358.9375 677.367188 363.023438 C 672.382812 364.253906 672.148438 370.890625 671.164062 374.664062 C 666.894531 391.066406 688.476562 396.0625 693.855469 385.242188 Z M 625.570312 380.390625 C 618.546875 383.300781 619.234375 390.0625 622.03125 395.265625 C 626.371094 403.347656 637.527344 406.941406 646.613281 403.96875 C 652.980469 401.894531 653.21875 396.5625 649.703125 391.550781 C 647.96875 389.074219 645.140625 386.753906 641.648438 384.855469 C 640.40625 384.175781 637.101562 382.273438 633.644531 380.894531 C 630.304688 379.558594 627.605469 379.546875 625.570312 380.390625 Z M 639.0625 364.949219 C 638.5625 370.046875 644.976562 380.28125 650.015625 383.742188 C 657.328125 388.796875 662.441406 385.796875 664.175781 380.863281 C 666.722656 373.605469 664.804688 365.523438 660.910156 361.894531 C 655.128906 356.496094 640.015625 355.335938 639.0625 364.949219 "/></g></g></g><g clip-rule="nonzero" clip-path="url(#06fc5d31b7)"><g clip-rule="nonzero" clip-path="url(#7723f77492)"><g clip-rule="nonzero" clip-path="url(#e580ac13de)"><path style=" stroke:none;fill-rule:nonzero;fill:#a5ab7f;fill-opacity:1;" d="M 898.628906 592.183594 C 900.867188 583.882812 894.265625 578.84375 886.355469 579.664062 C 880.660156 580.253906 866.824219 588.105469 872.082031 596.800781 C 881.679688 611.796875 896.507812 600.097656 898.628906 592.183594 Z M 930.457031 558.59375 C 934.898438 550.519531 931.867188 538.65625 920.96875 540.300781 C 915.574219 541.117188 912.371094 548.355469 906.296875 550.480469 C 902.050781 551.96875 893.824219 551.273438 891.152344 555.351562 C 886.175781 562.964844 888.300781 568.425781 893.085938 572.769531 C 897.308594 576.59375 902.835938 579.089844 905.578125 583.089844 C 913.402344 594.535156 930.371094 600.78125 928.949219 581.628906 C 928.148438 570.789062 925.4375 567.699219 930.457031 558.59375 Z M 909.613281 534.875 C 909.175781 526.613281 896.753906 511.9375 884.320312 523.648438 C 880.59375 527.167969 883.652344 533.066406 884.648438 536.832031 C 889 553.222656 910.25 546.949219 909.613281 534.875 Z M 847.773438 564.253906 C 843.089844 570.238281 847.015625 575.785156 852.003906 578.941406 C 859.761719 583.84375 871.242188 581.484375 877.699219 574.425781 C 882.210938 569.488281 879.800781 564.722656 874.277344 562.089844 C 871.546875 560.792969 867.941406 560.167969 863.976562 560.226562 C 862.546875 560.246094 858.742188 560.222656 855.046875 560.714844 C 851.484375 561.199219 849.128906 562.511719 847.773438 564.253906 Z M 851.925781 544.171875 C 853.992188 548.851562 864.613281 554.601562 870.707031 555.144531 C 879.5625 555.941406 882.53125 550.808594 881.621094 545.667969 C 880.261719 538.097656 874.617188 532.011719 869.4375 530.761719 C 861.746094 528.90625 848.027344 535.332031 851.925781 544.171875 "/></g></g></g><g clip-rule="nonzero" clip-path="url(#bc3343b3fc)"><g clip-rule="nonzero" clip-path="url(#cbcb37a740)"><g clip-rule="nonzero" clip-path="url(#c434b9579a)"><path style=" stroke:none;fill-rule:nonzero;fill:#a5ab7f;fill-opacity:1;" d="M 823.417969 471.71875 C 826.703125 463.769531 820.8125 457.925781 812.871094 457.710938 C 807.144531 457.554688 792.410156 463.554688 796.488281 472.863281 C 804.070312 488.964844 820.289062 479.285156 823.417969 471.71875 Z M 859.324219 442.519531 C 864.769531 435.089844 863.292969 422.933594 852.28125 423.15625 C 846.820312 423.265625 842.707031 430.019531 836.410156 431.347656 C 832.011719 432.273438 823.945312 430.523438 820.769531 434.214844 C 814.847656 441.128906 816.246094 446.816406 820.433594 451.742188 C 824.125 456.082031 829.28125 459.273438 831.480469 463.59375 C 837.765625 475.957031 853.78125 484.339844 854.84375 465.164062 C 855.449219 454.3125 853.164062 450.90625 859.324219 442.519531 Z M 841.71875 416.304688 C 842.355469 408.0625 831.929688 391.890625 818.089844 401.902344 C 813.9375 404.90625 816.210938 411.15625 816.714844 415.015625 C 818.90625 431.828125 840.789062 428.359375 841.71875 416.304688 Z M 776.601562 437.4375 C 771.183594 442.769531 774.359375 448.78125 778.902344 452.554688 C 785.953125 458.417969 797.644531 457.550781 804.960938 451.398438 C 810.078125 447.085938 808.304688 442.046875 803.160156 438.722656 C 800.621094 437.074219 797.128906 435.988281 793.183594 435.546875 C 791.765625 435.378906 787.996094 434.855469 784.273438 434.871094 C 780.671875 434.894531 778.171875 435.886719 776.601562 437.4375 Z M 783.308594 418.0625 C 784.761719 422.972656 794.542969 430.046875 800.519531 431.375 C 809.195312 433.316406 812.800781 428.601562 812.5625 423.394531 C 812.199219 415.703125 807.386719 408.9375 802.414062 407.027344 C 795.035156 404.195312 780.589844 408.789062 783.308594 418.0625 "/></g></g></g><g clip-rule="nonzero" clip-path="url(#83b0ff8eb7)"><g clip-rule="nonzero" clip-path="url(#ac8c62fda9)"><g clip-rule="nonzero" clip-path="url(#c0ac20bcda)"><path style=" stroke:none;fill-rule:nonzero;fill:#a5ab7f;fill-opacity:1;" d="M 1094.679688 568.785156 C 1094.417969 560.1875 1086.648438 557.273438 1079.3125 560.332031 C 1074.03125 562.542969 1063.042969 574.0625 1070.59375 580.871094 C 1084.109375 592.453125 1094.929688 576.972656 1094.679688 568.785156 Z M 1115.453125 527.441406 C 1117.378906 518.429688 1111.042969 507.945312 1101.089844 512.664062 C 1096.160156 515 1095.179688 522.851562 1089.980469 526.640625 C 1086.34375 529.289062 1078.273438 531.003906 1076.890625 535.675781 C 1074.320312 544.40625 1077.925781 549.015625 1083.765625 551.789062 C 1088.914062 554.242188 1094.925781 555.039062 1098.703125 558.074219 C 1109.503906 566.769531 1127.546875 567.855469 1120.660156 549.925781 C 1116.765625 539.785156 1113.277344 537.605469 1115.453125 527.441406 Z M 1088.65625 510.746094 C 1085.851562 502.964844 1069.714844 492.492188 1061.199219 507.296875 C 1058.644531 511.742188 1063.277344 516.503906 1065.320312 519.824219 C 1074.210938 534.257812 1092.742188 522.121094 1088.65625 510.746094 Z M 1037.925781 556.71875 C 1035.167969 563.800781 1040.523438 567.980469 1046.214844 569.554688 C 1055.058594 572.015625 1065.367188 566.441406 1069.515625 557.824219 C 1072.410156 551.792969 1068.726562 547.929688 1062.679688 547.003906 C 1059.679688 546.546875 1056.054688 546.988281 1052.269531 548.191406 C 1050.914062 548.621094 1047.261719 549.6875 1043.875 551.230469 C 1040.589844 552.726562 1038.722656 554.664062 1037.925781 556.71875 Z M 1036.101562 536.289062 C 1039.433594 540.183594 1051.257812 542.621094 1057.25 541.378906 C 1065.964844 539.589844 1067.316406 533.820312 1064.96875 529.164062 C 1061.480469 522.300781 1054.316406 518.101562 1049 518.394531 C 1041.109375 518.839844 1029.816406 528.949219 1036.101562 536.289062 "/></g></g></g><g clip-rule="nonzero" clip-path="url(#24b88e9629)"><g clip-rule="nonzero" clip-path="url(#91211ff1fc)"><g clip-rule="nonzero" clip-path="url(#914f65d141)"><g clip-rule="nonzero" clip-path="url(#0b9941902a)"><path style=" stroke:none;fill-rule:nonzero;fill:#a5ab7f;fill-opacity:1;" d="M 990.5 473.378906 C 991.359375 464.820312 984.027344 460.929688 976.359375 463.015625 C 970.835938 464.515625 958.457031 474.515625 965.0625 482.246094 C 976.957031 495.476562 989.691406 481.527344 990.5 473.378906 Z M 1016.453125 435.0625 C 1019.527344 426.375 1014.601562 415.167969 1004.125 418.554688 C 998.933594 420.234375 996.941406 427.894531 991.292969 430.976562 C 987.34375 433.132812 979.125 433.785156 977.144531 438.246094 C 973.46875 446.566406 976.453125 451.609375 981.875 455.117188 C 986.671875 458.210938 992.527344 459.769531 995.875 463.273438 C 1005.464844 473.292969 1023.21875 476.707031 1018.710938 458.035156 C 1016.152344 447.476562 1012.980469 444.863281 1016.453125 435.0625 Z M 992.03125 415.046875 C 990.261719 406.964844 975.617188 394.496094 965.253906 408.074219 C 962.144531 412.148438 966.125 417.472656 967.714844 421.027344 C 974.675781 436.488281 994.617188 426.851562 992.03125 415.046875 Z M 935.78125 454.078125 C 932.140625 460.738281 936.914062 465.574219 942.34375 467.878906 C 950.796875 471.449219 961.738281 467.261719 966.96875 459.25 C 970.621094 453.640625 967.46875 449.339844 961.585938 447.636719 C 958.679688 446.796875 955.015625 446.761719 951.113281 447.464844 C 949.710938 447.722656 945.949219 448.3125 942.390625 449.398438 C 938.949219 450.460938 936.839844 452.136719 935.78125 454.078125 Z M 936.621094 433.582031 C 939.421875 437.871094 950.832031 441.820312 956.933594 441.367188 C 965.800781 440.710938 967.898438 435.164062 966.164062 430.238281 C 963.597656 422.992188 957.035156 417.894531 951.71875 417.503906 C 943.84375 416.921875 931.335938 425.492188 936.621094 433.582031 "/></g></g></g></g></g></svg>