<svg xmlns="http://www.w3.org/2000/svg" xmlns:xlink="http://www.w3.org/1999/xlink" width="500" zoomAndPan="magnify" viewBox="0 0 375 374.999991" height="500" preserveAspectRatio="xMidYMid meet" version="1.2"><defs><clipPath id="5f9574dd7e"><path d="M 11.101562 11.101562 L 363.601562 11.101562 L 363.601562 363.601562 L 11.101562 363.601562 Z M 11.101562 11.101562 "/></clipPath></defs><g id="578f82a5e1"><g clip-rule="nonzero" clip-path="url(#5f9574dd7e)"><path style=" stroke:none;fill-rule:nonzero;fill:#ffffff;fill-opacity:1;" d="M 311.976562 62.722656 C 278.691406 29.433594 234.429688 11.101562 187.351562 11.101562 C 140.269531 11.101562 96.011719 29.433594 62.722656 62.722656 C 29.433594 96.011719 11.101562 140.273438 11.101562 187.351562 C 11.101562 234.425781 29.433594 278.691406 62.722656 311.976562 C 96.011719 345.265625 140.269531 363.601562 187.351562 363.601562 C 234.429688 363.601562 278.691406 345.265625 311.976562 311.976562 C 345.265625 278.691406 363.601562 234.429688 363.601562 187.351562 C 363.601562 140.269531 345.265625 96.011719 311.976562 62.722656 Z M 311.976562 62.722656 "/></g><path style=" stroke:none;fill-rule:nonzero;fill:#ffffff;fill-opacity:1;" d="M 229.441406 103.636719 C 230.820312 105.015625 232.128906 106.460938 233.367188 107.964844 C 234.601562 109.472656 235.761719 111.039062 236.847656 112.65625 C 237.929688 114.277344 238.929688 115.949219 239.847656 117.667969 C 240.769531 119.386719 241.601562 121.148438 242.347656 122.949219 C 243.09375 124.75 243.75 126.582031 244.316406 128.449219 C 244.878906 130.316406 245.355469 132.203125 245.734375 134.117188 C 246.113281 136.027344 246.398438 137.953125 246.589844 139.894531 C 246.78125 141.835938 246.878906 143.78125 246.878906 145.730469 C 246.878906 147.679688 246.78125 149.625 246.589844 151.5625 C 246.398438 153.503906 246.113281 155.429688 245.734375 157.34375 C 245.355469 159.253906 244.878906 161.144531 244.316406 163.007812 C 243.75 164.875 243.09375 166.707031 242.347656 168.507812 C 241.601562 170.308594 240.769531 172.070312 239.847656 173.789062 C 238.929688 175.507812 237.929688 177.179688 236.847656 178.800781 C 235.761719 180.421875 234.601562 181.984375 233.367188 183.492188 C 232.128906 185 230.820312 186.441406 229.441406 187.820312 C 228.066406 189.199219 226.621094 190.507812 225.113281 191.742188 C 223.609375 192.980469 222.042969 194.140625 220.421875 195.222656 C 218.800781 196.304688 217.132812 197.308594 215.414062 198.226562 C 213.691406 199.144531 211.933594 199.976562 210.132812 200.722656 C 208.332031 201.46875 206.496094 202.125 204.632812 202.691406 C 202.765625 203.257812 200.875 203.730469 198.964844 204.109375 C 197.050781 204.492188 195.125 204.777344 193.1875 204.96875 C 191.246094 205.160156 189.300781 205.253906 187.351562 205.253906 C 185.402344 205.253906 183.457031 205.160156 181.515625 204.96875 C 179.578125 204.777344 177.652344 204.492188 175.738281 204.109375 C 173.828125 203.730469 171.9375 203.257812 170.074219 202.691406 C 168.207031 202.125 166.375 201.46875 164.574219 200.722656 C 162.769531 199.976562 161.011719 199.144531 159.292969 198.226562 C 157.570312 197.308594 155.902344 196.304688 154.28125 195.222656 C 152.660156 194.140625 151.097656 192.980469 149.589844 191.742188 C 148.082031 190.507812 146.640625 189.199219 145.261719 187.820312 C 143.882812 186.441406 142.574219 185 141.335938 183.492188 C 140.101562 181.984375 138.941406 180.421875 137.859375 178.800781 C 136.773438 177.179688 135.773438 175.507812 134.855469 173.789062 C 133.9375 172.070312 133.101562 170.308594 132.355469 168.507812 C 131.609375 166.707031 130.957031 164.875 130.390625 163.007812 C 129.824219 161.144531 129.351562 159.253906 128.96875 157.34375 C 128.589844 155.429688 128.304688 153.503906 128.113281 151.5625 C 127.921875 149.625 127.824219 147.679688 127.824219 145.730469 C 127.824219 143.78125 127.921875 141.835938 128.113281 139.894531 C 128.304688 137.953125 128.589844 136.027344 128.96875 134.117188 C 129.351562 132.203125 129.824219 130.316406 130.390625 128.449219 C 130.957031 126.582031 131.609375 124.75 132.355469 122.949219 C 133.101562 121.148438 133.9375 119.386719 134.855469 117.667969 C 135.773438 115.949219 136.773438 114.277344 137.859375 112.660156 C 138.941406 111.039062 140.101562 109.472656 141.335938 107.964844 C 142.574219 106.460938 143.882812 105.015625 145.261719 103.636719 C 146.640625 102.257812 148.082031 100.953125 149.589844 99.714844 C 151.097656 98.476562 152.660156 97.316406 154.28125 96.234375 C 155.902344 95.152344 157.574219 94.152344 159.292969 93.230469 C 161.011719 92.3125 162.769531 91.480469 164.574219 90.734375 C 166.375 89.988281 168.207031 89.332031 170.074219 88.765625 C 171.9375 88.199219 173.828125 87.726562 175.738281 87.347656 C 177.652344 86.964844 179.578125 86.679688 181.515625 86.488281 C 183.457031 86.296875 185.402344 86.203125 187.351562 86.203125 C 189.300781 86.203125 191.246094 86.296875 193.1875 86.488281 C 195.125 86.679688 197.054688 86.964844 198.964844 87.347656 C 200.875 87.726562 202.765625 88.199219 204.632812 88.765625 C 206.496094 89.332031 208.332031 89.988281 210.132812 90.734375 C 211.933594 91.480469 213.691406 92.3125 215.414062 93.230469 C 217.132812 94.152344 218.800781 95.152344 220.421875 96.234375 C 222.042969 97.316406 223.609375 98.476562 225.113281 99.714844 C 226.621094 100.953125 228.066406 102.257812 229.441406 103.636719 Z M 229.441406 103.636719 "/><path style=" stroke:none;fill-rule:nonzero;fill:#ffffff;fill-opacity:1;" d="M 189.070312 231.707031 L 185.632812 231.707031 C 136.996094 231.707031 96.035156 264.542969 83.691406 309.257812 C 111.644531 333.058594 147.84375 347.449219 187.351562 347.449219 C 226.855469 347.449219 263.058594 333.058594 291.007812 309.257812 C 278.664062 264.546875 237.710938 231.707031 189.070312 231.707031 Z M 189.070312 231.707031 "/></g></svg>