<svg xmlns="http://www.w3.org/2000/svg" xmlns:xlink="http://www.w3.org/1999/xlink" width="500" zoomAndPan="magnify" viewBox="0 0 375 374.999991" height="500" preserveAspectRatio="xMidYMid meet" version="1.2"><defs><clipPath id="ed271a713e"><path d="M 40.128906 188 L 334.878906 188 L 334.878906 371.535156 L 40.128906 371.535156 Z M 40.128906 188 "/></clipPath><clipPath id="4ffda582a9"><path d="M 107 3.285156 L 268 3.285156 L 268 163 L 107 163 Z M 107 3.285156 "/></clipPath></defs><g id="fff166bd58"><g clip-rule="nonzero" clip-path="url(#ed271a713e)"><path style=" stroke:none;fill-rule:nonzero;fill:#ffffff;fill-opacity:1;" d="M 187.429688 188.171875 C 185.019531 188.175781 182.609375 188.238281 180.203125 188.355469 C 177.796875 188.476562 175.394531 188.65625 172.996094 188.894531 C 170.597656 189.132812 168.207031 189.429688 165.824219 189.789062 C 163.4375 190.144531 161.066406 190.558594 158.703125 191.027344 C 156.339844 191.5 153.988281 192.03125 151.652344 192.617188 C 149.3125 193.207031 146.992188 193.847656 144.6875 194.550781 C 142.382812 195.25 140.09375 196.007812 137.824219 196.820312 C 135.558594 197.636719 133.308594 198.503906 131.082031 199.425781 C 128.859375 200.351562 126.65625 201.328125 124.476562 202.359375 C 122.300781 203.390625 120.148438 204.476562 118.023438 205.613281 C 115.898438 206.75 113.800781 207.9375 111.734375 209.175781 C 109.667969 210.417969 107.632812 211.707031 105.628906 213.046875 C 103.628906 214.386719 101.65625 215.773438 99.722656 217.207031 C 97.785156 218.644531 95.886719 220.128906 94.023438 221.65625 C 92.164062 223.183594 90.339844 224.757812 88.554688 226.378906 C 86.765625 227.996094 85.023438 229.65625 83.320312 231.363281 C 81.613281 233.066406 79.953125 234.8125 78.335938 236.597656 C 76.714844 238.382812 75.140625 240.207031 73.613281 242.070312 C 72.085938 243.929688 70.601562 245.832031 69.164062 247.765625 C 67.730469 249.699219 66.339844 251.671875 65.003906 253.675781 C 63.664062 255.675781 62.375 257.710938 61.132812 259.777344 C 59.894531 261.847656 58.707031 263.941406 57.570312 266.066406 C 56.433594 268.191406 55.347656 270.34375 54.316406 272.519531 C 53.285156 274.699219 52.308594 276.902344 51.382812 279.128906 C 50.460938 281.351562 49.59375 283.601562 48.777344 285.867188 C 47.964844 288.136719 47.207031 290.425781 46.507812 292.730469 C 45.804688 295.035156 45.160156 297.359375 44.574219 299.695312 C 43.988281 302.03125 43.457031 304.382812 42.984375 306.746094 C 42.511719 309.109375 42.101562 311.480469 41.742188 313.867188 C 41.386719 316.25 41.089844 318.640625 40.851562 321.039062 C 40.613281 323.4375 40.433594 325.839844 40.3125 328.246094 C 40.191406 330.652344 40.132812 333.0625 40.128906 335.472656 C 40.128906 336.097656 40.175781 336.71875 40.269531 337.339844 C 40.367188 337.957031 40.507812 338.566406 40.695312 339.164062 C 40.882812 339.761719 41.117188 340.339844 41.394531 340.902344 C 41.671875 341.464844 41.988281 342 42.347656 342.515625 C 42.707031 343.027344 43.101562 343.511719 43.535156 343.960938 C 43.96875 344.414062 44.433594 344.832031 44.929688 345.210938 C 45.425781 345.59375 45.949219 345.933594 46.5 346.238281 C 47.046875 346.539062 47.617188 346.796875 48.207031 347.007812 C 70.515625 355.121094 93.363281 361.238281 116.742188 365.355469 C 140.125 369.476562 163.6875 371.535156 187.429688 371.535156 C 211.167969 371.53125 234.730469 369.46875 258.113281 365.34375 C 281.492188 361.222656 304.339844 355.101562 326.648438 346.984375 C 327.238281 346.769531 327.808594 346.511719 328.355469 346.210938 C 328.90625 345.910156 329.429688 345.570312 329.925781 345.1875 C 330.421875 344.808594 330.886719 344.390625 331.320312 343.9375 C 331.753906 343.484375 332.148438 343.003906 332.507812 342.488281 C 332.867188 341.976562 333.183594 341.4375 333.460938 340.878906 C 333.738281 340.316406 333.972656 339.734375 334.160156 339.140625 C 334.347656 338.542969 334.488281 337.933594 334.585938 337.3125 C 334.679688 336.695312 334.726562 336.074219 334.726562 335.445312 C 334.722656 333.035156 334.660156 330.628906 334.539062 328.222656 C 334.417969 325.816406 334.238281 323.414062 334 321.015625 C 333.761719 318.617188 333.464844 316.226562 333.109375 313.84375 C 332.753906 311.460938 332.339844 309.085938 331.867188 306.722656 C 331.394531 304.363281 330.863281 302.011719 330.277344 299.675781 C 329.6875 297.335938 329.042969 295.015625 328.34375 292.710938 C 327.640625 290.40625 326.882812 288.117188 326.070312 285.851562 C 325.257812 283.582031 324.386719 281.335938 323.464844 279.109375 C 322.539062 276.882812 321.5625 274.683594 320.53125 272.503906 C 319.5 270.328125 318.414062 268.175781 317.277344 266.050781 C 316.140625 263.925781 314.953125 261.832031 313.714844 259.765625 C 312.472656 257.699219 311.183594 255.664062 309.84375 253.660156 C 308.503906 251.65625 307.117188 249.6875 305.679688 247.753906 C 304.246094 245.820312 302.761719 243.921875 301.234375 242.058594 C 299.703125 240.195312 298.132812 238.371094 296.511719 236.585938 C 294.894531 234.800781 293.234375 233.058594 291.527344 231.351562 C 289.824219 229.648438 288.078125 227.988281 286.292969 226.371094 C 284.507812 224.75 282.683594 223.179688 280.820312 221.648438 C 278.960938 220.121094 277.058594 218.636719 275.125 217.203125 C 273.191406 215.765625 271.21875 214.378906 269.21875 213.039062 C 267.214844 211.703125 265.179688 210.410156 263.113281 209.171875 C 261.046875 207.933594 258.949219 206.746094 256.824219 205.609375 C 254.699219 204.472656 252.550781 203.386719 250.371094 202.355469 C 248.195312 201.324219 245.992188 200.347656 243.765625 199.425781 C 241.539062 198.5 239.292969 197.632812 237.023438 196.820312 C 234.757812 196.007812 232.46875 195.25 230.164062 194.550781 C 227.859375 193.847656 225.539062 193.203125 223.199219 192.617188 C 220.863281 192.03125 218.511719 191.5 216.148438 191.027344 C 213.789062 190.554688 211.414062 190.144531 209.03125 189.785156 C 206.648438 189.429688 204.257812 189.132812 201.859375 188.894531 C 199.460938 188.65625 197.058594 188.476562 194.652344 188.355469 C 192.246094 188.238281 189.835938 188.175781 187.429688 188.171875 Z M 187.429688 188.171875 "/></g><g clip-rule="nonzero" clip-path="url(#4ffda582a9)"><path style=" stroke:none;fill-rule:nonzero;fill:#ffffff;fill-opacity:1;" d="M 267.214844 83.074219 C 267.214844 84.378906 267.183594 85.683594 267.117188 86.988281 C 267.054688 88.292969 266.957031 89.59375 266.832031 90.894531 C 266.703125 92.195312 266.542969 93.488281 266.351562 94.78125 C 266.160156 96.074219 265.9375 97.359375 265.683594 98.640625 C 265.425781 99.921875 265.140625 101.195312 264.824219 102.460938 C 264.507812 103.726562 264.160156 104.984375 263.777344 106.234375 C 263.398438 107.484375 262.992188 108.722656 262.550781 109.953125 C 262.109375 111.183594 261.640625 112.402344 261.140625 113.609375 C 260.640625 114.8125 260.113281 116.007812 259.554688 117.1875 C 258.996094 118.367188 258.410156 119.535156 257.792969 120.6875 C 257.179688 121.835938 256.535156 122.972656 255.863281 124.09375 C 255.191406 125.214844 254.492188 126.316406 253.769531 127.402344 C 253.042969 128.488281 252.292969 129.554688 251.511719 130.605469 C 250.734375 131.652344 249.933594 132.679688 249.105469 133.691406 C 248.277344 134.699219 247.421875 135.6875 246.546875 136.65625 C 245.667969 137.625 244.769531 138.570312 243.84375 139.492188 C 242.921875 140.414062 241.976562 141.316406 241.007812 142.191406 C 240.042969 143.070312 239.054688 143.921875 238.042969 144.75 C 237.035156 145.578125 236.003906 146.382812 234.957031 147.160156 C 233.90625 147.9375 232.839844 148.691406 231.753906 149.414062 C 230.667969 150.140625 229.566406 150.839844 228.445312 151.511719 C 227.328125 152.179688 226.191406 152.824219 225.039062 153.441406 C 223.886719 154.054688 222.722656 154.644531 221.542969 155.199219 C 220.359375 155.757812 219.167969 156.289062 217.960938 156.789062 C 216.753906 157.289062 215.535156 157.757812 214.308594 158.199219 C 213.078125 158.636719 211.839844 159.046875 210.589844 159.425781 C 209.339844 159.804688 208.082031 160.152344 206.816406 160.46875 C 205.546875 160.789062 204.273438 161.074219 202.992188 161.328125 C 201.710938 161.582031 200.425781 161.804688 199.136719 161.996094 C 197.84375 162.191406 196.546875 162.347656 195.25 162.476562 C 193.949219 162.605469 192.648438 162.703125 191.34375 162.765625 C 190.039062 162.828125 188.734375 162.863281 187.429688 162.863281 C 186.121094 162.863281 184.816406 162.828125 183.511719 162.765625 C 182.207031 162.703125 180.90625 162.605469 179.605469 162.476562 C 178.308594 162.347656 177.011719 162.191406 175.71875 161.996094 C 174.429688 161.804688 173.144531 161.582031 171.863281 161.328125 C 170.582031 161.074219 169.308594 160.789062 168.042969 160.46875 C 166.773438 160.152344 165.515625 159.804688 164.265625 159.425781 C 163.015625 159.046875 161.777344 158.636719 160.546875 158.199219 C 159.320312 157.757812 158.101562 157.289062 156.894531 156.789062 C 155.6875 156.289062 154.496094 155.757812 153.316406 155.199219 C 152.132812 154.644531 150.96875 154.054688 149.816406 153.441406 C 148.664062 152.824219 147.527344 152.179688 146.410156 151.511719 C 145.289062 150.839844 144.1875 150.140625 143.101562 149.414062 C 142.015625 148.691406 140.949219 147.9375 139.898438 147.160156 C 138.851562 146.382812 137.820312 145.578125 136.8125 144.75 C 135.800781 143.921875 134.8125 143.070312 133.847656 142.191406 C 132.878906 141.316406 131.933594 140.414062 131.011719 139.492188 C 130.085938 138.570312 129.1875 137.625 128.308594 136.65625 C 127.433594 135.6875 126.582031 134.699219 125.75 133.691406 C 124.921875 132.679688 124.121094 131.652344 123.34375 130.605469 C 122.566406 129.554688 121.8125 128.488281 121.085938 127.402344 C 120.363281 126.316406 119.664062 125.214844 118.992188 124.09375 C 118.320312 122.972656 117.675781 121.835938 117.0625 120.6875 C 116.445312 119.535156 115.859375 118.367188 115.300781 117.1875 C 114.742188 116.007812 114.214844 114.8125 113.714844 113.609375 C 113.214844 112.402344 112.746094 111.183594 112.304688 109.953125 C 111.863281 108.722656 111.457031 107.484375 111.078125 106.234375 C 110.699219 104.984375 110.347656 103.726562 110.03125 102.460938 C 109.714844 101.195312 109.429688 99.921875 109.175781 98.640625 C 108.917969 97.359375 108.695312 96.074219 108.503906 94.78125 C 108.3125 93.488281 108.152344 92.195312 108.023438 90.894531 C 107.898438 89.59375 107.800781 88.292969 107.738281 86.988281 C 107.671875 85.683594 107.640625 84.378906 107.640625 83.074219 C 107.640625 81.769531 107.671875 80.464844 107.738281 79.160156 C 107.800781 77.855469 107.898438 76.554688 108.023438 75.253906 C 108.152344 73.953125 108.3125 72.660156 108.503906 71.367188 C 108.695312 70.074219 108.917969 68.789062 109.175781 67.507812 C 109.429688 66.226562 109.714844 64.953125 110.03125 63.6875 C 110.347656 62.421875 110.699219 61.164062 111.078125 59.914062 C 111.457031 58.664062 111.863281 57.425781 112.304688 56.195312 C 112.746094 54.964844 113.214844 53.746094 113.714844 52.542969 C 114.214844 51.335938 114.742188 50.140625 115.300781 48.960938 C 115.859375 47.78125 116.445312 46.613281 117.0625 45.464844 C 117.675781 44.3125 118.320312 43.175781 118.992188 42.054688 C 119.664062 40.9375 120.363281 39.832031 121.085938 38.746094 C 121.8125 37.660156 122.566406 36.59375 123.34375 35.546875 C 124.121094 34.496094 124.921875 33.46875 125.75 32.457031 C 126.582031 31.449219 127.433594 30.460938 128.308594 29.492188 C 129.1875 28.527344 130.085938 27.582031 131.011719 26.65625 C 131.933594 25.734375 132.878906 24.832031 133.847656 23.957031 C 134.8125 23.078125 135.800781 22.226562 136.8125 21.398438 C 137.820312 20.570312 138.851562 19.765625 139.898438 18.988281 C 140.949219 18.210938 142.015625 17.460938 143.101562 16.734375 C 144.1875 16.007812 145.289062 15.308594 146.410156 14.640625 C 147.527344 13.96875 148.664062 13.324219 149.816406 12.707031 C 150.96875 12.09375 152.132812 11.507812 153.316406 10.949219 C 154.496094 10.390625 155.6875 9.859375 156.894531 9.359375 C 158.101562 8.863281 159.320312 8.390625 160.546875 7.953125 C 161.777344 7.511719 163.015625 7.101562 164.265625 6.722656 C 165.515625 6.34375 166.773438 5.996094 168.042969 5.679688 C 169.308594 5.363281 170.582031 5.074219 171.863281 4.820312 C 173.144531 4.566406 174.429688 4.34375 175.71875 4.152344 C 177.011719 3.960938 178.308594 3.800781 179.605469 3.671875 C 180.90625 3.542969 182.207031 3.449219 183.511719 3.382812 C 184.816406 3.320312 186.121094 3.289062 187.429688 3.289062 C 188.734375 3.289062 190.039062 3.320312 191.34375 3.382812 C 192.648438 3.449219 193.949219 3.542969 195.25 3.671875 C 196.546875 3.800781 197.84375 3.960938 199.136719 4.152344 C 200.425781 4.34375 201.710938 4.566406 202.992188 4.820312 C 204.273438 5.074219 205.546875 5.363281 206.816406 5.679688 C 208.082031 5.996094 209.339844 6.34375 210.589844 6.722656 C 211.839844 7.101562 213.078125 7.511719 214.308594 7.953125 C 215.535156 8.390625 216.753906 8.863281 217.960938 9.359375 C 219.167969 9.859375 220.359375 10.390625 221.542969 10.949219 C 222.722656 11.507812 223.886719 12.09375 225.039062 12.707031 C 226.191406 13.324219 227.328125 13.96875 228.445312 14.640625 C 229.566406 15.308594 230.667969 16.007812 231.753906 16.734375 C 232.839844 17.460938 233.90625 18.210938 234.957031 18.988281 C 236.003906 19.765625 237.035156 20.570312 238.042969 21.398438 C 239.054688 22.226562 240.042969 23.078125 241.007812 23.957031 C 241.976562 24.832031 242.921875 25.734375 243.84375 26.65625 C 244.769531 27.582031 245.667969 28.527344 246.546875 29.492188 C 247.421875 30.460938 248.277344 31.449219 249.105469 32.457031 C 249.933594 33.46875 250.734375 34.496094 251.511719 35.546875 C 252.292969 36.59375 253.042969 37.660156 253.769531 38.746094 C 254.492188 39.832031 255.191406 40.9375 255.863281 42.054688 C 256.535156 43.175781 257.179688 44.3125 257.792969 45.464844 C 258.410156 46.613281 258.996094 47.78125 259.554688 48.960938 C 260.113281 50.140625 260.640625 51.335938 261.140625 52.542969 C 261.640625 53.746094 262.109375 54.964844 262.550781 56.195312 C 262.992188 57.425781 263.398438 58.664062 263.777344 59.914062 C 264.160156 61.164062 264.507812 62.421875 264.824219 63.6875 C 265.140625 64.953125 265.425781 66.226562 265.683594 67.507812 C 265.9375 68.789062 266.160156 70.074219 266.351562 71.367188 C 266.542969 72.660156 266.703125 73.953125 266.832031 75.253906 C 266.957031 76.554688 267.054688 77.855469 267.117188 79.160156 C 267.183594 80.464844 267.214844 81.769531 267.214844 83.074219 Z M 267.214844 83.074219 "/></g></g></svg>