<svg xmlns="http://www.w3.org/2000/svg" xmlns:xlink="http://www.w3.org/1999/xlink" width="500" zoomAndPan="magnify" viewBox="0 0 375 374.999991" height="500" preserveAspectRatio="xMidYMid meet" version="1.2"><defs><clipPath id="6839b0ccce"><path d="M 10 11.644531 L 372 11.644531 L 372 360 L 10 360 Z M 10 11.644531 "/></clipPath></defs><g id="12cdc69b08"><g clip-rule="nonzero" clip-path="url(#6839b0ccce)"><path style=" stroke:none;fill-rule:nonzero;fill:#ffffff;fill-opacity:1;" d="M 253.234375 11.992188 C 252.472656 12 251.691406 12.039062 250.917969 12.097656 C 220.066406 17.421875 203.105469 50.042969 200.648438 78.8125 C 197.054688 104.914062 208.558594 138.464844 237.222656 144.316406 C 241.378906 145.105469 245.699219 144.746094 249.761719 143.640625 C 284.273438 132.070312 299.71875 91.195312 294.730469 57.335938 C 293.28125 35.46875 276.796875 11.6875 253.234375 11.988281 Z M 122.4375 13.390625 C 103.253906 13.859375 88.3125 33.316406 85.273438 51.605469 C 78.867188 87.835938 95.347656 132.859375 133.09375 144.320312 C 136.628906 145.085938 140.289062 145.167969 143.859375 144.613281 C 169.371094 140.363281 180.179688 111.757812 179.113281 88.664062 C 178.347656 58.203125 162.523438 22.980469 130.890625 14.414062 C 127.996094 13.648438 125.179688 13.324219 122.4375 13.394531 Z M 336.820312 116.300781 C 303.632812 118.285156 280.882812 151.394531 277.640625 182.3125 C 273.246094 204.613281 285.136719 234.4375 310.578125 236.21875 C 346.058594 235.78125 370.257812 197.871094 371.265625 165.253906 C 373.507812 143.679688 360.800781 117.492188 336.820312 116.300781 Z M 46.363281 123.648438 C 32.242188 123.527344 18.359375 131.980469 13.746094 146.332031 C 1.4375 184.722656 26.152344 233.347656 66.816406 241.414062 C 83.785156 244.320312 98.695312 231.289062 102.902344 215.605469 C 111.820312 182.070312 93.503906 143.125 62.507812 127.90625 C 57.460938 125.070312 51.886719 123.699219 46.363281 123.652344 Z M 195.128906 192.488281 C 167.453125 192.546875 139.339844 206.589844 121.417969 227.5 C 102.0625 251.867188 86.203125 280.226562 80 310.980469 C 72.464844 333.117188 89.546875 358.59375 113.210938 358.75 C 141.679688 359.539062 166.148438 339.988281 194.457031 338.539062 C 218.472656 334.875 239.980469 347.367188 261.574219 355.546875 C 279.960938 363.410156 305.363281 360.394531 314.75 340.609375 C 322.136719 320.441406 311.265625 298.9375 302.265625 281.027344 C 283.902344 251.957031 264.230469 221.402344 234.125 203.253906 C 222.058594 195.773438 208.648438 192.460938 195.128906 192.488281 Z M 195.128906 192.488281 "/></g></g></svg>