<svg xmlns="http://www.w3.org/2000/svg" xmlns:xlink="http://www.w3.org/1999/xlink" width="500" zoomAndPan="magnify" viewBox="0 0 375 374.999991" height="500" preserveAspectRatio="xMidYMid meet" version="1.2"><defs><clipPath id="2402cdc3ac"><path d="M 28.828125 311 L 75 311 L 75 375 L 28.828125 375 Z M 28.828125 311 "/></clipPath></defs><g id="e38e079bd4"><path style=" stroke:none;fill-rule:nonzero;fill:#a5ab7f;fill-opacity:1;" d="M 231.398438 218.285156 C 230.691406 219.007812 230.046875 219.785156 229.464844 220.609375 C 228.882812 221.4375 228.371094 222.304688 227.925781 223.210938 C 227.484375 224.121094 227.113281 225.058594 226.820312 226.023438 C 226.523438 226.992188 226.308594 227.976562 226.167969 228.976562 C 226.03125 229.976562 225.972656 230.984375 225.996094 231.996094 C 226.015625 233.003906 226.117188 234.007812 226.300781 235.003906 C 226.480469 235.996094 226.738281 236.96875 227.074219 237.921875 C 227.410156 238.875 227.820312 239.796875 228.304688 240.683594 L 228.613281 241.261719 C 229.171875 242.304688 229.824219 243.292969 230.566406 244.214844 C 231.308594 245.140625 232.132812 245.988281 233.03125 246.757812 C 233.933594 247.527344 234.898438 248.207031 235.925781 248.800781 C 236.953125 249.390625 238.027344 249.878906 239.148438 250.269531 C 240.265625 250.660156 241.414062 250.941406 242.585938 251.117188 C 243.757812 251.292969 244.9375 251.355469 246.121094 251.3125 C 247.304688 251.269531 248.476562 251.113281 249.632812 250.851562 C 250.789062 250.585938 251.910156 250.21875 252.996094 249.746094 L 257.820312 247.671875 C 259.164062 247.09375 260.5625 246.824219 262.023438 246.859375 C 263.480469 246.894531 264.867188 247.234375 266.175781 247.875 L 270.371094 249.925781 C 271.363281 250.414062 272.394531 250.808594 273.457031 251.117188 C 274.519531 251.425781 275.601562 251.640625 276.699219 251.761719 C 277.800781 251.882812 278.902344 251.90625 280.007812 251.835938 C 281.109375 251.765625 282.199219 251.597656 283.277344 251.339844 C 284.351562 251.078125 285.398438 250.726562 286.410156 250.285156 C 287.425781 249.84375 288.394531 249.320312 289.320312 248.710938 C 290.242188 248.097656 291.105469 247.414062 291.910156 246.65625 C 292.714844 245.894531 293.449219 245.074219 294.109375 244.183594 C 294.773438 243.296875 295.351562 242.363281 295.851562 241.375 C 296.351562 240.386719 296.761719 239.363281 297.082031 238.304688 C 297.402344 237.246094 297.632812 236.167969 297.765625 235.066406 C 297.898438 233.96875 297.9375 232.867188 297.882812 231.761719 C 297.824219 230.65625 297.671875 229.566406 297.425781 228.488281 C 297.179688 227.410156 296.84375 226.359375 296.414062 225.339844 C 295.984375 224.320312 295.472656 223.34375 294.875 222.410156 C 294.277344 221.480469 293.601562 220.609375 292.855469 219.792969 L 277.5 203.441406 C 276.996094 202.90625 276.46875 202.398438 275.917969 201.914062 C 275.363281 201.433594 274.785156 200.980469 274.1875 200.558594 C 273.585938 200.136719 272.96875 199.742188 272.328125 199.382812 C 271.6875 199.023438 271.03125 198.695312 270.359375 198.402344 C 269.6875 198.105469 269.003906 197.847656 268.304688 197.621094 C 267.605469 197.398438 266.898438 197.207031 266.179688 197.054688 C 265.460938 196.902344 264.738281 196.785156 264.007812 196.707031 C 263.28125 196.625 262.546875 196.582031 261.8125 196.578125 C 261.082031 196.570312 260.347656 196.605469 259.617188 196.671875 C 258.886719 196.738281 258.160156 196.84375 257.441406 196.988281 C 256.722656 197.128906 256.011719 197.304688 255.308594 197.519531 C 254.605469 197.734375 253.917969 197.984375 253.238281 198.265625 C 252.5625 198.550781 251.902344 198.867188 251.257812 199.21875 C 250.613281 199.566406 249.988281 199.949219 249.378906 200.363281 C 248.773438 200.777344 248.191406 201.21875 247.628906 201.691406 C 247.070312 202.164062 246.53125 202.664062 246.023438 203.191406 Z M 261.644531 205.691406 C 263.386719 205.695312 265.058594 206.042969 266.660156 206.734375 C 268.261719 207.429688 269.660156 208.410156 270.855469 209.679688 L 286.171875 225.992188 C 286.5625 226.417969 286.914062 226.875 287.222656 227.363281 C 287.535156 227.851562 287.800781 228.363281 288.023438 228.894531 C 288.246094 229.429688 288.421875 229.980469 288.550781 230.542969 C 288.675781 231.109375 288.753906 231.679688 288.785156 232.257812 C 288.8125 232.835938 288.789062 233.410156 288.71875 233.984375 C 288.648438 234.558594 288.527344 235.121094 288.359375 235.675781 C 288.191406 236.230469 287.972656 236.765625 287.710938 237.28125 C 287.449219 237.796875 287.144531 238.285156 286.800781 238.75 C 286.453125 239.210938 286.070312 239.640625 285.648438 240.039062 C 285.226562 240.433594 284.773438 240.792969 284.289062 241.109375 C 283.808594 241.429688 283.300781 241.703125 282.769531 241.933594 C 282.238281 242.164062 281.691406 242.347656 281.128906 242.484375 C 280.566406 242.617188 279.996094 242.703125 279.417969 242.742188 C 278.84375 242.777344 278.265625 242.765625 277.691406 242.703125 C 277.117188 242.636719 276.550781 242.527344 275.996094 242.363281 C 275.4375 242.203125 274.902344 241.996094 274.382812 241.742188 L 270.1875 239.691406 C 268.949219 239.085938 267.660156 238.617188 266.320312 238.289062 C 264.984375 237.960938 263.625 237.78125 262.25 237.75 C 260.871094 237.714844 259.503906 237.828125 258.152344 238.089844 C 256.800781 238.351562 255.488281 238.753906 254.222656 239.300781 L 249.398438 241.375 C 248.832031 241.621094 248.242188 241.816406 247.636719 241.953125 C 247.03125 242.089844 246.421875 242.171875 245.800781 242.195312 C 245.179688 242.21875 244.5625 242.183594 243.949219 242.09375 C 243.335938 242 242.734375 241.851562 242.148438 241.648438 C 241.5625 241.445312 241 241.1875 240.460938 240.878906 C 239.921875 240.570312 239.417969 240.214844 238.945312 239.808594 C 238.476562 239.40625 238.042969 238.964844 237.65625 238.480469 C 237.265625 237.996094 236.925781 237.480469 236.632812 236.933594 L 236.324219 236.355469 C 235.816406 235.421875 235.464844 234.429688 235.273438 233.378906 C 235.082031 232.332031 235.058594 231.28125 235.207031 230.226562 C 235.351562 229.171875 235.660156 228.167969 236.125 227.210938 C 236.59375 226.253906 237.199219 225.394531 237.941406 224.632812 L 252.566406 209.539062 C 253.761719 208.3125 255.144531 207.367188 256.71875 206.699219 C 258.292969 206.03125 259.933594 205.695312 261.644531 205.691406 Z M 261.644531 205.691406 "/><path style=" stroke:none;fill-rule:nonzero;fill:#a5ab7f;fill-opacity:1;" d="M 246.855469 160.53125 C 238.667969 160.53125 232.253906 168.535156 232.253906 178.757812 C 232.253906 188.984375 238.667969 196.988281 246.855469 196.988281 C 255.042969 196.988281 261.457031 188.984375 261.457031 178.757812 C 261.457031 168.535156 255.042969 160.53125 246.855469 160.53125 Z M 246.855469 187.867188 C 244.261719 187.867188 241.371094 184.125 241.371094 178.753906 C 241.371094 173.382812 244.261719 169.640625 246.855469 169.640625 C 249.449219 169.640625 252.339844 173.382812 252.339844 178.753906 C 252.339844 184.125 249.449219 187.867188 246.855469 187.867188 Z M 246.855469 187.867188 "/><path style=" stroke:none;fill-rule:nonzero;fill:#a5ab7f;fill-opacity:1;" d="M 276.617188 195.722656 C 284.800781 195.722656 291.214844 187.71875 291.214844 177.496094 C 291.214844 167.269531 284.800781 159.265625 276.617188 159.265625 C 268.429688 159.265625 262.015625 167.269531 262.015625 177.496094 C 262.015625 187.71875 268.429688 195.722656 276.617188 195.722656 Z M 276.617188 168.386719 C 279.210938 168.386719 282.101562 172.128906 282.101562 177.5 C 282.101562 182.875 279.210938 186.613281 276.617188 186.613281 C 274.019531 186.613281 271.132812 182.871094 271.132812 177.5 C 271.132812 172.128906 274.019531 168.386719 276.617188 168.386719 Z M 276.617188 168.386719 "/><path style=" stroke:none;fill-rule:nonzero;fill:#a5ab7f;fill-opacity:1;" d="M 294.761719 212.96875 C 295.882812 213.328125 297.03125 213.507812 298.207031 213.507812 C 299.640625 213.480469 301.03125 213.234375 302.386719 212.761719 C 303.738281 212.292969 304.984375 211.621094 306.121094 210.75 C 307.761719 209.488281 309.167969 208.007812 310.347656 206.308594 C 311.527344 204.609375 312.421875 202.769531 313.03125 200.792969 C 316 191.613281 312.621094 182.578125 305.34375 180.226562 C 298.066406 177.875 290.039062 183.222656 287.078125 192.402344 C 284.117188 201.582031 287.484375 210.617188 294.761719 212.96875 Z M 295.75 195.207031 C 297.027344 191.261719 299.835938 188.796875 301.867188 188.796875 C 302.101562 188.796875 302.324219 188.832031 302.546875 188.898438 C 304.578125 189.558594 305.789062 193.585938 304.363281 197.988281 C 303.714844 200.175781 302.496094 201.984375 300.71875 203.414062 C 300.050781 203.90625 298.753906 204.675781 297.574219 204.296875 C 295.53125 203.636719 294.324219 199.609375 295.746094 195.207031 Z M 295.75 195.207031 "/><path style=" stroke:none;fill-rule:nonzero;fill:#a5ab7f;fill-opacity:1;" d="M 235.667969 192.253906 C 234.960938 190.3125 233.976562 188.519531 232.710938 186.878906 C 231.449219 185.242188 229.964844 183.832031 228.265625 182.65625 C 224.609375 180.234375 220.4375 179.632812 216.8125 181.007812 C 209.660156 183.722656 206.738281 192.910156 210.160156 201.933594 C 210.867188 203.878906 211.851562 205.667969 213.113281 207.308594 C 214.378906 208.945312 215.859375 210.355469 217.5625 211.53125 C 219.808594 213.074219 222.296875 213.863281 225.019531 213.902344 C 226.394531 213.90625 227.726562 213.664062 229.015625 213.179688 C 236.167969 210.464844 239.089844 201.277344 235.667969 192.253906 Z M 225.78125 204.660156 C 224.625 205.101562 223.289062 204.394531 222.597656 203.933594 C 220.746094 202.597656 219.441406 200.851562 218.679688 198.699219 C 217.039062 194.371094 218.046875 190.289062 220.042969 189.53125 C 220.296875 189.4375 220.5625 189.390625 220.832031 189.390625 C 221.714844 189.453125 222.511719 189.738281 223.226562 190.253906 C 225.078125 191.589844 226.386719 193.335938 227.148438 195.488281 C 228.789062 199.816406 227.78125 203.898438 225.78125 204.660156 Z M 225.78125 204.660156 "/><path style=" stroke:none;fill-rule:nonzero;fill:#a5ab7f;fill-opacity:1;" d="M 341.261719 39.1875 L 307.027344 4.953125 C 306.441406 4.367188 305.804688 3.84375 305.117188 3.382812 C 304.425781 2.921875 303.699219 2.535156 302.933594 2.21875 C 302.167969 1.898438 301.378906 1.660156 300.5625 1.5 C 299.75 1.335938 298.929688 1.257812 298.101562 1.257812 C 297.273438 1.257812 296.449219 1.335938 295.636719 1.5 C 294.824219 1.660156 294.035156 1.898438 293.269531 2.21875 C 292.503906 2.535156 291.773438 2.921875 291.085938 3.382812 C 290.398438 3.84375 289.757812 4.367188 289.171875 4.953125 C 288.585938 5.539062 288.0625 6.179688 287.601562 6.867188 C 287.140625 7.558594 286.753906 8.285156 286.4375 9.050781 C 286.117188 9.816406 285.878906 10.605469 285.71875 11.417969 C 285.554688 12.230469 285.472656 13.054688 285.472656 13.882812 C 285.472656 14.710938 285.554688 15.53125 285.71875 16.34375 C 285.878906 17.160156 286.117188 17.949219 286.433594 18.714844 C 286.753906 19.480469 287.140625 20.207031 287.601562 20.898438 C 288.0625 21.585938 288.585938 22.222656 289.171875 22.808594 L 297.359375 31 L 272.519531 55.84375 L 254.46875 37.789062 C 253.84375 37.183594 253.167969 36.644531 252.4375 36.171875 C 251.707031 35.699219 250.9375 35.300781 250.132812 34.976562 C 249.324219 34.652344 248.492188 34.410156 247.640625 34.25 C 246.785156 34.085938 245.921875 34.011719 245.054688 34.015625 C 244.183594 34.023438 243.324219 34.113281 242.46875 34.289062 C 241.617188 34.464844 240.792969 34.71875 239.988281 35.054688 C 239.1875 35.390625 238.425781 35.800781 237.703125 36.285156 C 236.980469 36.769531 236.3125 37.320312 235.695312 37.933594 C 235.082031 38.546875 234.53125 39.21875 234.046875 39.941406 C 233.5625 40.660156 233.152344 41.425781 232.816406 42.226562 C 232.480469 43.027344 232.226562 43.855469 232.050781 44.707031 C 231.878906 45.558594 231.785156 46.421875 231.78125 47.289062 C 231.773438 48.160156 231.851562 49.019531 232.011719 49.875 C 232.175781 50.730469 232.417969 51.5625 232.738281 52.367188 C 233.0625 53.175781 233.460938 53.945312 233.9375 54.671875 C 234.410156 55.402344 234.949219 56.078125 235.554688 56.703125 L 236.488281 57.640625 L 124.066406 170.0625 C 123.460938 170.667969 122.910156 171.324219 122.421875 172.027344 C 121.929688 172.730469 121.5 173.46875 121.136719 174.246094 C 120.773438 175.019531 120.480469 175.824219 120.257812 176.648438 C 120.035156 177.476562 119.882812 178.316406 119.804688 179.171875 C 119.726562 180.023438 119.722656 180.878906 119.792969 181.730469 C 119.863281 182.585938 120.007812 183.429688 120.222656 184.257812 C 120.4375 185.085938 120.726562 185.890625 121.082031 186.671875 C 121.4375 187.449219 121.859375 188.191406 122.34375 188.898438 L 108.058594 203.1875 C 107.613281 203.628906 107.207031 204.105469 106.839844 204.609375 C 106.46875 205.117188 106.136719 205.648438 105.847656 206.203125 C 105.558594 206.757812 105.3125 207.332031 105.109375 207.925781 C 104.910156 208.519531 104.753906 209.125 104.640625 209.742188 C 104.53125 210.359375 104.46875 210.980469 104.453125 211.609375 C 104.4375 212.234375 104.46875 212.859375 104.550781 213.480469 C 104.628906 214.101562 104.753906 214.714844 104.925781 215.316406 C 105.097656 215.921875 105.316406 216.507812 105.578125 217.078125 L 87.21875 235.433594 C 86.585938 236.070312 86.003906 236.753906 85.480469 237.488281 C 84.957031 238.21875 84.496094 238.984375 84.09375 239.789062 C 83.695312 240.597656 83.363281 241.429688 83.097656 242.289062 C 82.832031 243.148438 82.636719 244.023438 82.511719 244.914062 C 82.390625 245.804688 82.335938 246.699219 82.359375 247.597656 C 82.378906 248.496094 82.472656 249.386719 82.636719 250.273438 C 82.800781 251.15625 83.039062 252.019531 83.34375 252.867188 C 83.648438 253.714844 84.019531 254.527344 84.457031 255.316406 L 43.265625 296.503906 C 43.054688 296.71875 42.863281 296.949219 42.699219 297.195312 C 42.53125 297.445312 42.390625 297.707031 42.277344 297.984375 C 42.164062 298.261719 42.078125 298.546875 42.019531 298.839844 C 41.960938 299.132812 41.929688 299.429688 41.929688 299.730469 C 41.929688 300.027344 41.960938 300.324219 42.019531 300.617188 C 42.078125 300.910156 42.164062 301.195312 42.277344 301.472656 C 42.390625 301.75 42.53125 302.011719 42.699219 302.261719 C 42.863281 302.507812 43.054688 302.738281 43.265625 302.949219 C 43.476562 303.164062 43.707031 303.351562 43.957031 303.519531 C 44.203125 303.683594 44.46875 303.824219 44.742188 303.9375 C 45.019531 304.054688 45.304688 304.140625 45.597656 304.199219 C 45.890625 304.257812 46.1875 304.285156 46.488281 304.285156 C 46.789062 304.285156 47.082031 304.257812 47.378906 304.199219 C 47.671875 304.140625 47.957031 304.054688 48.230469 303.9375 C 48.507812 303.824219 48.769531 303.683594 49.019531 303.515625 C 49.269531 303.351562 49.5 303.164062 49.710938 302.949219 L 90.902344 261.761719 C 91.6875 262.199219 92.503906 262.570312 93.347656 262.875 C 94.195312 263.183594 95.058594 263.417969 95.941406 263.582031 C 96.828125 263.75 97.71875 263.84375 98.617188 263.863281 C 99.519531 263.886719 100.414062 263.832031 101.304688 263.710938 C 102.195312 263.585938 103.070312 263.390625 103.929688 263.125 C 104.789062 262.859375 105.621094 262.527344 106.425781 262.125 C 107.230469 261.726562 108 261.261719 108.730469 260.738281 C 109.460938 260.210938 110.144531 259.632812 110.78125 258.996094 L 129.140625 240.636719 C 129.710938 240.898438 130.296875 241.117188 130.898438 241.292969 C 131.5 241.464844 132.113281 241.589844 132.734375 241.671875 C 133.355469 241.75 133.980469 241.78125 134.609375 241.765625 C 135.234375 241.753906 135.855469 241.6875 136.472656 241.578125 C 137.089844 241.46875 137.695312 241.3125 138.289062 241.109375 C 138.882812 240.90625 139.457031 240.660156 140.015625 240.371094 C 140.570312 240.082031 141.101562 239.75 141.605469 239.378906 C 142.113281 239.007812 142.585938 238.601562 143.03125 238.15625 L 157.3125 223.871094 C 158.019531 224.355469 158.761719 224.777344 159.542969 225.136719 C 160.324219 225.492188 161.125 225.777344 161.957031 225.996094 C 162.785156 226.210938 163.628906 226.355469 164.480469 226.425781 C 165.335938 226.496094 166.191406 226.492188 167.042969 226.414062 C 167.898438 226.335938 168.738281 226.1875 169.566406 225.960938 C 170.394531 225.738281 171.195312 225.445312 171.972656 225.082031 C 172.746094 224.71875 173.488281 224.289062 174.1875 223.796875 C 174.890625 223.304688 175.542969 222.757812 176.152344 222.152344 L 185.84375 212.457031 C 185.953125 213.648438 186.089844 214.832031 186.253906 216.015625 C 186.417969 217.199219 186.609375 218.378906 186.828125 219.550781 C 187.050781 220.722656 187.296875 221.890625 187.570312 223.054688 C 187.847656 224.214844 188.148438 225.371094 188.476562 226.519531 C 188.808594 227.667969 189.164062 228.804688 189.546875 229.9375 C 189.929688 231.066406 190.339844 232.1875 190.777344 233.300781 C 191.214844 234.410156 191.675781 235.511719 192.164062 236.601562 C 192.652344 237.691406 193.164062 238.769531 193.703125 239.835938 C 194.242188 240.898438 194.808594 241.953125 195.394531 242.992188 C 195.984375 244.03125 196.597656 245.054688 197.234375 246.0625 C 197.871094 247.074219 198.53125 248.070312 199.214844 249.046875 C 199.898438 250.027344 200.605469 250.988281 201.335938 251.933594 C 202.066406 252.878906 202.816406 253.804688 203.589844 254.714844 C 204.363281 255.625 205.15625 256.515625 205.972656 257.390625 C 206.789062 258.261719 207.625 259.113281 208.480469 259.949219 C 209.335938 260.78125 210.210938 261.59375 211.101562 262.386719 C 211.996094 263.175781 212.910156 263.945312 213.839844 264.695312 C 214.769531 265.445312 215.714844 266.171875 216.679688 266.875 C 217.644531 267.578125 218.625 268.257812 219.621094 268.917969 C 220.621094 269.574219 221.632812 270.207031 222.65625 270.820312 C 223.683594 271.429688 224.722656 272.015625 225.777344 272.574219 C 226.832031 273.136719 227.898438 273.671875 228.980469 274.179688 C 230.058594 274.691406 231.148438 275.175781 232.25 275.636719 C 233.355469 276.09375 234.464844 276.527344 235.589844 276.933594 C 236.710938 277.339844 237.84375 277.71875 238.984375 278.074219 C 240.125 278.425781 241.273438 278.75 242.429688 279.050781 C 243.585938 279.347656 244.75 279.621094 245.917969 279.863281 C 247.085938 280.109375 248.261719 280.324219 249.4375 280.511719 C 250.617188 280.703125 251.800781 280.863281 252.988281 280.996094 C 254.175781 281.128906 255.363281 281.230469 256.554688 281.308594 C 257.746094 281.386719 258.941406 281.433594 260.132812 281.453125 C 261.328125 281.472656 262.519531 281.464844 263.714844 281.429688 C 264.90625 281.394531 266.101562 281.328125 267.289062 281.238281 C 268.480469 281.144531 269.667969 281.023438 270.851562 280.875 C 272.039062 280.726562 273.21875 280.550781 274.394531 280.347656 C 275.570312 280.144531 276.742188 279.910156 277.910156 279.652344 C 279.074219 279.390625 280.234375 279.105469 281.382812 278.792969 C 282.535156 278.476562 283.679688 278.136719 284.816406 277.769531 C 285.953125 277.398438 287.078125 277.003906 288.195312 276.582031 C 289.3125 276.164062 290.421875 275.714844 291.515625 275.242188 C 292.613281 274.769531 293.695312 274.269531 294.769531 273.742188 C 295.84375 273.21875 296.902344 272.667969 297.949219 272.09375 C 298.996094 271.519531 300.027344 270.921875 301.046875 270.296875 C 302.0625 269.675781 303.066406 269.027344 304.054688 268.355469 C 305.042969 267.683594 306.015625 266.992188 306.96875 266.273438 C 307.925781 265.558594 308.863281 264.820312 309.78125 264.058594 C 310.703125 263.296875 311.605469 262.515625 312.488281 261.710938 C 313.371094 260.90625 314.234375 260.085938 315.078125 259.238281 C 315.921875 258.394531 316.746094 257.53125 317.550781 256.648438 C 318.355469 255.765625 319.136719 254.863281 319.898438 253.945312 C 320.660156 253.023438 321.398438 252.085938 322.113281 251.132812 C 322.832031 250.175781 323.523438 249.203125 324.195312 248.21875 C 324.867188 247.230469 325.515625 246.226562 326.136719 245.207031 C 326.761719 244.1875 327.359375 243.15625 327.933594 242.109375 C 328.511719 241.0625 329.058594 240.003906 329.585938 238.933594 C 330.109375 237.859375 330.609375 236.773438 331.082031 235.679688 C 331.554688 234.582031 332.003906 233.476562 332.425781 232.359375 C 332.847656 231.242188 333.242188 230.113281 333.609375 228.980469 C 333.976562 227.84375 334.320312 226.699219 334.632812 225.546875 C 334.949219 224.394531 335.234375 223.238281 335.492188 222.070312 C 335.753906 220.90625 335.984375 219.734375 336.191406 218.558594 C 336.394531 217.382812 336.570312 216.199219 336.71875 215.015625 C 336.867188 213.832031 336.988281 212.644531 337.082031 211.453125 C 337.171875 210.261719 337.238281 209.070312 337.273438 207.878906 C 337.308594 206.683594 337.316406 205.488281 337.296875 204.296875 C 337.277344 203.101562 337.230469 201.910156 337.152344 200.71875 C 337.074219 199.527344 336.972656 198.335938 336.839844 197.152344 C 336.707031 195.964844 336.546875 194.78125 336.355469 193.601562 C 336.167969 192.421875 335.953125 191.25 335.710938 190.078125 C 335.464844 188.910156 335.195312 187.75 334.894531 186.59375 C 334.597656 185.4375 334.269531 184.289062 333.917969 183.148438 C 333.566406 182.007812 333.183594 180.875 332.777344 179.75 C 332.371094 178.628906 331.941406 177.515625 331.480469 176.414062 C 331.023438 175.3125 330.539062 174.222656 330.027344 173.140625 C 329.515625 172.0625 328.980469 170.996094 328.421875 169.941406 C 327.859375 168.886719 327.273438 167.847656 326.664062 166.820312 C 326.054688 165.792969 325.421875 164.78125 324.765625 163.785156 C 324.105469 162.789062 323.425781 161.808594 322.722656 160.84375 C 322.019531 159.878906 321.292969 158.929688 320.542969 158 C 319.792969 157.070312 319.023438 156.15625 318.234375 155.265625 C 317.441406 154.371094 316.628906 153.496094 315.796875 152.640625 C 314.964844 151.785156 314.109375 150.949219 313.238281 150.132812 C 312.367188 149.316406 311.472656 148.523438 310.566406 147.75 C 309.65625 146.976562 308.726562 146.226562 307.78125 145.496094 C 306.835938 144.765625 305.875 144.058594 304.894531 143.375 C 303.917969 142.691406 302.921875 142.03125 301.914062 141.394531 C 300.902344 140.757812 299.878906 140.144531 298.839844 139.554688 C 297.800781 138.964844 296.75 138.402344 295.683594 137.863281 C 294.617188 137.324219 293.539062 136.8125 292.449219 136.324219 C 291.363281 135.835938 290.261719 135.371094 289.148438 134.9375 C 288.039062 134.5 286.917969 134.089844 285.785156 133.707031 C 284.65625 133.324219 283.515625 132.964844 282.367188 132.636719 C 281.21875 132.308594 280.066406 132.003906 278.902344 131.730469 C 277.742188 131.453125 276.574219 131.207031 275.398438 130.988281 C 274.226562 130.765625 273.046875 130.574219 271.867188 130.410156 C 270.683594 130.246094 269.496094 130.109375 268.308594 130 L 288.578125 109.734375 L 289.511719 110.667969 C 290.132812 111.273438 290.8125 111.8125 291.539062 112.285156 C 292.269531 112.757812 293.039062 113.15625 293.847656 113.480469 C 294.652344 113.804688 295.484375 114.046875 296.339844 114.207031 C 297.191406 114.371094 298.054688 114.449219 298.925781 114.441406 C 299.792969 114.433594 300.65625 114.34375 301.507812 114.167969 C 302.359375 113.996094 303.1875 113.738281 303.988281 113.402344 C 304.789062 113.066406 305.550781 112.65625 306.273438 112.171875 C 306.996094 111.6875 307.664062 111.140625 308.28125 110.523438 C 308.894531 109.910156 309.445312 109.242188 309.929688 108.519531 C 310.414062 107.796875 310.824219 107.035156 311.160156 106.230469 C 311.496094 105.429688 311.75 104.601562 311.925781 103.75 C 312.101562 102.898438 312.191406 102.039062 312.199219 101.167969 C 312.203125 100.296875 312.125 99.4375 311.964844 98.582031 C 311.804688 97.726562 311.5625 96.898438 311.238281 96.089844 C 310.914062 95.28125 310.515625 94.515625 310.042969 93.785156 C 309.566406 93.054688 309.027344 92.378906 308.421875 91.753906 L 290.375 73.699219 L 315.21875 48.855469 L 323.40625 57.042969 C 323.992188 57.628906 324.632812 58.152344 325.320312 58.613281 C 326.011719 59.070312 326.738281 59.460938 327.503906 59.777344 C 328.269531 60.09375 329.058594 60.332031 329.871094 60.492188 C 330.683594 60.65625 331.503906 60.734375 332.335938 60.734375 C 333.164062 60.734375 333.984375 60.65625 334.796875 60.492188 C 335.609375 60.332031 336.398438 60.09375 337.164062 59.777344 C 337.929688 59.460938 338.660156 59.070312 339.347656 58.613281 C 340.039062 58.152344 340.675781 57.628906 341.261719 57.042969 C 341.847656 56.457031 342.371094 55.820312 342.828125 55.128906 C 343.289062 54.441406 343.679688 53.710938 343.996094 52.945312 C 344.3125 52.179688 344.550781 51.390625 344.710938 50.578125 C 344.875 49.765625 344.953125 48.945312 344.953125 48.117188 C 344.953125 47.289062 344.875 46.464844 344.710938 45.652344 C 344.550781 44.839844 344.3125 44.050781 343.996094 43.285156 C 343.679688 42.519531 343.289062 41.792969 342.832031 41.101562 C 342.371094 40.414062 341.847656 39.773438 341.261719 39.1875 Z M 104.335938 252.550781 C 103.984375 252.90625 103.605469 253.222656 103.191406 253.5 C 102.78125 253.777344 102.347656 254.011719 101.886719 254.207031 C 101.429688 254.398438 100.957031 254.542969 100.46875 254.640625 C 99.980469 254.742188 99.488281 254.789062 98.992188 254.792969 C 98.496094 254.792969 98 254.746094 97.515625 254.648438 C 97.027344 254.554688 96.550781 254.410156 96.09375 254.222656 C 95.632812 254.03125 95.195312 253.800781 94.78125 253.523438 C 94.367188 253.246094 93.984375 252.933594 93.632812 252.582031 C 93.28125 252.230469 92.96875 251.847656 92.691406 251.433594 C 92.417969 251.019531 92.183594 250.582031 91.996094 250.125 C 91.804688 249.664062 91.664062 249.191406 91.566406 248.703125 C 91.46875 248.214844 91.421875 247.722656 91.425781 247.226562 C 91.425781 246.726562 91.476562 246.234375 91.574219 245.75 C 91.671875 245.261719 91.820312 244.789062 92.011719 244.328125 C 92.203125 243.871094 92.4375 243.433594 92.714844 243.023438 C 92.996094 242.609375 93.3125 242.230469 93.664062 241.878906 L 111.46875 224.078125 L 122.140625 234.746094 Z M 136.585938 231.714844 C 136.28125 232.015625 135.929688 232.25 135.53125 232.414062 C 135.132812 232.578125 134.71875 232.660156 134.289062 232.660156 C 133.859375 232.660156 133.445312 232.578125 133.050781 232.414062 C 132.652344 232.25 132.300781 232.015625 131.996094 231.714844 L 114.5 214.21875 C 114.199219 213.914062 113.964844 213.5625 113.800781 213.167969 C 113.636719 212.769531 113.554688 212.355469 113.554688 211.925781 C 113.554688 211.496094 113.636719 211.082031 113.800781 210.683594 C 113.964844 210.285156 114.199219 209.933594 114.5 209.628906 L 128.605469 195.527344 L 150.6875 217.609375 Z M 328.195312 205.578125 C 328.195312 206.671875 328.167969 207.761719 328.113281 208.855469 C 328.0625 209.945312 327.980469 211.035156 327.875 212.121094 C 327.765625 213.210938 327.632812 214.292969 327.472656 215.375 C 327.3125 216.457031 327.125 217.53125 326.914062 218.605469 C 326.699219 219.675781 326.460938 220.742188 326.195312 221.800781 C 325.929688 222.863281 325.636719 223.914062 325.320312 224.960938 C 325.003906 226.007812 324.660156 227.042969 324.292969 228.074219 C 323.925781 229.101562 323.53125 230.121094 323.113281 231.132812 C 322.695312 232.140625 322.25 233.140625 321.785156 234.128906 C 321.316406 235.117188 320.824219 236.089844 320.3125 237.054688 C 319.796875 238.019531 319.257812 238.96875 318.695312 239.90625 C 318.132812 240.84375 317.550781 241.765625 316.941406 242.675781 C 316.335938 243.585938 315.707031 244.476562 315.054688 245.355469 C 314.402344 246.234375 313.730469 247.09375 313.039062 247.9375 C 312.34375 248.785156 311.632812 249.609375 310.898438 250.421875 C 310.164062 251.230469 309.410156 252.023438 308.636719 252.792969 C 307.863281 253.566406 307.074219 254.320312 306.261719 255.054688 C 305.453125 255.789062 304.625 256.503906 303.78125 257.195312 C 302.9375 257.886719 302.074219 258.5625 301.199219 259.210938 C 300.320312 259.863281 299.425781 260.492188 298.519531 261.097656 C 297.609375 261.707031 296.6875 262.289062 295.75 262.851562 C 294.8125 263.414062 293.863281 263.953125 292.898438 264.46875 C 291.933594 264.984375 290.957031 265.472656 289.96875 265.941406 C 288.980469 266.410156 287.984375 266.851562 286.972656 267.269531 C 285.964844 267.6875 284.945312 268.082031 283.917969 268.449219 C 282.886719 268.816406 281.851562 269.160156 280.804688 269.476562 C 279.757812 269.792969 278.707031 270.085938 277.644531 270.351562 C 276.585938 270.617188 275.519531 270.855469 274.449219 271.070312 C 273.375 271.28125 272.300781 271.46875 271.21875 271.628906 C 270.136719 271.789062 269.054688 271.925781 267.964844 272.03125 C 266.878906 272.136719 265.789062 272.21875 264.695312 272.273438 C 263.605469 272.324219 262.511719 272.351562 261.421875 272.351562 C 260.328125 272.351562 259.234375 272.324219 258.144531 272.273438 C 257.050781 272.21875 255.960938 272.136719 254.875 272.03125 C 253.789062 271.925781 252.703125 271.789062 251.621094 271.628906 C 250.542969 271.46875 249.464844 271.28125 248.394531 271.070312 C 247.320312 270.855469 246.253906 270.617188 245.195312 270.351562 C 244.136719 270.085938 243.082031 269.792969 242.035156 269.476562 C 240.992188 269.160156 239.953125 268.816406 238.925781 268.449219 C 237.894531 268.082031 236.875 267.6875 235.867188 267.269531 C 234.855469 266.851562 233.859375 266.410156 232.871094 265.941406 C 231.882812 265.472656 230.90625 264.984375 229.941406 264.46875 C 228.980469 263.953125 228.027344 263.414062 227.089844 262.851562 C 226.152344 262.289062 225.230469 261.707031 224.320312 261.097656 C 223.414062 260.492188 222.519531 259.863281 221.640625 259.210938 C 220.765625 258.5625 219.902344 257.886719 219.058594 257.195312 C 218.214844 256.503906 217.386719 255.789062 216.578125 255.054688 C 215.765625 254.320312 214.976562 253.566406 214.203125 252.792969 C 213.429688 252.023438 212.675781 251.230469 211.941406 250.421875 C 211.210938 249.609375 210.496094 248.785156 209.800781 247.9375 C 209.109375 247.09375 208.4375 246.234375 207.785156 245.355469 C 207.136719 244.476562 206.507812 243.585938 205.898438 242.675781 C 205.292969 241.765625 204.707031 240.84375 204.144531 239.90625 C 203.582031 238.96875 203.046875 238.019531 202.53125 237.054688 C 202.015625 236.089844 201.523438 235.117188 201.054688 234.128906 C 200.589844 233.140625 200.144531 232.140625 199.726562 231.132812 C 199.308594 230.121094 198.917969 229.101562 198.546875 228.074219 C 198.179688 227.042969 197.835938 226.007812 197.519531 224.960938 C 197.203125 223.914062 196.910156 222.863281 196.644531 221.800781 C 196.378906 220.742188 196.140625 219.675781 195.929688 218.605469 C 195.714844 217.53125 195.527344 216.457031 195.367188 215.375 C 195.207031 214.292969 195.074219 213.210938 194.964844 212.121094 C 194.859375 211.035156 194.777344 209.945312 194.726562 208.855469 C 194.671875 207.761719 194.644531 206.671875 194.644531 205.578125 C 194.644531 204.484375 194.671875 203.390625 194.726562 202.300781 C 194.777344 201.210938 194.859375 200.121094 194.964844 199.03125 C 195.074219 197.945312 195.207031 196.859375 195.367188 195.78125 C 195.527344 194.699219 195.714844 193.621094 195.929688 192.550781 C 196.140625 191.476562 196.378906 190.414062 196.644531 189.351562 C 196.910156 188.292969 197.203125 187.238281 197.519531 186.195312 C 197.835938 185.148438 198.179688 184.109375 198.546875 183.082031 C 198.917969 182.050781 199.308594 181.035156 199.726562 180.023438 C 200.144531 179.015625 200.589844 178.015625 201.054688 177.027344 C 201.523438 176.039062 202.015625 175.0625 202.53125 174.101562 C 203.046875 173.136719 203.582031 172.1875 204.144531 171.25 C 204.707031 170.3125 205.292969 169.386719 205.898438 168.480469 C 206.507812 167.570312 207.136719 166.675781 207.785156 165.800781 C 208.4375 164.921875 209.109375 164.0625 209.800781 163.214844 C 210.496094 162.371094 211.210938 161.542969 211.941406 160.734375 C 212.675781 159.925781 213.429688 159.132812 214.203125 158.359375 C 214.976562 157.585938 215.765625 156.835938 216.578125 156.101562 C 217.386719 155.367188 218.214844 154.652344 219.058594 153.960938 C 219.902344 153.265625 220.765625 152.59375 221.640625 151.941406 C 222.519531 151.292969 223.414062 150.664062 224.320312 150.054688 C 225.230469 149.449219 226.152344 148.863281 227.089844 148.300781 C 228.027344 147.742188 228.980469 147.203125 229.941406 146.6875 C 230.90625 146.171875 231.882812 145.679688 232.871094 145.214844 C 233.859375 144.746094 234.855469 144.304688 235.867188 143.886719 C 236.875 143.46875 237.894531 143.074219 238.925781 142.707031 C 239.953125 142.335938 240.992188 141.996094 242.035156 141.675781 C 243.082031 141.359375 244.136719 141.070312 245.195312 140.804688 C 246.253906 140.539062 247.320312 140.296875 248.394531 140.085938 C 249.464844 139.871094 250.542969 139.683594 251.621094 139.523438 C 252.703125 139.363281 253.789062 139.230469 254.875 139.125 C 255.960938 139.015625 257.050781 138.9375 258.144531 138.882812 C 259.234375 138.828125 260.328125 138.800781 261.421875 138.800781 C 262.511719 138.804688 263.605469 138.832031 264.695312 138.886719 C 265.785156 138.941406 266.875 139.023438 267.964844 139.128906 C 269.050781 139.238281 270.132812 139.375 271.214844 139.535156 C 272.296875 139.695312 273.371094 139.882812 274.441406 140.097656 C 275.511719 140.3125 276.578125 140.550781 277.636719 140.816406 C 278.699219 141.085938 279.75 141.375 280.796875 141.695312 C 281.839844 142.011719 282.878906 142.355469 283.90625 142.722656 C 284.933594 143.09375 285.953125 143.488281 286.960938 143.90625 C 287.972656 144.324219 288.96875 144.765625 289.957031 145.234375 C 290.945312 145.703125 291.917969 146.195312 292.882812 146.710938 C 293.847656 147.226562 294.796875 147.761719 295.734375 148.324219 C 296.671875 148.886719 297.59375 149.472656 298.5 150.078125 C 299.410156 150.6875 300.300781 151.316406 301.179688 151.964844 C 302.054688 152.617188 302.917969 153.289062 303.761719 153.984375 C 304.605469 154.675781 305.433594 155.390625 306.242188 156.121094 C 307.050781 156.855469 307.84375 157.609375 308.617188 158.382812 C 309.386719 159.15625 310.140625 159.945312 310.875 160.753906 C 311.609375 161.566406 312.320312 162.390625 313.015625 163.234375 C 313.707031 164.082031 314.378906 164.941406 315.03125 165.820312 C 315.683594 166.695312 316.3125 167.589844 316.917969 168.496094 C 317.527344 169.40625 318.109375 170.328125 318.671875 171.265625 C 319.234375 172.203125 319.773438 173.152344 320.289062 174.113281 C 320.804688 175.078125 321.296875 176.054688 321.761719 177.039062 C 322.230469 178.027344 322.671875 179.027344 323.09375 180.035156 C 323.511719 181.042969 323.90625 182.0625 324.273438 183.089844 C 324.640625 184.121094 324.984375 185.15625 325.304688 186.203125 C 325.621094 187.246094 325.914062 188.300781 326.179688 189.359375 C 326.445312 190.417969 326.6875 191.484375 326.898438 192.554688 C 327.113281 193.625 327.300781 194.703125 327.460938 195.785156 C 327.625 196.863281 327.757812 197.949219 327.867188 199.035156 C 327.976562 200.121094 328.058594 201.210938 328.113281 202.300781 C 328.167969 203.394531 328.195312 204.484375 328.195312 205.578125 Z M 255.503906 129.917969 C 253.273438 130.09375 251.058594 130.371094 248.851562 130.742188 C 246.644531 131.117188 244.460938 131.585938 242.296875 132.152344 C 240.132812 132.71875 237.996094 133.378906 235.890625 134.132812 C 233.78125 134.886719 231.714844 135.734375 229.683594 136.671875 C 227.652344 137.609375 225.664062 138.632812 223.722656 139.746094 C 221.78125 140.859375 219.894531 142.054688 218.058594 143.335938 C 216.222656 144.617188 214.449219 145.972656 212.734375 147.410156 C 211.019531 148.847656 209.371094 150.355469 207.789062 151.9375 C 206.207031 153.519531 204.695312 155.167969 203.257812 156.882812 C 201.824219 158.597656 200.464844 160.375 199.183594 162.207031 C 197.90625 164.042969 196.707031 165.933594 195.59375 167.871094 C 194.480469 169.8125 193.457031 171.800781 192.519531 173.832031 C 191.582031 175.863281 190.734375 177.929688 189.980469 180.039062 C 189.226562 182.144531 188.5625 184.277344 187.996094 186.441406 C 187.429688 188.609375 186.960938 190.792969 186.585938 193 C 186.214844 195.203125 185.9375 197.421875 185.761719 199.652344 L 169.707031 215.703125 C 169.445312 215.96875 169.160156 216.203125 168.847656 216.410156 C 168.539062 216.617188 168.210938 216.792969 167.867188 216.9375 C 167.519531 217.078125 167.167969 217.1875 166.800781 217.257812 C 166.433594 217.332031 166.066406 217.367188 165.691406 217.367188 C 165.320312 217.367188 164.949219 217.332031 164.582031 217.257812 C 164.21875 217.1875 163.863281 217.078125 163.519531 216.9375 C 163.171875 216.792969 162.847656 216.617188 162.535156 216.410156 C 162.226562 216.203125 161.9375 215.96875 161.675781 215.703125 L 130.511719 184.539062 C 130.246094 184.277344 130.011719 183.988281 129.804688 183.679688 C 129.597656 183.367188 129.421875 183.042969 129.28125 182.695312 C 129.136719 182.351562 129.03125 181.996094 128.957031 181.628906 C 128.886719 181.265625 128.847656 180.894531 128.847656 180.523438 C 128.847656 180.148438 128.886719 179.78125 128.957031 179.414062 C 129.03125 179.046875 129.136719 178.695312 129.28125 178.347656 C 129.421875 178.003906 129.597656 177.675781 129.804688 177.367188 C 130.011719 177.054688 130.246094 176.769531 130.511719 176.503906 L 140.152344 166.863281 L 154.042969 180.757812 C 154.257812 180.96875 154.488281 181.160156 154.734375 181.324219 C 154.984375 181.492188 155.246094 181.632812 155.523438 181.746094 C 155.800781 181.859375 156.085938 181.945312 156.378906 182.003906 C 156.671875 182.0625 156.96875 182.089844 157.265625 182.089844 C 157.566406 182.089844 157.863281 182.0625 158.15625 182.003906 C 158.449219 181.945312 158.734375 181.859375 159.007812 181.742188 C 159.285156 181.628906 159.546875 181.488281 159.796875 181.324219 C 160.046875 181.15625 160.277344 180.96875 160.488281 180.757812 C 160.699219 180.542969 160.886719 180.316406 161.054688 180.066406 C 161.21875 179.816406 161.359375 179.554688 161.476562 179.277344 C 161.589844 179 161.675781 178.71875 161.734375 178.421875 C 161.792969 178.128906 161.820312 177.835938 161.820312 177.535156 C 161.820312 177.234375 161.792969 176.941406 161.734375 176.644531 C 161.675781 176.351562 161.589844 176.066406 161.476562 175.792969 C 161.363281 175.515625 161.222656 175.253906 161.054688 175.003906 C 160.890625 174.753906 160.699219 174.523438 160.488281 174.3125 L 146.59375 160.421875 L 154.035156 152.980469 L 159.371094 158.316406 C 159.582031 158.527344 159.8125 158.71875 160.058594 158.882812 C 160.308594 159.050781 160.570312 159.191406 160.847656 159.304688 C 161.125 159.417969 161.410156 159.503906 161.703125 159.5625 C 161.996094 159.621094 162.292969 159.648438 162.589844 159.648438 C 162.890625 159.648438 163.1875 159.621094 163.480469 159.5625 C 163.773438 159.503906 164.058594 159.417969 164.335938 159.304688 C 164.609375 159.1875 164.875 159.046875 165.121094 158.882812 C 165.371094 158.714844 165.601562 158.527344 165.8125 158.316406 C 166.023438 158.105469 166.214844 157.875 166.378906 157.625 C 166.546875 157.375 166.6875 157.113281 166.800781 156.835938 C 166.914062 156.5625 167 156.277344 167.058594 155.984375 C 167.117188 155.6875 167.148438 155.394531 167.148438 155.09375 C 167.148438 154.792969 167.117188 154.5 167.058594 154.207031 C 167 153.910156 166.914062 153.628906 166.800781 153.351562 C 166.6875 153.074219 166.546875 152.8125 166.378906 152.5625 C 166.214844 152.3125 166.027344 152.082031 165.816406 151.871094 L 160.480469 146.535156 L 167.917969 139.097656 L 181.8125 152.992188 C 182.023438 153.199219 182.253906 153.386719 182.503906 153.550781 C 182.75 153.714844 183.015625 153.851562 183.289062 153.964844 C 183.566406 154.074219 183.847656 154.160156 184.140625 154.21875 C 184.433594 154.273438 184.730469 154.300781 185.027344 154.300781 C 185.324219 154.296875 185.617188 154.269531 185.910156 154.210938 C 186.203125 154.152344 186.484375 154.0625 186.761719 153.949219 C 187.035156 153.835938 187.296875 153.695312 187.542969 153.53125 C 187.789062 153.363281 188.019531 153.175781 188.230469 152.964844 C 188.441406 152.753906 188.628906 152.527344 188.792969 152.277344 C 188.960938 152.03125 189.101562 151.769531 189.214844 151.496094 C 189.328125 151.21875 189.414062 150.9375 189.472656 150.644531 C 189.535156 150.355469 189.5625 150.058594 189.566406 149.761719 C 189.566406 149.464844 189.539062 149.167969 189.480469 148.875 C 189.425781 148.585938 189.339844 148.300781 189.230469 148.023438 C 189.117188 147.75 188.980469 147.488281 188.816406 147.238281 C 188.652344 146.988281 188.464844 146.757812 188.257812 146.546875 L 174.359375 132.65625 L 181.804688 125.214844 L 187.136719 130.550781 C 187.351562 130.761719 187.582031 130.953125 187.828125 131.117188 C 188.078125 131.285156 188.339844 131.425781 188.617188 131.539062 C 188.894531 131.652344 189.179688 131.738281 189.472656 131.796875 C 189.765625 131.855469 190.0625 131.882812 190.359375 131.882812 C 190.660156 131.882812 190.957031 131.855469 191.25 131.796875 C 191.542969 131.738281 191.828125 131.652344 192.105469 131.539062 C 192.378906 131.421875 192.640625 131.28125 192.890625 131.117188 C 193.140625 130.949219 193.371094 130.761719 193.582031 130.550781 C 193.792969 130.339844 193.980469 130.109375 194.148438 129.859375 C 194.3125 129.609375 194.453125 129.347656 194.570312 129.070312 C 194.683594 128.796875 194.769531 128.511719 194.828125 128.21875 C 194.886719 127.921875 194.914062 127.628906 194.917969 127.328125 C 194.917969 127.027344 194.886719 126.734375 194.828125 126.441406 C 194.769531 126.144531 194.683594 125.859375 194.570312 125.585938 C 194.457031 125.308594 194.316406 125.046875 194.148438 124.796875 C 193.984375 124.546875 193.792969 124.316406 193.582031 124.105469 L 188.25 118.769531 L 195.6875 111.332031 L 209.582031 125.226562 C 209.792969 125.441406 210.019531 125.632812 210.269531 125.800781 C 210.519531 125.96875 210.78125 126.113281 211.058594 126.230469 C 211.335938 126.347656 211.621094 126.4375 211.917969 126.496094 C 212.210938 126.554688 212.507812 126.585938 212.808594 126.589844 C 213.109375 126.589844 213.410156 126.5625 213.703125 126.503906 C 214 126.445312 214.285156 126.359375 214.566406 126.246094 C 214.84375 126.128906 215.105469 125.988281 215.355469 125.824219 C 215.609375 125.65625 215.839844 125.464844 216.050781 125.253906 C 216.265625 125.039062 216.453125 124.808594 216.621094 124.558594 C 216.789062 124.308594 216.929688 124.042969 217.042969 123.765625 C 217.15625 123.488281 217.242188 123.203125 217.300781 122.90625 C 217.359375 122.609375 217.386719 122.3125 217.386719 122.011719 C 217.386719 121.710938 217.355469 121.414062 217.292969 121.117188 C 217.234375 120.824219 217.144531 120.539062 217.027344 120.261719 C 216.910156 119.984375 216.769531 119.71875 216.601562 119.472656 C 216.429688 119.222656 216.238281 118.992188 216.023438 118.78125 L 202.128906 104.890625 L 209.566406 97.449219 L 214.902344 102.785156 C 215.113281 102.996094 215.34375 103.179688 215.59375 103.34375 C 215.84375 103.507812 216.105469 103.644531 216.378906 103.757812 C 216.65625 103.871094 216.941406 103.953125 217.234375 104.011719 C 217.523438 104.066406 217.820312 104.09375 218.117188 104.09375 C 218.414062 104.09375 218.710938 104.0625 219 104.003906 C 219.292969 103.945312 219.578125 103.859375 219.851562 103.742188 C 220.125 103.628906 220.386719 103.488281 220.632812 103.324219 C 220.882812 103.15625 221.109375 102.96875 221.320312 102.757812 C 221.53125 102.550781 221.71875 102.320312 221.886719 102.074219 C 222.050781 101.824219 222.191406 101.5625 222.304688 101.289062 C 222.421875 101.015625 222.507812 100.730469 222.566406 100.441406 C 222.625 100.148438 222.65625 99.851562 222.65625 99.554688 C 222.65625 99.257812 222.628906 98.960938 222.574219 98.671875 C 222.515625 98.378906 222.433594 98.09375 222.320312 97.820312 C 222.207031 97.542969 222.070312 97.28125 221.90625 97.03125 C 221.742188 96.785156 221.554688 96.554688 221.347656 96.339844 L 216.011719 91.003906 L 223.449219 83.566406 L 237.34375 97.460938 C 237.554688 97.671875 237.785156 97.863281 238.035156 98.027344 C 238.285156 98.195312 238.546875 98.335938 238.824219 98.449219 C 239.097656 98.5625 239.382812 98.648438 239.679688 98.707031 C 239.972656 98.765625 240.269531 98.796875 240.566406 98.796875 C 240.867188 98.796875 241.164062 98.765625 241.457031 98.707031 C 241.75 98.648438 242.035156 98.5625 242.3125 98.449219 C 242.585938 98.335938 242.851562 98.195312 243.097656 98.027344 C 243.347656 97.859375 243.578125 97.671875 243.789062 97.460938 C 244 97.25 244.191406 97.019531 244.355469 96.769531 C 244.523438 96.519531 244.664062 96.257812 244.777344 95.980469 C 244.890625 95.707031 244.976562 95.421875 245.035156 95.128906 C 245.09375 94.832031 245.125 94.539062 245.125 94.238281 C 245.125 93.9375 245.09375 93.640625 245.035156 93.347656 C 244.976562 93.054688 244.890625 92.769531 244.777344 92.492188 C 244.664062 92.21875 244.523438 91.953125 244.355469 91.707031 C 244.191406 91.457031 244 91.226562 243.789062 91.015625 L 229.894531 77.121094 L 242.933594 64.085938 L 282.132812 103.285156 Z M 301.980469 98.199219 C 302.179688 98.394531 302.355469 98.609375 302.511719 98.84375 C 302.667969 99.078125 302.796875 99.320312 302.902344 99.582031 C 303.011719 99.839844 303.089844 100.105469 303.144531 100.378906 C 303.199219 100.652344 303.226562 100.929688 303.226562 101.210938 C 303.226562 101.488281 303.199219 101.765625 303.144531 102.039062 C 303.089844 102.316406 303.011719 102.582031 302.902344 102.839844 C 302.796875 103.097656 302.667969 103.34375 302.511719 103.574219 C 302.355469 103.808594 302.179688 104.023438 301.980469 104.222656 C 301.785156 104.417969 301.570312 104.597656 301.335938 104.75 C 301.105469 104.90625 300.859375 105.035156 300.601562 105.144531 C 300.339844 105.25 300.074219 105.332031 299.800781 105.386719 C 299.527344 105.441406 299.25 105.46875 298.96875 105.46875 C 298.691406 105.46875 298.414062 105.441406 298.140625 105.386719 C 297.863281 105.332031 297.597656 105.25 297.339844 105.144531 C 297.082031 105.035156 296.835938 104.90625 296.601562 104.75 C 296.371094 104.597656 296.15625 104.417969 295.957031 104.222656 L 241.996094 50.261719 C 241.800781 50.0625 241.621094 49.847656 241.46875 49.617188 C 241.3125 49.382812 241.179688 49.136719 241.074219 48.878906 C 240.964844 48.621094 240.886719 48.355469 240.832031 48.078125 C 240.777344 47.804688 240.75 47.527344 240.75 47.25 C 240.75 46.96875 240.777344 46.691406 240.832031 46.417969 C 240.886719 46.144531 240.964844 45.875 241.074219 45.617188 C 241.179688 45.359375 241.3125 45.113281 241.46875 44.882812 C 241.621094 44.648438 241.800781 44.433594 241.996094 44.234375 C 242.195312 44.039062 242.410156 43.863281 242.644531 43.707031 C 242.875 43.550781 243.121094 43.417969 243.378906 43.3125 C 243.636719 43.207031 243.90625 43.125 244.179688 43.070312 C 244.453125 43.015625 244.730469 42.988281 245.011719 42.988281 C 245.289062 42.988281 245.566406 43.015625 245.839844 43.070312 C 246.117188 43.125 246.382812 43.207031 246.640625 43.3125 C 246.898438 43.421875 247.144531 43.550781 247.375 43.707031 C 247.609375 43.863281 247.824219 44.039062 248.023438 44.238281 Z M 283.929688 67.253906 L 278.964844 62.289062 L 303.804688 37.445312 L 308.773438 42.410156 Z M 334.820312 50.597656 C 334.488281 50.925781 334.109375 51.179688 333.679688 51.359375 C 333.25 51.535156 332.800781 51.625 332.335938 51.625 C 331.871094 51.625 331.421875 51.535156 330.992188 51.359375 C 330.5625 51.179688 330.183594 50.925781 329.855469 50.597656 L 295.621094 16.367188 C 295.292969 16.035156 295.039062 15.65625 294.859375 15.226562 C 294.679688 14.796875 294.59375 14.347656 294.59375 13.882812 C 294.59375 13.417969 294.679688 12.96875 294.859375 12.539062 C 295.039062 12.109375 295.292969 11.730469 295.621094 11.398438 C 295.949219 11.070312 296.328125 10.816406 296.761719 10.636719 C 297.191406 10.460938 297.636719 10.371094 298.105469 10.371094 C 298.570312 10.371094 299.015625 10.460938 299.449219 10.636719 C 299.878906 10.816406 300.257812 11.070312 300.585938 11.398438 L 334.820312 45.632812 C 335.148438 45.960938 335.402344 46.34375 335.578125 46.773438 C 335.757812 47.203125 335.847656 47.652344 335.847656 48.117188 C 335.84375 48.582031 335.757812 49.03125 335.578125 49.460938 C 335.398438 49.890625 335.144531 50.269531 334.816406 50.597656 Z M 334.820312 50.597656 "/><g clip-rule="nonzero" clip-path="url(#2402cdc3ac)"><path style=" stroke:none;fill-rule:nonzero;fill:#a5ab7f;fill-opacity:1;" d="M 51.828125 374.960938 C 52.582031 374.957031 53.332031 374.921875 54.082031 374.847656 C 54.832031 374.769531 55.578125 374.660156 56.316406 374.511719 C 57.054688 374.363281 57.785156 374.183594 58.503906 373.960938 C 59.226562 373.742188 59.933594 373.488281 60.628906 373.199219 C 61.324219 372.914062 62.003906 372.589844 62.667969 372.234375 C 63.332031 371.878906 63.976562 371.492188 64.605469 371.074219 C 65.230469 370.65625 65.832031 370.207031 66.414062 369.730469 C 67 369.25 67.554688 368.746094 68.089844 368.214844 C 68.621094 367.679688 69.125 367.125 69.605469 366.542969 C 70.082031 365.960938 70.53125 365.355469 70.949219 364.730469 C 71.367188 364.101562 71.753906 363.457031 72.109375 362.792969 C 72.464844 362.128906 72.785156 361.449219 73.074219 360.753906 C 73.363281 360.058594 73.617188 359.351562 73.835938 358.628906 C 74.054688 357.910156 74.238281 357.179688 74.386719 356.441406 C 74.535156 355.703125 74.644531 354.957031 74.71875 354.207031 C 74.796875 353.457031 74.832031 352.707031 74.832031 351.953125 C 74.832031 351.867188 74.832031 351.777344 74.828125 351.6875 C 74.773438 346.207031 73.058594 342.128906 71.148438 338.09375 C 68.011719 331.476562 56.105469 313.878906 55.597656 313.132812 C 55.175781 312.507812 54.628906 312.019531 53.960938 311.664062 C 53.292969 311.3125 52.582031 311.132812 51.828125 311.132812 C 51.070312 311.132812 50.359375 311.3125 49.691406 311.664062 C 49.023438 312.019531 48.480469 312.507812 48.054688 313.132812 C 47.546875 313.878906 35.59375 331.523438 32.496094 338.105469 C 30.722656 341.878906 28.824219 346.375 28.824219 351.953125 C 28.824219 352.707031 28.863281 353.457031 28.9375 354.207031 C 29.011719 354.957031 29.125 355.699219 29.269531 356.4375 C 29.417969 357.175781 29.601562 357.90625 29.820312 358.628906 C 30.039062 359.347656 30.292969 360.054688 30.582031 360.753906 C 30.871094 361.449219 31.191406 362.128906 31.546875 362.792969 C 31.902344 363.457031 32.289062 364.101562 32.710938 364.726562 C 33.128906 365.355469 33.574219 365.957031 34.054688 366.539062 C 34.53125 367.121094 35.035156 367.679688 35.570312 368.210938 C 36.101562 368.746094 36.660156 369.25 37.242188 369.726562 C 37.824219 370.207031 38.429688 370.65625 39.054688 371.074219 C 39.679688 371.492188 40.324219 371.878906 40.988281 372.234375 C 41.652344 372.589844 42.332031 372.910156 43.027344 373.199219 C 43.726562 373.488281 44.433594 373.742188 45.152344 373.960938 C 45.875 374.183594 46.605469 374.363281 47.34375 374.511719 C 48.082031 374.660156 48.824219 374.769531 49.574219 374.847656 C 50.324219 374.921875 51.074219 374.957031 51.828125 374.960938 Z M 40.742188 341.988281 C 42.433594 338.398438 47.757812 330.070312 51.824219 323.90625 C 55.878906 330.0625 61.199219 338.382812 62.914062 341.996094 C 64.8125 346.007812 65.714844 348.523438 65.714844 351.953125 C 65.714844 352.023438 65.714844 352.09375 65.71875 352.164062 C 65.707031 353.070312 65.605469 353.96875 65.414062 354.855469 C 65.226562 355.746094 64.953125 356.605469 64.59375 357.441406 C 64.234375 358.273438 63.800781 359.066406 63.285156 359.8125 C 62.773438 360.5625 62.191406 361.253906 61.542969 361.890625 C 60.894531 362.523438 60.1875 363.089844 59.429688 363.585938 C 58.667969 364.082031 57.867188 364.5 57.027344 364.839844 C 56.183594 365.179688 55.316406 365.433594 54.425781 365.605469 C 53.535156 365.773438 52.632812 365.855469 51.726562 365.847656 C 50.816406 365.839844 49.917969 365.746094 49.03125 365.5625 C 48.140625 365.378906 47.277344 365.113281 46.441406 364.761719 C 45.605469 364.40625 44.808594 363.976562 44.058594 363.46875 C 43.304688 362.960938 42.609375 362.386719 41.96875 361.742188 C 41.332031 361.097656 40.761719 360.398438 40.257812 359.640625 C 39.757812 358.882812 39.332031 358.085938 38.988281 357.246094 C 38.640625 356.40625 38.378906 355.542969 38.203125 354.652344 C 38.027344 353.761719 37.941406 352.863281 37.941406 351.953125 C 37.941406 348.257812 39.324219 345.003906 40.742188 341.988281 Z M 40.742188 341.988281 "/></g></g></svg>